<?xml version="1.0" encoding="utf-8"?>
<!-- Generator: Adobe Illustrator 16.0.0, SVG Export Plug-In . SVG Version: 6.00 Build 0)  -->
<!DOCTYPE svg PUBLIC "-//W3C//DTD SVG 1.1//EN" "http://www.w3.org/Graphics/SVG/1.1/DTD/svg11.dtd">
<svg version="1.1" id="Layer_1" xmlns="http://www.w3.org/2000/svg" xmlns:xlink="http://www.w3.org/1999/xlink" x="0px" y="0px"
	 width="113.39px" height="113.39px" viewBox="0 0 113.39 113.39" enable-background="new 0 0 113.39 113.39" xml:space="preserve">
<path d="M56.692,1.17C26.027,1.17,1.169,26.029,1.169,56.7c0,30.662,24.858,55.52,55.523,55.52c30.669,0,55.528-24.858,55.528-55.52
	C112.221,26.029,87.361,1.17,56.692,1.17z M92.804,86.454c-0.543-0.396-0.894-0.984-0.993-1.65c-0.099-0.665,0.065-1.327,0.468-1.87
	c6.058-8.202,9.101-18.34,8.567-28.546c-1.27-24.265-21.822-43.053-46.459-41.848c-11.793,0.619-22.637,5.795-30.548,14.575
	c-7.899,8.771-11.911,20.1-11.292,31.896c0.619,11.79,5.791,22.635,14.562,30.54c8.696,7.836,20.129,11.889,31.892,11.299
	c8.71-0.458,16.979-3.421,23.932-8.571c1.097-0.819,2.719-0.566,3.521,0.526c0.399,0.536,0.566,1.199,0.471,1.861
	c-0.096,0.666-0.455,1.253-0.994,1.655c-7.748,5.744-16.967,9.049-26.663,9.554c-13.065,0.677-25.817-3.834-35.531-12.582
	c-9.771-8.803-15.53-20.884-16.219-34.02c-0.688-13.136,3.779-25.757,12.584-35.531c8.804-9.781,20.886-15.543,34.022-16.227
	c0.873-0.05,1.742-0.07,2.612-0.07c26.189,0,47.773,20.501,49.14,46.672c0.598,11.367-2.793,22.666-9.548,31.81
	C95.533,87,93.89,87.263,92.804,86.454z M56.692,72.376c2.669,0,4.834,2.165,4.834,4.838c0,2.663-2.165,4.828-4.834,4.828
	c-2.667,0-4.83-2.165-4.83-4.828C51.862,74.541,54.025,72.376,56.692,72.376z M53.938,61.165v-33.05
	c0-1.521,1.234-2.755,2.754-2.755c1.522,0,2.757,1.233,2.757,2.755v33.05c0,1.523-1.234,2.756-2.757,2.756
	C55.173,63.921,53.938,62.688,53.938,61.165z"/>
</svg>
