<?xml version="1.0" encoding="utf-8"?>
<!-- Generator: Adobe Illustrator 16.0.0, SVG Export Plug-In . SVG Version: 6.00 Build 0)  -->
<!DOCTYPE svg PUBLIC "-//W3C//DTD SVG 1.1//EN" "http://www.w3.org/Graphics/SVG/1.1/DTD/svg11.dtd">
<svg version="1.1" id="Layer_1" xmlns="http://www.w3.org/2000/svg" xmlns:xlink="http://www.w3.org/1999/xlink" x="0px" y="0px"
	 width="200px" height="141.463px" viewBox="0 0 200 141.463" enable-background="new 0 0 200 141.463" xml:space="preserve">
<g>
	<path d="M6.997,106.531c-8.379-8.379-8.379-21.588-0.258-29.711l31.004-31.023c4.675-4.66,11.948-4.654,16.42-0.182
		c2.202,2.207,3.397,5.136,3.354,8.255l-0.012,13.22h88.314c0.898,0,1.76,0.357,2.395,0.993h0.007
		c0.635,0.638,0.992,1.5,0.985,2.404l-0.034,16.626c-0.012,1.335,0.483,2.552,1.396,3.466c1.826,1.819,4.784,1.819,6.602,0
		l30.983-30.966c5.729-5.749,5.729-14.668,0.252-20.151L157.274,8.345c-2.05-2.033-5.026-2.03-6.853-0.201
		c-0.905,0.903-1.396,2.096-1.37,3.353l-0.012,16.829c0,1.872-1.515,3.386-3.387,3.386l-73.67,0.013
		c-1.873,0-3.388-1.515-3.388-3.386c0-1.869,1.515-3.387,3.388-3.387l70.282-0.014l0.021-13.424
		c-0.066-2.996,1.124-5.94,3.346-8.163c4.466-4.468,11.735-4.468,16.206-0.003l31.088,31.076c0.008,0.003,0.015,0.007,0.015,0.007
		c8.374,8.374,8.374,21.586,0.252,29.709l-31.011,31.022c-4.682,4.664-11.939,4.664-16.404,0.206
		c-2.209-2.209-3.412-5.146-3.38-8.269l0.026-13.236H54.109c-0.896,0-1.756-0.356-2.393-0.992c0,0,0,0-0.004-0.003
		c-0.635-0.635-0.99-1.498-0.99-2.398L50.74,53.84c0.02-1.335-0.466-2.532-1.366-3.433c-1.833-1.832-4.807-1.839-6.627-0.017
		L11.776,81.34c-5.725,5.746-5.728,14.663-0.251,20.139l31.142,31.141c2.034,2.031,5.004,2.031,6.827,0.213
		c0.913-0.912,1.402-2.117,1.382-3.381l0.007-16.84c0.003-1.865,1.518-3.381,3.386-3.381l73.663,0.014
		c1.867,0,3.389,1.516,3.389,3.387s-1.515,3.387-3.389,3.387l-70.279-0.014l-0.003,13.369c0.053,3.074-1.142,6.02-3.364,8.246
		c-4.465,4.459-11.731,4.459-16.2-0.004L6.997,106.531z"/>
</g>
</svg>
