<?xml version="1.0" encoding="utf-8"?>
<!-- Generator: Adobe Illustrator 16.0.0, SVG Export Plug-In . SVG Version: 6.00 Build 0)  -->
<!DOCTYPE svg PUBLIC "-//W3C//DTD SVG 1.1//EN" "http://www.w3.org/Graphics/SVG/1.1/DTD/svg11.dtd">
<svg version="1.1" id="Layer_1" xmlns="http://www.w3.org/2000/svg" xmlns:xlink="http://www.w3.org/1999/xlink" x="0px" y="0px"
	 width="169.876px" height="200px" viewBox="0 0 169.876 200" enable-background="new 0 0 169.876 200" xml:space="preserve">
<g>
	<path d="M42.097,200.135c-1.939,0-3.875-0.735-5.346-2.209L4.045,165.233C1.382,162.566,0,159.235,0,155.689
		c0.002-3.545,1.384-6.873,3.889-9.378l32.713-32.706c1.547-1.541,3.447-2.332,5.473-2.332c0.001,0,0.004,0,0.008,0
		c2.024,0,3.927,0.786,5.358,2.224c1.447,1.434,2.236,3.372,2.21,5.452l0.008,0.515v15.646h60c1.475,0,2.671,1.196,2.671,2.67
		c0,1.478-1.196,2.674-2.671,2.674H46.987c-1.476,0-2.672-1.196-2.672-2.674l-0.008-18.83c0.008-0.683-0.219-1.253-0.639-1.67
		c-0.432-0.434-0.992-0.667-1.586-0.667c-0.002,0-0.002,0-0.004,0c-0.593,0.004-1.146,0.233-1.564,0.65L7.823,149.94
		c-1.652,1.646-2.477,3.633-2.477,5.749c-0.001,2.116,0.824,4.107,2.319,5.601l32.731,32.733c0.998,0.992,2.412,0.984,3.287,0.117
		c0.424-0.426,0.654-0.987,0.64-1.582l0.008-0.682l-0.016-18.333c-0.002-0.707,0.281-1.389,0.781-1.891
		c0.502-0.502,1.182-0.782,1.891-0.782h62.672c1.475,0,2.671,1.196,2.671,2.673c0,1.474-1.196,2.67-2.671,2.67H49.661l0.014,15.699
		l-0.008,0.621c0.044,1.943-0.761,3.943-2.212,5.392C45.974,199.399,44.034,200.135,42.097,200.135z"/>
</g>
<g>
	<path d="M127.795,144.388c-1.935,0-3.846-0.734-5.308-2.188c-1.457-1.457-2.264-3.457-2.216-5.488l-0.008-0.493l0.012-15.735
		H60.277c-1.476,0-2.672-1.196-2.672-2.674c0-1.477,1.196-2.674,2.672-2.674h62.672c0.71,0,1.389,0.281,1.891,0.787
		c0.499,0.498,0.783,1.181,0.779,1.887l-0.017,18.373l0.009,0.55c-0.013,0.687,0.217,1.252,0.65,1.682
		c0.867,0.868,2.28,0.868,3.147,0l32.706-32.689c1.653-1.662,2.477-3.651,2.473-5.767c0-2.114-0.823-4.103-2.32-5.601
		l-32.714-32.705c-0.55-0.536-1.104-0.768-1.694-0.769c-0.734-0.119-1.16,0.233-1.582,0.654c-0.43,0.428-0.658,0.996-0.65,1.612
		l-0.008,0.652v18.248c0,1.476-1.196,2.672-2.67,2.672H60.277c-1.476,0-2.672-1.196-2.672-2.672c0-1.476,1.196-2.672,2.672-2.672
		h60.002l0.009-16.229c-0.028-2.008,0.763-3.949,2.215-5.394c1.422-1.425,3.325-2.215,5.349-2.215c0.008,0,0.008,0,0.008,0
		c2.027,0.002,3.927,0.793,5.353,2.228l32.677,32.664c2.667,2.654,4.047,5.984,4.047,9.528c0,3.545-1.38,6.875-3.89,9.381
		l-32.727,32.729C131.762,143.621,129.771,144.388,127.795,144.388z"/>
</g>
<g>
	<path d="M42.097,88.667c-1.939,0-3.875-0.737-5.346-2.208L4.045,53.765C1.382,51.099,0,47.767,0,44.222
		c0.002-3.543,1.384-6.873,3.889-9.378L36.603,2.137c1.547-1.542,3.447-2.332,5.473-2.334c0.001,0,0.004,0,0.008,0
		c2.024,0,3.927,0.789,5.358,2.224c1.447,1.436,2.236,3.377,2.21,5.455l0.008,0.512v15.648h60c1.475,0,2.671,1.196,2.671,2.672
		c0,1.475-1.196,2.671-2.671,2.671H46.987c-1.476,0-2.672-1.196-2.672-2.671l-0.008-18.83c0.008-0.687-0.219-1.255-0.639-1.672
		c-0.432-0.432-0.992-0.665-1.586-0.665c-0.002,0-0.002,0-0.004,0c-0.593,0.002-1.146,0.233-1.564,0.651L7.823,38.473
		c-1.652,1.646-2.477,3.635-2.477,5.749c-0.001,2.116,0.824,4.105,2.319,5.599l32.731,32.735c0.998,0.988,2.412,0.985,3.287,0.119
		c0.424-0.426,0.654-0.99,0.64-1.584l0.008-0.68l-0.016-18.334c-0.002-0.708,0.281-1.389,0.781-1.891
		c0.502-0.502,1.182-0.783,1.891-0.783h62.672c1.475,0,2.671,1.197,2.671,2.672c0,1.475-1.196,2.671-2.671,2.671H49.661
		l0.014,15.699l-0.008,0.624c0.044,1.942-0.761,3.941-2.212,5.39C45.974,87.932,44.034,88.667,42.097,88.667z"/>
</g>
</svg>
