<?xml version="1.0" encoding="utf-8"?>
<!-- Generator: Adobe Illustrator 16.0.0, SVG Export Plug-In . SVG Version: 6.00 Build 0)  -->
<!DOCTYPE svg PUBLIC "-//W3C//DTD SVG 1.1//EN" "http://www.w3.org/Graphics/SVG/1.1/DTD/svg11.dtd">
<svg version="1.1" id="Layer_1" xmlns="http://www.w3.org/2000/svg" xmlns:xlink="http://www.w3.org/1999/xlink" x="0px" y="0px"
	 width="200px" height="158.043px" viewBox="0 0 200 158.043" enable-background="new 0 0 200 158.043" xml:space="preserve">
<g>
	<path d="M125.041,158.043c-3.429,0-6.828-1.314-9.428-3.893c-2.596-2.621-3.988-6.07-3.942-9.74l-0.021-0.887
		l0.025-28.002H4.974c-2.625,0-4.753-2.129-4.753-4.758c0-2.621,2.128-4.748,4.753-4.748h111.454c1.264,0,2.471,0.498,3.371,1.393
		c0.885,0.893,1.385,2.1,1.385,3.363l-0.028,32.66l0.021,0.941c-0.015,1.258,0.399,2.287,1.164,3.064
		c1.535,1.521,4.057,1.521,5.599-0.021l58.148-58.163c2.942-2.957,4.413-6.488,4.413-10.246c0-3.756-1.471-7.288-4.141-9.945
		L128.197,10.88c-1.771-1.764-4.285-1.764-5.842-0.222c-0.75,0.754-1.172,1.782-1.157,2.879l-0.015,1.153v32.487
		c0,2.625-2.128,4.753-4.756,4.753H4.974c-2.625,0-4.753-2.128-4.753-4.753s2.128-4.753,4.753-4.753h106.704l0.015-28.906
		c-0.036-3.55,1.364-6.993,3.936-9.577c5.271-5.253,13.812-5.253,19.054-0.015l58.134,58.138C197.544,66.782,200,72.706,200,79.008
		c0,6.303-2.456,12.231-6.927,16.68l-58.191,58.226C132.11,156.672,128.554,158.043,125.041,158.043z"/>
</g>
</svg>
