<?xml version="1.0" encoding="utf-8"?>
<!-- Generator: Adobe Illustrator 16.0.0, SVG Export Plug-In . SVG Version: 6.00 Build 0)  -->
<svg version="1.2" baseProfile="tiny" id="Layer_1" xmlns="http://www.w3.org/2000/svg" xmlns:xlink="http://www.w3.org/1999/xlink"
	 x="0px" y="0px" width="31px" height="31px" viewBox="0 0 31 31" xml:space="preserve">
<path d="M8.772,15.632l-0.139,0.006c0,0.184,0.047,0.367,0.136,0.527l6.466,6.447c0.426,0.419,1.173,0.413,1.587,0.001
	c0.209-0.204,0.329-0.491,0.329-0.79c-0.001-0.299-0.12-0.586-0.326-0.784l-4.351-4.295h8.651c0.622,0,1.126-0.498,1.126-1.11
	s-0.504-1.111-1.126-1.111h-8.651l4.348-4.291c0.209-0.204,0.329-0.492,0.329-0.79c-0.001-0.298-0.12-0.586-0.324-0.783
	c-0.212-0.21-0.495-0.326-0.797-0.326c-0.3,0-0.582,0.115-0.796,0.324l-6.261,6.184L8.797,15.07H8.765l0.001,0.041
	c-0.087,0.161-0.133,0.341-0.133,0.521H8.772z"/>
<path d="M15.312,0.947c3.671,0,7.165,1.321,9.914,3.766c2.945,2.62,4.681,6.215,4.888,10.123c0.208,3.91-1.139,7.665-3.792,10.574
	c-2.653,2.909-6.295,4.625-10.255,4.83C7.9,30.664,0.895,24.439,0.468,16.37c-0.18-3.383,0.842-6.744,2.878-9.465
	C3.691,6.443,4.35,6.343,4.818,6.687C5.287,7.027,5.386,7.678,5.04,8.14c-1.747,2.334-2.623,5.219-2.469,8.122
	c0.367,6.924,6.355,12.262,13.386,11.903c3.398-0.176,6.523-1.648,8.801-4.145c2.276-2.497,3.432-5.72,3.254-9.074
	c-0.178-3.354-1.667-6.44-4.196-8.688c-2.528-2.25-5.814-3.384-9.188-3.214C12.12,3.173,9.735,4.016,7.732,5.481
	C7.263,5.824,6.605,5.726,6.26,5.265C5.913,4.804,6.012,4.153,6.479,3.811c2.336-1.709,5.116-2.693,8.038-2.843
	C14.782,0.954,15.048,0.947,15.312,0.947z"/>
</svg>
