<?xml version="1.0" encoding="utf-8"?>
<!-- Generator: Adobe Illustrator 16.0.0, SVG Export Plug-In . SVG Version: 6.00 Build 0)  -->
<!DOCTYPE svg PUBLIC "-//W3C//DTD SVG 1.1//EN" "http://www.w3.org/Graphics/SVG/1.1/DTD/svg11.dtd">
<svg version="1.1" id="Shape_7_1_" xmlns="http://www.w3.org/2000/svg" xmlns:xlink="http://www.w3.org/1999/xlink" x="0px" y="0px"
	 width="25px" height="25px" viewBox="0 0 25 25" enable-background="new 0 0 25 25" xml:space="preserve">
<g id="Shape_7">
	<g>
		<path fill="#A9CF38" d="M24.529,0.468c-0.795-0.784-2.477-0.705-4.447,1.241l-3.537,3.495L2.765,4.473
			c-0.026-0.001-0.051,0.001-0.05,0.001v0.001L2.654,4.479C2.631,4.483,2.61,4.488,2.61,4.489L2.43,4.563
			c-0.016,0.011-0.028,0.02-0.031,0.022l-2.228,2.19L0.13,6.818L0.05,6.953c-0.002,0.005-0.004,0.01-0.006,0.015L0.006,7.105
			C0.004,7.12,0.002,7.135,0.001,7.149l0.006,0.124c0.001,0.01,0.004,0.019,0.005,0.029l0.034,0.106
			C0.06,7.44,0.077,7.47,0.082,7.478l0.089,0.114c0.014,0.015,0.03,0.027,0.046,0.041l0.059,0.041
			C0.297,7.687,0.32,7.699,0.342,7.709l9.801,3c0.388,0.155,0.823,0.541,0.869,0.759c0.007,0.034,0.018,0.081-0.084,0.182
			L6.35,16.268l-2.392-0.263l-0.106-0.008l-0.187,0.03c-0.021,0.007-0.041,0.015-0.053,0.021l-0.048,0.024
			c-0.017,0.01-0.033,0.02-0.049,0.03l-1.987,1.95l-0.061,0.072c-0.008,0.011-0.017,0.024-0.029,0.043l-0.081,0.221l0.001,0.026
			c-0.001,0.009-0.001,0.017-0.001,0.021H1.36l0.001,0.016l-0.003,0.001l0.011,0.126c0.004,0.018,0.009,0.035,0.014,0.053
			l0.046,0.122l0.037,0.044c0.019,0.024,0.04,0.049,0.062,0.07l0.028,0.026c0.021,0.017,0.042,0.033,0.065,0.049l0.045,0.024
			c0.016,0.009,0.03,0.017,0.046,0.022l2.186,0.697c-0.785,1.386-0.994,1.856-0.572,2.273c0.421,0.416,0.898,0.21,2.301-0.565
			l0.679,2.084l0.026,0.074c0.004,0.009,0.008,0.019,0.013,0.028l0.036,0.063c0.015,0.021,0.031,0.043,0.05,0.063l0.025,0.027
			c0.023,0.023,0.05,0.044,0.053,0.046l0.045,0.031c0.018,0.012,0.037,0.022,0.057,0.032l0.05,0.027l0.079,0.018
			c0.019,0.004,0.038,0.008,0.058,0.01l0.073,0.005c0.024,0,0.049-0.002,0.075-0.006l0.14-0.036
			c0.018-0.007,0.035-0.016,0.051-0.023l0.039-0.021c0.017-0.011,0.031-0.021,0.037-0.025l1.978-1.944l0.044-0.05
			c0.005-0.006,0.01-0.012,0.015-0.019l0.027-0.04c0.011-0.017,0.021-0.035,0.033-0.062l0.018-0.042l-0.286-2.721l4.209-4.158
			c0.152-0.41-0.056-0.771-0.579-0.612l-4.523,4.47l0.353,2.73l-1.514,1.497l-0.872-2.68l-0.452,0.252
			c-0.67,0.373-1.309,0.729-1.642,0.858c0.131-0.329,0.491-0.961,0.868-1.622l0.255-0.447l-2.713-0.86l1.516-1.498l2.717,0.298
			l4.864-4.907c0.348-0.344,0.361-0.7,0.311-0.94c-0.054-0.257-0.208-0.513-0.458-0.759c-0.26-0.257-0.604-0.48-0.943-0.612
			L1.08,7.063l1.769-1.748L16.877,6.06l3.805-3.759c1.463-1.445,2.766-1.719,3.248-1.241c0.482,0.477,0.205,1.763-1.258,3.208
			l-3.807,3.761l1.055,14.158l-1.76,1.739l-2.639-8.958l-0.013-0.037c-0.108-0.27-0.285-0.548-0.495-0.791
			c-0.494-0.292-0.829-0.063-0.812,0.379c0.204,0.19,0.412,0.462,0.514,0.703l2.756,9.354l0.015,0.047
			c0.007,0.017,0.013,0.032,0.021,0.049l0.113,0.157c0.025,0.024,0.053,0.046,0.096,0.075c0.029,0.02,0.061,0.035,0.092,0.049
			l0.092,0.028c0.02,0.005,0.039,0.009,0.061,0.011l0.07,0.005c0.025,0.001,0.051-0.001,0.078-0.004l0.135-0.035
			c0.015-0.005,0.028-0.011,0.04-0.017l0.032-0.018c0.02-0.01,0.037-0.021,0.054-0.032l2.237-2.199l0.053-0.053l0.074-0.135
			c0.008-0.02,0.016-0.041,0.025-0.077l0.019-0.119l-1.038-13.96l3.533-3.489C25.24,2.913,25.322,1.251,24.529,0.468z"/>
	</g>
</g>
</svg>
