<?xml version="1.0" encoding="utf-8"?>
<!-- Generator: Adobe Illustrator 16.0.0, SVG Export Plug-In . SVG Version: 6.00 Build 0)  -->
<!DOCTYPE svg PUBLIC "-//W3C//DTD SVG 1.1//EN" "http://www.w3.org/Graphics/SVG/1.1/DTD/svg11.dtd">
<svg version="1.1" id="Layer_1" xmlns="http://www.w3.org/2000/svg" xmlns:xlink="http://www.w3.org/1999/xlink" x="0px" y="0px"
	 width="18px" height="22px" viewBox="0 0 18 22" enable-background="new 0 0 18 22" xml:space="preserve">
<g>
	<polygon  points="5.751,4.492 4.748,4.492 5.482,19.504 6.486,19.504 	"/>
	<polygon  points="14.517,21.005 3.474,21.005 1.967,4.492 0.964,4.492 2.47,22.005 15.521,22.005 17.026,4.492 
		16.023,4.492 	"/>
	<path  d="M7.49,0.989h3.038v0.5h0.977v-0.5c0,0,0-1-1.003-1H7.49c-1.004,0-0.978,1-0.978,1v0.5H7.49V0.989z"/>
	<rect x="8.493" y="4.492"  width="1.004" height="15.012"/>
	<path  d="M17.509,2.49H0.488c0,0-0.501,0-0.501,0.5s0.501,0.5,0.501,0.5h17.021c0,0,0.502,0,0.502-0.5
		S17.509,2.49,17.509,2.49z"/>
	<polygon  points="12.285,4.492 11.504,19.504 12.509,19.504 13.289,4.492 	"/>
</g>
</svg>
