<?xml version="1.0" encoding="utf-8"?>
<!-- Generator: Adobe Illustrator 16.0.0, SVG Export Plug-In . SVG Version: 6.00 Build 0)  -->
<!DOCTYPE svg PUBLIC "-//W3C//DTD SVG 1.1//EN" "http://www.w3.org/Graphics/SVG/1.1/DTD/svg11.dtd">
<svg version="1.1" id="Layer_1" xmlns="http://www.w3.org/2000/svg" xmlns:xlink="http://www.w3.org/1999/xlink" x="0px" y="0px"
	 width="119.511px" height="142.456px" viewBox="0 0 119.511 142.456" enable-background="new 0 0 119.511 142.456"
	 xml:space="preserve">
<g transform="translate(0,-952.36218)">
	<path d="M59.846,960.91c5.622-0.056,10.987,3.016,12.642,10.151l2.492,25.823H44.531l3.029-25.466
		C49.059,963.976,54.291,960.955,59.846,960.91L59.846,960.91z M108.194,1063.63l0.013,0.219c0.146,2.293,2.284,4.182,4.579,4.037
		c2.377-0.152,4.188-2.203,4.039-4.58l0.004-0.236l-6.234-62.446c-0.271-2.157-2.105-3.761-4.273-3.744H83.526
		c0.019-0.235,0.019-0.479,0-0.709l-2.49-26.358c-0.039-0.239-0.098-0.479-0.18-0.712c-2.521-10.891-12.002-16.806-21.189-16.738
		v0.004c-9.187,0.066-18.548,6.289-20.653,17.627c-0.005,0.118-0.005,0.239,0,0.352l-3.029,25.641c-0.027,0.3-0.027,0.599,0,0.894
		H14.083c-0.3-0.029-0.595-0.029-0.894,0c-1.823,0.376-3.188,1.887-3.38,3.744l-9.793,89.562c-0.201,2.354,1.547,4.416,3.9,4.617
		c0.126,0.008,0.248,0.018,0.375,0.014h110.936c2.357,0.004,4.279-1.896,4.284-4.264c0-0.115-0.005-0.242-0.018-0.367l-1.062-10.711
		l-0.017-0.203c-0.145-2.295-2.276-4.182-4.578-4.037c-2.371,0.15-4.186,2.203-4.031,4.58l-0.008,0.23l0.008,0.092l0.607,6.137
		H8.915l9.084-80.84l0,0h84.4L108.194,1063.63"/>
</g>
</svg>
