<?xml version="1.0" encoding="utf-8"?>
<!-- Generator: Adobe Illustrator 18.0.0, SVG Export Plug-In . SVG Version: 6.00 Build 0)  -->
<!DOCTYPE svg PUBLIC "-//W3C//DTD SVG 1.1 Tiny//EN" "http://www.w3.org/Graphics/SVG/1.1/DTD/svg11-tiny.dtd">
<svg version="1.1" baseProfile="tiny" id="Capa_1" xmlns="http://www.w3.org/2000/svg" xmlns:xlink="http://www.w3.org/1999/xlink"
	 x="0px" y="0px" viewBox="0 0 850.4 1133.9" xml:space="preserve">
<g>
	<path fill="#FFFFFF" d="M750.6,1085.3H206.8c-24.5,0-53.1-12.3-65.4-36.8c-8.2-12.3-4.1-28.6,8.2-36.8s28.6-4.1,36.8,8.2
		c4.1,8.2,12.3,12.3,20.4,12.3h543.8c40.9,0,73.6-32.7,73.6-73.6V369.8c0-8.2-4.1-16.4-8.2-16.4c-12.3-8.2-16.4-24.5-8.2-36.8
		s24.5-16.4,36.8-8.2c20.4,12.3,36.8,36.8,36.8,65.4v588.7C881.4,1028.1,824.2,1085.3,750.6,1085.3z M615.6,950.4H157.7
		C88.2,950.4,31,893.2,31,823.7v-556c0-40.9,32.7-73.6,73.6-73.6h69.5c12.3,0,20.4-8.2,20.4-20.4v-57.2c0-16.4,12.3-24.5,28.6-24.5
		s28.6,12.3,28.6,24.5v57.2c0,40.9-32.7,73.6-73.6,73.6h-69.5c-12.3,0-20.4,8.2-20.4,20.4v556c0,40.9,32.7,73.6,73.6,73.6h453.8
		c40.9,0,73.6-32.7,73.6-73.6v-556c0-12.3-8.2-20.4-20.4-20.4c-16.4,0-28.6-12.3-28.6-24.5s12.3-24.5,28.6-24.5
		c40.9,0,73.6,32.7,73.6,73.6v556C742.4,893.2,685.1,950.4,615.6,950.4z M403,758.2c-16.4,0-28.6-12.3-28.6-28.6v-278l-77.7,77.7
		c-12.3,12.3-28.6,12.3-36.8,0c-8.2-12.3-12.3-28.6,0-36.8l122.7-122.7c8.2-8.2,20.4-8.2,28.6-4.1c8.2,4.1,16.4,12.3,16.4,24.5
		v343.4C431.7,746,419.4,758.2,403,758.2z M505.3,247.2H337.6c-16.4,0-28.6-12.3-28.6-24.5s12.3-24.5,28.6-24.5h167.6
		c12.3,0,20.4-8.2,20.4-20.4v-57.2c0-16.4,12.3-24.5,28.6-24.5c16.4,0,28.6,12.3,28.6,24.5v57.2
		C578.8,214.5,546.1,247.2,505.3,247.2z"/>
</g>
</svg>
