<?xml version="1.0" encoding="utf-8"?>
<!-- Generator: Adobe Illustrator 16.0.0, SVG Export Plug-In . SVG Version: 6.00 Build 0)  -->
<!DOCTYPE svg PUBLIC "-//W3C//DTD SVG 1.1//EN" "http://www.w3.org/Graphics/SVG/1.1/DTD/svg11.dtd">
<svg version="1.1" xmlns="http://www.w3.org/2000/svg" xmlns:xlink="http://www.w3.org/1999/xlink" x="0px" y="0px"
	 width="195.97px" height="195.469px" viewBox="0 0 195.97 195.469" enable-background="new 0 0 195.97 195.469"
	 xml:space="preserve">
<g id="Layer_1" display="none">
	<g display="inline">
		<path d="M189.942,186.777H26.194c-7.138,0-12.942-5.8-12.942-12.931V25.8c0-7.127,5.804-12.929,12.942-12.929h12.593v56.876
			c0,12.4,10.094,22.49,22.499,22.49h61.588c12.396,0,22.48-10.095,22.48-22.494V11.6l37.766,37.222v102.376
			c0,3.548,2.878,6.425,6.421,6.425c3.541,0,6.428-2.877,6.428-6.425V46.14c0-1.713-0.699-3.378-1.924-4.577L153.795,1.875
			c-1.209-1.188-2.812-1.844-4.512-1.844H26.194c-14.221,0-25.786,11.566-25.786,25.777v148.041
			c0,14.212,11.565,25.777,25.786,25.777h163.754c3.543,0,6.423-2.887,6.423-6.429C196.371,189.657,193.491,186.777,189.942,186.777
			z M51.634,12.872h80.882v56.873c0,5.317-4.322,9.642-9.641,9.642H61.287c-5.323,0-9.653-4.325-9.653-9.642V12.872z"/>
	</g>
</g>
<g id="Layer_2">
	<g>
		<g>
			<path d="M97.591,195.469c-24.17,0-47.17-8.815-65.271-25.109C12.928,152.887,1.5,128.915,0.138,102.85
				c-1.37-26.069,7.494-51.108,24.967-70.508c17.465-19.4,41.444-30.84,67.518-32.206c53.764-2.823,99.891,38.684,102.693,92.488
				c1.187,22.562-5.543,44.972-18.945,63.113c-2.271,3.082-6.61,3.751-9.692,1.466c-3.082-2.277-3.735-6.618-1.457-9.7
				c11.499-15.562,17.266-34.802,16.254-54.154c-2.413-46.17-41.842-81.769-88.128-79.372c-22.371,1.175-42.949,10.99-57.945,27.639
				c-14.988,16.648-22.594,38.139-21.423,60.509c1.17,22.362,10.974,42.941,27.626,57.929c16.645,15.004,38.282,22.57,60.493,21.439
				c16.509-0.868,32.206-6.483,45.395-16.263c3.09-2.277,7.422-1.625,9.691,1.449c2.286,3.074,1.633,7.406-1.441,9.692
				c-15.378,11.396-33.679,17.958-52.92,18.962C101.079,195.422,99.328,195.469,97.591,195.469z"/>
		</g>
	</g>
	<g>
		<g>
			<path d="M61.826,133.423c-2.708-2.708-2.7-7.088,0.008-9.796l61.577-61.58c2.708-2.704,7.096-2.711,9.804,0
				c2.707,2.708,2.699,7.096-0.008,9.8l-61.577,61.576C68.921,136.131,64.533,136.131,61.826,133.423z"/>
		</g>
		<g>
			<path d="M132.218,133.423c2.708-2.708,2.7-7.088-0.008-9.796l-61.576-61.58c-2.708-2.704-7.096-2.711-9.804,0
				c-2.708,2.708-2.7,7.096,0.008,9.8l61.577,61.576C125.122,136.131,129.511,136.131,132.218,133.423z"/>
		</g>
	</g>
</g>
</svg>
