<?xml version="1.0" encoding="utf-8"?>
<!-- Generator: Adobe Illustrator 16.0.0, SVG Export Plug-In . SVG Version: 6.00 Build 0)  -->
<!DOCTYPE svg PUBLIC "-//W3C//DTD SVG 1.1//EN" "http://www.w3.org/Graphics/SVG/1.1/DTD/svg11.dtd">
<svg version="1.1" id="Layer_1" xmlns="http://www.w3.org/2000/svg" xmlns:xlink="http://www.w3.org/1999/xlink" x="0px" y="0px"
	 width="85.04px" height="85.04px" viewBox="0 0 85.04 85.04" enable-background="new 0 0 85.04 85.04" xml:space="preserve">
<g>
	<g>
		<path d="M67.93,65.235H28.717c-1.153,0-2.089-0.936-2.089-2.089s0.936-2.089,2.089-2.089H67.93c2.517,0,4.563-2.047,4.563-4.563
			V36.372H14.548v20.856c0,1.735,2.036,3.83,4.563,3.83h0.979c1.153,0,2.089,0.936,2.089,2.089s-0.936,2.089-2.089,2.089h-0.979
			c-4.656,0-8.741-3.742-8.741-8.007v-27.94c0-5.405,3.758-9.482,8.741-9.482H67.93c4.82,0,8.741,3.924,8.741,8.748v27.941
			C76.671,61.313,72.75,65.235,67.93,65.235z M14.548,32.194h57.945v-3.641c0-2.52-2.047-4.57-4.563-4.57H19.112
			c-2.645,0-4.563,2.23-4.563,5.304V32.194z"/>
	</g>
</g>
</svg>
