<?xml version="1.0" encoding="utf-8"?>
<!-- Generator: Adobe Illustrator 16.0.0, SVG Export Plug-In . SVG Version: 6.00 Build 0)  -->
<!DOCTYPE svg PUBLIC "-//W3C//DTD SVG 1.1//EN" "http://www.w3.org/Graphics/SVG/1.1/DTD/svg11.dtd">
<svg version="1.1" id="Layer_1" xmlns="http://www.w3.org/2000/svg" xmlns:xlink="http://www.w3.org/1999/xlink" x="0px" y="0px"
	 width="200px" height="190.236px" viewBox="0 0 200 190.236" enable-background="new 0 0 200 190.236" xml:space="preserve">
<g>
	<path d="M175.786,40.769c-2.574,0-4.678,2.098-4.678,4.68c0,2.583,2.103,4.68,4.678,4.68c8.224,0,14.911,6.716,14.911,14.965v73.45
		c0,8.238-6.688,14.942-14.911,14.942c-2.574,0-4.678,2.104-4.678,4.678v16.113l-19.454-19.418c-0.868-0.869-2.07-1.373-3.307-1.373
		H67.215c-3.945,0-7.773-1.586-10.498-4.349c-0.889-0.896-2.074-1.393-3.337-1.393c-1.239,0-2.403,0.48-3.283,1.349
		c-1.839,1.81-1.857,4.784-0.045,6.619c4.479,4.538,10.736,7.135,17.163,7.135h79.198l26.067,26.026
		c1.327,1.326,3.35,1.729,5.103,1.013c1.752-0.725,2.885-2.43,2.885-4.32v-23.122l1.455-0.381
		c10.679-2.795,18.136-12.471,18.136-23.52v-73.45C200.059,51.681,189.175,40.769,175.786,40.769z"/>
	<path d="M48.403,114.092l-19.396,19.409v-16.103c0-2.573-2.098-4.678-4.679-4.678c-8.254,0-14.968-6.705-14.968-14.945V24.307
		c0-8.241,6.714-14.948,14.968-14.948h108.522c8.248,0,14.952,6.706,14.952,14.948v73.468c0,8.24-6.701,14.946-14.952,14.946H74.57
		c-2.582,0-4.681,2.104-4.681,4.678c0,2.589,2.098,4.687,4.681,4.687h58.281c13.404,0,24.313-10.898,24.313-24.308V24.307
		C157.164,10.902,146.255,0,132.851,0H24.329C10.916,0,0,10.902,0,24.307v73.468c0,11.06,7.478,20.738,18.187,23.523l1.458,0.383
		v23.122c0,1.897,1.136,3.596,2.891,4.317c1.722,0.732,3.774,0.312,5.101-1.013l27.379-27.394c0.883-0.886,1.373-2.066,1.373-3.315
		s-0.489-2.422-1.373-3.306C53.25,112.326,50.17,112.32,48.403,114.092z"/>
</g>
</svg>
