<?xml version="1.0" encoding="utf-8"?>
<!-- Generator: Adobe Illustrator 16.0.0, SVG Export Plug-In . SVG Version: 6.00 Build 0)  -->
<svg version="1.2" baseProfile="tiny" id="Capa_1" xmlns="http://www.w3.org/2000/svg" xmlns:xlink="http://www.w3.org/1999/xlink"
	 x="0px" y="0px" width="26.777px" height="19.65px" viewBox="0 0 26.777 19.65" xml:space="preserve">
<g>
	<path fill="none" stroke="#000000" stroke-width="1.3" stroke-linecap="round" stroke-linejoin="round" d="M6.041,9.779
		c0.055-2.514,2.107-4.537,4.637-4.537c2.561,0,4.639,2.078,4.639,4.639c0,0.451-0.064,0.885-0.184,1.295 M15.297,9.781
		c0.236-0.039,0.48-0.057,0.725-0.057c2.563,0,4.639,2.076,4.639,4.639c0,2.561-2.076,4.637-4.639,4.637h-3.01 M7.838,10.48
		C7.107,9.998,6.23,9.715,5.289,9.715c-2.564,0-4.639,2.078-4.639,4.639c0,2.563,2.074,4.641,4.639,4.641h3.783 M11.498,5.188
		c0.055-2.514,2.111-4.537,4.637-4.537c2.563,0,4.639,2.074,4.639,4.639c0,0.449-0.063,0.883-0.18,1.295 M20.758,5.188
		c0.236-0.035,0.477-0.057,0.725-0.057c2.561,0,4.645,2.078,4.645,4.639c0,1.896-1.139,3.523-2.768,4.244"/>
</g>
</svg>
