<?xml version="1.0" encoding="utf-8"?>
<!-- Generator: Adobe Illustrator 16.0.0, SVG Export Plug-In . SVG Version: 6.00 Build 0)  -->
<!DOCTYPE svg PUBLIC "-//W3C//DTD SVG 1.1//EN" "http://www.w3.org/Graphics/SVG/1.1/DTD/svg11.dtd">
<svg version="1.1" id="Layer_1" xmlns="http://www.w3.org/2000/svg" xmlns:xlink="http://www.w3.org/1999/xlink" x="0px" y="0px"
	 width="164.766px" height="200px" viewBox="0 0 164.766 200" enable-background="new 0 0 164.766 200" xml:space="preserve">
<g id="Layer_6">
	<g>
		<path d="M139.887,0L24.879,0.075C11.16,0.075,0,11.243,0,24.97v117.433c0,2.67,2.174,4.852,4.843,4.852
			c2.67,0,4.836-2.182,4.836-4.852V24.978c0-8.396,6.828-15.22,15.208-15.22l115.008-0.071c8.38,0,15.192,6.828,15.192,15.216
			v120.65H115.26c-2.67,0-4.844,2.174-4.844,4.844v39.827H24.879c-8.379,0-15.2-6.82-15.2-15.2v-7.309
			c0-2.662-2.166-4.844-4.836-4.844c-2.669,0-4.843,2.182-4.843,4.844v7.309c0,13.712,11.167,24.887,24.879,24.887h89.364v2.017
			l2.017,0.047l0.118-2.197c0.473-0.118,0.93-0.291,1.354-0.543l0.213-0.142l0.417-0.701l0.528-0.182l44.521-44.449
			c0.866-1.048,1.291-2.001,1.354-3.166V24.903C164.766,11.171,153.605,0,139.887,0z M148.242,155.24l-28.147,28.14v-28.14H148.242z
			"/>
		<path d="M80.418,49.687v10.049l-1.804,0.193c-6.088,0.661-10.624,2.449-13.499,5.32c-1.41,1.421-2.513,3.083-3.284,4.954
			c-0.764,1.871-1.158,4.162-1.158,6.789c0,2.693,0.378,5.056,1.126,7.025c0.748,1.945,1.741,3.517,3.024,4.808
			c1.252,1.248,2.898,2.354,4.891,3.272c2.126,0.993,4.663,1.938,7.537,2.808l8.663,2.5c3.308,1.008,5.655,2.162,7.198,3.532
			c1.725,1.556,2.599,3.749,2.599,6.533c0,2.98-0.984,5.344-2.922,7.053c-2.323,2.079-5.985,3.103-11.191,3.103
			c-1.835,0-3.757-0.095-5.694-0.252c-2.071-0.173-3.591-0.457-4.67-0.835l-1.126-0.417l-0.181-1.174
			c-0.189-1.205-0.449-2.591-0.764-4.197c-0.094-0.449-0.181-0.839-0.26-1.178l-0.189-0.764h-6.781v11.715
			c0,0.378,0.032,0.709,0.087,0.977l0.236,0.74l1.15,0.205c1.74,0.433,3.93,0.818,6.686,1.165c2.757,0.347,5.592,0.583,8.403,0.709
			l1.93,0.095v11.042h5.647v-11.168l1.74-0.236c5.773-0.771,10.097-2.623,12.837-5.481c1.496-1.512,2.646-3.292,3.402-5.324
			c0.787-2.083,1.182-4.453,1.182-7.036c0-4.636-1.143-8.195-3.489-10.881c-1.3-1.465-2.985-2.74-5.009-3.78
			c-2.126-1.099-4.804-2.122-7.962-3.048l-7.537-2.217c-3.788-1.193-6.442-2.43-8.112-3.761c-1.339-1.071-2.938-3.103-2.938-6.702
			c0-3.481,1.496-5.489,2.756-6.572c1.315-1.177,2.985-1.973,4.954-2.37c1.851-0.362,3.993-0.547,6.372-0.547
			c3.269,0,6.206,0.346,8.081,0.638l1.551,0.232l0.149,1.555c0.142,1.245,0.354,2.631,0.686,4.123
			c0.126,0.516,0.228,0.969,0.331,1.347l0.197,0.748h6.379V64.269l0.173-0.815c0.087-0.897-0.819-1.208-1.331-1.39
			c-1.339-0.488-3.103-0.926-5.363-1.327c-2.308-0.406-4.733-0.705-7.198-0.89l-1.867-0.146V49.687H80.418L80.418,49.687z"/>
	</g>
</g>
</svg>
