<?xml version="1.0" encoding="utf-8"?>
<!-- Generator: Adobe Illustrator 16.0.0, SVG Export Plug-In . SVG Version: 6.00 Build 0)  -->
<!DOCTYPE svg PUBLIC "-//W3C//DTD SVG 1.1//EN" "http://www.w3.org/Graphics/SVG/1.1/DTD/svg11.dtd">
<svg version="1.1" id="Layer_1" xmlns="http://www.w3.org/2000/svg" xmlns:xlink="http://www.w3.org/1999/xlink" x="0px" y="0px"
	 width="200px" height="180.319px" viewBox="0 0 200 180.319" enable-background="new 0 0 200 180.319" xml:space="preserve">
<g>
	<path d="M175.318,180.319H24.551C11.011,180.319,0,169.302,0,155.768v-43.665c0-3.197,2.589-5.786,5.782-5.786
		c3.193,0,5.781,2.589,5.781,5.786v43.665c0,7.158,5.825,12.979,12.988,12.979h150.767c7.158,0,12.988-5.82,12.988-12.979v-43.665
		c0-3.197,2.589-5.786,5.777-5.786c3.197,0,5.786,2.589,5.786,5.786v43.665C199.87,169.302,188.853,180.319,175.318,180.319z
		 M99.761,147.132c-6.364,0-12.675-2.415-17.488-7.228l-33.947-33.953c-2.976-2.988-4.496-6.659-4.496-10.568
		c0-3.901,1.516-7.571,4.273-10.343c2.82-2.775,6.491-4.278,10.396-4.278c0.034,0,0.074,0,0.113,0l12.406,0.017l0.009-74.997
		C71.027,2.589,73.616,0,76.808,0l0,0c3.193,0,5.782,2.589,5.782,5.782l-0.009,80.787c0,1.539-0.608,3.007-1.694,4.092
		c-1.085,1.081-2.553,1.69-4.088,1.69c-0.004,0-0.004,0-0.008,0l-18.223-0.025c-0.583-0.01-1.489,0.113-2.311,0.916
		c-0.543,0.547-0.864,1.321-0.864,2.141c0,0.812,0.317,1.572,0.891,2.146l33.882,33.914c5.469,5.463,13.921,5.454,19.131,0.277
		l34.06-34.078c0.999-1.007,1.104-1.911,1.112-2.385c0-0.473-0.113-1.391-0.896-2.167c-0.799-0.795-1.702-0.812-2.189-0.895
		l-18.452-0.009c-3.188,0-5.777-2.589-5.777-5.782V5.782c0-3.193,2.59-5.782,5.777-5.782c3.197,0,5.787,2.589,5.787,5.782v74.841
		l12.613,0.008c3.701-0.27,7.629,1.486,10.426,4.287c2.762,2.763,4.273,6.443,4.273,10.356c0,3.906-1.527,7.568-4.282,10.313
		l-34.014,34.038C112.709,144.646,106.212,147.132,99.761,147.132z"/>
</g>
</svg>
