<?xml version="1.0" encoding="UTF-8"?>
<!-- Generator: Adobe Illustrator 16.0.0, SVG Export Plug-In . SVG Version: 6.00 Build 0)  -->
<!DOCTYPE svg PUBLIC "-//W3C//DTD SVG 1.1//EN" "http://www.w3.org/Graphics/SVG/1.1/DTD/svg11.dtd">
<svg version="1.1" id="Layer_1" xmlns="http://www.w3.org/2000/svg" xmlns:xlink="http://www.w3.org/1999/xlink" x="0px" y="0px" width="150px" height="150px" viewBox="0 0 150 150" enable-background="new 0 0 150 150" xml:space="preserve">
<g display="none">
	<path display="inline" fill="#ffffff" d="M139.672,148.532H9.893c-2.756,0-4.996-2.24-4.996-4.999   c0-21.463,9.646-41.419,26.482-54.746c2.159-1.705,5.305-1.35,7.017,0.815c1.717,2.164,1.349,5.309-0.815,7.022   C24.477,107,16.45,122.07,15.095,138.535H134.47c-1.355-16.488-9.383-31.555-22.491-41.907c-2.165-1.711-2.532-4.853-0.821-7.02   c1.705-2.171,4.846-2.532,7.017-0.824c16.835,13.295,26.493,33.252,26.493,54.749C144.667,146.292,142.428,148.532,139.672,148.532   z M75.305,83.648c-22.595,0-40.975-18.403-40.975-41.024c0-22.594,18.38-40.977,40.975-40.977   c22.611,0,41.003,18.383,41.003,40.977C116.308,65.245,97.916,83.648,75.305,83.648z M75.305,11.644   c-17.083,0-30.984,13.898-30.984,30.98c0,17.108,13.901,31.027,30.984,31.027c17.1,0,31.006-13.918,31.006-31.027   C106.311,25.542,92.404,11.644,75.305,11.644z"/>
</g>
<g display="none">
	<g display="inline">
		<path fill="#ffffff" d="M107.464,148.491l-61.846-0.049c-11.604,0-21.046-9.445-21.046-21.058V73.988    c0-11.613,9.442-21.059,21.049-21.059c0.08,0,0.152,0,0.231,0h61.611c11.602,0,21.035,9.445,21.035,21.059v53.397    c0,0.011,0,0.017,0,0.029s0,0.018,0,0.03C128.499,139.051,119.065,148.491,107.464,148.491z M45.737,63.525    c-5.733,0.104-10.563,4.659-10.563,10.462v53.397c0,5.767,4.687,10.461,10.447,10.461l61.849,0.049    c5.749,0,10.433-4.689,10.433-10.45c0-0.013,0-0.018,0-0.03s0-0.019,0-0.029V73.988c0-5.767-4.684-10.462-10.438-10.462H45.853    C45.813,63.525,45.776,63.525,45.737,63.525z"/>
	</g>
	<g display="inline">
		<path fill="#ffffff" d="M68.581,97.422l-0.554-0.572c-2.303-2.491-3.412-5.555-3.27-8.758c0.146-3.209,1.527-6.163,3.896-8.312    c2.381-2.155,5.39-3.301,8.666-3.105c3.185,0.158,6.121,1.553,8.259,3.928c4.109,4.5,4.109,11.577-0.013,16.102l-4.27-3.105    l1.784,1.911l-1.791-1.911l0.556-0.573c2.161-2.393,2.168-6.369-0.152-8.903c-1.212-1.346-2.851-2.131-4.635-2.216    c-1.919-0.122-3.545,0.529-4.878,1.753c-1.334,1.206-2.106,2.863-2.186,4.665c-0.086,1.803,0.535,3.52,1.754,4.842L68.581,97.422z    "/>
	</g>
	<g display="inline">
		<path fill="#ffffff" d="M83.08,99.005c-0.931,0-1.868-0.371-2.557-1.108c-1.311-1.406-1.237-3.605,0.152-4.927    c0.072-0.072,0.529-0.554,0.566-0.591c1.82-2.003,1.82-5.462-0.195-7.667c-1.06-1.175-2.485-1.856-4.032-1.937    c-1.535,0-3.081,0.469-4.25,1.528c-1.151,1.054-1.827,2.491-1.9,4.062c-0.066,1.565,0.475,3.058,1.522,4.203    c1.272,1.382,1.497,3.812,0.165,5.134c-1.329,1.327-3.191,1.632-4.574,0.365c-0.067-0.067-0.408-0.42-0.476-0.493    c-2.582-2.795-3.775-6.084-3.616-9.525c0.152-3.44,1.637-6.606,4.178-8.915c2.551-2.32,5.779-3.538,9.299-3.337    c3.423,0.17,6.571,1.668,8.866,4.22c4.404,4.823,4.409,12.424-0.018,17.276l-0.742,0.774    C84.791,98.694,83.934,99.005,83.08,99.005z"/>
	</g>
	<g display="inline">
		<polygon fill="#ffffff" points="85.651,124.168 67.795,124.168 67.795,95.509 73.032,95.509 73.032,118.931 80.414,118.931     80.414,95.509 85.651,95.509   "/>
	</g>
	<g display="inline">
		<path fill="#ffffff" d="M83.032,124.979H70.414c-1.894,0-3.429-1.535-3.429-3.429V95.509c0-1.894,1.535-3.428,3.429-3.428    c1.894,0,3.429,1.534,3.429,3.428v22.612h5.761V95.509c0-1.894,1.535-3.428,3.429-3.428s3.428,1.534,3.428,3.428v26.041    C86.46,123.443,84.926,124.979,83.032,124.979z"/>
	</g>
	<g display="inline">
		<path fill="#ffffff" d="M44.976,63.514c-2.926,0-5.3-2.369-5.3-5.298V23.418c0-12.466,10.146-22.609,22.615-22.609h28.134    c12.466,0,22.605,10.143,22.605,22.609v19.11c0,2.926-2.369,5.301-5.299,5.301c-2.928,0-5.297-2.375-5.297-5.301v-19.11    c0-6.62-5.39-12.006-12.01-12.006H62.291c-6.626,0-12.013,5.386-12.013,12.006v34.797C50.278,61.145,47.902,63.514,44.976,63.514z    "/>
	</g>
</g>
<g display="none">
	<path display="inline" fill="#ffffff" d="M1.044,74.956c0,1.301,0.037,2.617,0.104,3.934c1.03,19.725,9.679,37.868,24.363,51.083   c14.689,13.218,33.636,19.927,53.367,18.886c19.701-1.013,37.832-9.644,51.057-24.314c13.152-14.592,19.94-33.661,18.923-53.386   c-0.771-14.714-5.83-28.699-14.64-40.435c-1.238-1.66-3.601-1.992-5.269-0.748c-1.604,1.207-1.967,3.644-0.747,5.268   c7.901,10.53,12.446,23.088,13.139,36.307c0.912,17.828-5.225,34.892-16.997,47.953c-11.872,13.171-28.153,20.926-45.858,21.831   c-17.727,0.944-34.744-5.083-47.938-16.955C17.363,112.506,9.59,96.212,8.664,78.496C6.79,41.461,35.116,10.563,71.515,8.651   c16.036-0.808,31.779,4.166,44.337,13.992c1.631,1.274,4.007,0.993,5.281-0.649c1.248-1.593,0.944-4.042-0.643-5.28   C106.51,5.773,88.984,0.235,71.128,1.13C31.832,3.2,1.044,35.624,1.044,74.956z"/>
	<g display="inline">
		<path fill="#ffffff" d="M97.161,50.817v7.813h-5.366v38.354h5.366v7.812H75.617v-7.812h5.366V73.862L69.461,92.802h-7.497    c-1.421,0-1.973-0.395-2.604-1.42L48.626,73.467v23.519h5.445v7.812H33.395v-7.812h5.367V58.631h-5.367v-7.813h9.707    c3.157,0,4.104,0.711,5.367,2.92l17.046,29.358l16.809-29.358c1.342-2.367,2.289-2.92,5.604-2.92H97.161z"/>
		<path fill="#ffffff" d="M119.176,104.798h-10.969V73.467h-5.209v-6.865c3.078-0.395,7.497-0.789,9.707-0.789    c4.972,0,6.471,1.735,6.471,5.919V104.798z M119.176,54.29c0,3.867-1.973,5.366-5.761,5.366h-0.552    c-3.867,0-5.762-1.499-5.762-5.366v-1.026c0-3.866,1.895-5.445,5.762-5.445h0.552c3.788,0,5.761,1.579,5.761,5.445V54.29z"/>
	</g>
</g>
<g display="none">
	<g display="inline">
		<path fill="#ffffff" d="M123.674,148.756H35.076c-8.039,0-14.579-6.554-14.579-14.607V20.608c0-10.706,8.715-19.416,19.43-19.416    h76.909c6.501,0,11.79,5.294,11.79,11.804c0,2.735-2.215,4.956-4.952,4.956c-2.738,0-4.953-2.221-4.953-4.956    c0-1.061-0.831-1.893-1.885-1.893H39.927c-5.249,0-9.525,4.264-9.525,9.504v99.741c1.469-0.495,3.041-0.763,4.674-0.763h83.633    l0.012-87.809c0-2.739,2.215-4.956,4.953-4.956l0,0c2.737,0,4.952,2.22,4.952,4.956l-0.012,92.425    c0.012,0.109,0.012,0.223,0.012,0.336c0,2.738-2.215,4.953-4.952,4.953c-2.62,0-4.674,2.049-4.674,4.657    c0,2.591,2.1,4.702,4.674,4.702c2.737,0,4.952,2.215,4.952,4.953C128.626,146.541,126.411,148.756,123.674,148.756z     M35.076,129.491c-2.618,0-4.674,2.049-4.674,4.657c0,2.591,2.101,4.702,4.674,4.702h74.792c-0.507-1.479-0.773-3.058-0.773-4.702    c0-1.629,0.267-3.194,0.762-4.657H35.076z"/>
	</g>
	<g display="inline">
		<path fill="#ffffff" d="M89.717,100.806c-4.39,0-8.523-1.709-11.631-4.811L41.874,59.777c-6.405-6.375-6.416-16.825-0.012-23.283    l9.74-9.73c0.928-0.93,2.187-1.451,3.501-1.451c0,0,0,0,0.006,0c1.309,0,2.573,0.523,3.5,1.455l14.87,14.892    c1.936,1.936,1.931,5.072-0.005,7.008l-5.41,5.399l15.713,15.712l5.413-5.405c1.936-1.93,5.072-1.933,6.997-0.002l14.886,14.837    c1.942,1.934,1.947,5.064,0.019,7.006l-9.725,9.769C98.237,99.097,94.11,100.806,89.717,100.806z M55.098,37.276l-6.217,6.211    c-2.544,2.567-2.556,6.738-0.006,9.274l36.219,36.225c2.465,2.46,6.78,2.472,9.267-0.011l6.218-6.245l-7.885-7.85l-5.42,5.414    c-1.946,1.925-5.083,1.925-7.009-0.006l-22.713-22.72c-0.928-0.931-1.446-2.191-1.446-3.507c0-1.315,0.524-2.573,1.452-3.503    l5.408-5.402L55.098,37.276z"/>
	</g>
</g>
<g display="none">
	<path display="inline" fill="#ffffff" d="M100.559,144.719c-6.881,0-12.479-5.595-12.479-12.478l-0.011-48.817   c0-1.39,0.549-2.719,1.527-3.703c0.988-0.98,2.315-1.534,3.706-1.534h14.692c0.501,0.013,1-0.123,1.432-0.556   c0.487-0.485,0.561-1.044,0.561-1.336c0-0.293-0.073-0.843-0.517-1.289L81.885,47.376c-3.958-3.929-10.42-3.926-14.39,0.012   L39.951,74.98c-0.487,0.478-0.554,1.026-0.554,1.314s0.067,0.845,0.524,1.293c0.421,0.421,1.041,0.599,1.473,0.599h14.681   c2.893,0,5.234,2.344,5.234,5.237v48.817c0,6.883-5.595,12.478-12.479,12.478c-1.618,0-3.169-0.294-4.625-0.884   c-7.309-3.388-13.789-7.745-19.506-13.05c-29.541-27.604-31.14-74.083-3.58-103.626C34.475,12.84,52.603,4.582,72.168,3.911   c19.476-0.677,38.221,6.318,52.529,19.689c27.254,25.425,31.11,67.17,8.964,97.102c-1.721,2.315-4.993,2.814-7.327,1.094   c-2.324-1.722-2.814-4.999-1.096-7.327c18.981-25.648,15.673-61.421-7.689-83.213c-12.261-11.458-28.204-17.456-45.02-16.876   C55.762,14.954,40.222,22.03,28.772,34.3C5.151,59.626,6.53,99.47,31.84,123.119c4.899,4.55,10.464,8.291,16.54,11.112   c-0.06-0.035,0.192,0.019,0.45,0.019c1.107,0,2.01-0.902,2.01-2.009V88.657h-9.446c-3.316,0-6.54-1.323-8.849-3.64   c-2.33-2.292-3.624-5.402-3.624-8.733c0.007-3.326,1.3-6.427,3.654-8.741l27.518-27.567c8.049-8.007,21.135-8.002,29.187-0.018   l27.57,27.621c2.312,2.283,3.605,5.385,3.605,8.705c0.005,3.328-1.282,6.436-3.628,8.752c-2.371,2.407-5.654,3.784-9,3.621h-9.284   l0.006,43.584c-0.006,1.365,1.631,2.317,2.701,1.882c3.473-1.582,7.16-3.766,10.763-6.401c2.342-1.703,5.614-1.19,7.323,1.138   c1.703,2.341,1.197,5.613-1.137,7.323c-4.183,3.049-8.491,5.595-12.811,7.562C103.729,144.425,102.177,144.719,100.559,144.719z"/>
</g>
<g display="none">
	<g display="inline">
		<path fill="#ffffff" d="M122.071,148.368H40.396c-4.863,0-8.99-1.953-11.323-5.361c-2.248-3.287-2.594-7.598-0.948-11.832    c1.196-2.97,4.053-9.93,5.14-11.63c3.405-5.292,8.056-8.203,13.102-8.203h86.656c3.706,0,6.02-3.183,6.04-6.134    c0.01-1.434-0.479-2.742-1.463-3.904c-1.527-1.818-1.295-4.531,0.519-6.064c1.823-1.517,4.533-1.295,6.063,0.52    c2.309,2.743,3.509,6.029,3.479,9.514c-0.044,8.081-6.612,14.669-14.639,14.669h-3.943l4.918,11.041    c1.802,4.368,1.536,8.713-0.678,12.024C131.035,146.415,126.935,148.368,122.071,148.368z M46.367,119.941    c-2.585,0-4.617,2.312-5.861,4.255c-0.534,0.896-2.699,5.971-4.384,10.146c-0.332,0.855-0.796,2.565,0.055,3.801    c0.701,1.033,2.243,1.627,4.22,1.627h81.675c1.946,0,3.438-0.568,4.097-1.551c0.603-0.896,0.573-2.265-0.079-3.847l-6.431-14.431    H46.367z M117.871,104.897H59.365c-2.377,0-4.3-1.922-4.3-4.3s1.922-4.3,4.3-4.3h58.506c3.894,0,7.066-3.184,7.066-7.088V72.625    c0-2.375,1.923-4.302,4.3-4.302c2.378,0,4.3,1.927,4.3,4.302V89.21C133.537,97.859,126.51,104.897,117.871,104.897z     M44.577,104.897c-8.624,0-15.637-7.038-15.637-15.688V41.805c0-8.624,7.013-15.64,15.637-15.64h49.758    c2.377,0,4.301,1.928,4.301,4.302c0,2.375-1.924,4.302-4.301,4.302H44.577c-3.879,0-7.037,3.156-7.037,7.036V89.21    c0,3.904,3.158,7.088,7.037,7.088c2.377,0,4.3,1.922,4.3,4.3S46.954,104.897,44.577,104.897z"/>
	</g>
	<g display="inline">
		<path fill="#ffffff" d="M139.022,62.814h-25.067c-5.055,0-9.168-4.106-9.168-9.158V32.019c0-4.002,2.556-7.418,6.12-8.682V11.499    c0-5.414,4.403-9.82,9.819-9.82h11.396c5.398,0,9.792,4.406,9.792,9.82v3.549c0,1.538-1.245,2.783-2.782,2.783    c-1.538,0-2.783-1.245-2.783-2.783v-3.549c0-2.344-1.898-4.254-4.227-4.254h-11.396c-2.349,0-4.255,1.91-4.255,4.254v11.313    h22.551c5.058,0,9.168,4.129,9.168,9.207v21.637C148.19,58.708,144.08,62.814,139.022,62.814z M113.955,28.377    c-1.986,0-3.602,1.633-3.602,3.642v21.637c0,1.982,1.615,3.594,3.602,3.594h25.067c1.987,0,3.604-1.612,3.604-3.594V32.019    c0-2.009-1.616-3.642-3.604-3.642H113.955z"/>
	</g>
</g>
<g>
	<g>
		<polygon fill="#ffffff" points="140.978,143.818 136.067,143.818 136.067,45.208 76.327,45.208 76.327,40.297 140.978,40.297       "/>
	</g>
	<g>
		<rect x="1.447" y="142.59" fill="#ffffff" width="147.303" height="4.909"/>
	</g>
	<g>
		<path fill="#ffffff" d="M12.494,13.291v130.527h21.479v-13.91h15.96v13.91h20.252V13.291H12.494z M62.21,124.18H20.473v-10.637    H62.21V124.18z M62.21,101.677H20.473V91.036H62.21V101.677z M62.21,80.199H20.473v-10.64H62.21V80.199z M62.21,59.529H20.473    V48.89H62.21V59.529z M62.21,37.023H20.473V26.384H62.21V37.023z"/>
	</g>
	<g>
		<rect x="76.733" y="58.403" fill="#ffffff" width="7.777" height="8.182"/>
	</g>
	<g>
		<rect x="96.376" y="58.403" fill="#ffffff" width="7.773" height="8.182"/>
	</g>
	<g>
		<rect x="115.199" y="58.403" fill="#ffffff" width="7.773" height="8.182"/>
	</g>
	<g>
		<rect x="77.146" y="78.215" fill="#ffffff" width="7.772" height="8.184"/>
	</g>
	<g>
		<rect x="96.782" y="78.215" fill="#ffffff" width="7.776" height="8.184"/>
	</g>
	<g>
		<rect x="115.606" y="78.215" fill="#ffffff" width="7.776" height="8.184"/>
	</g>
	<g>
		<rect x="76.733" y="96.97" fill="#ffffff" width="7.777" height="8.184"/>
	</g>
	<g>
		<rect x="96.376" y="96.97" fill="#ffffff" width="7.773" height="8.184"/>
	</g>
	<g>
		<rect x="115.199" y="96.97" fill="#ffffff" width="7.773" height="8.184"/>
	</g>
	<g>
		<rect x="77.146" y="118.964" fill="#ffffff" width="7.772" height="24.821"/>
	</g>
	<g>
		<rect x="96.782" y="118.964" fill="#ffffff" width="7.776" height="24.821"/>
	</g>
	<g>
		<rect x="115.606" y="118.964" fill="#ffffff" width="7.776" height="24.821"/>
	</g>
	<g>
		<polygon fill="#ffffff" points="112.335,34.344 107.422,34.344 107.422,6.11 48.092,6.11 48.092,1.199 112.335,1.199   "/>
	</g>
</g>
</svg>