<?xml version="1.0" encoding="utf-8"?>
<!-- Generator: Adobe Illustrator 16.0.0, SVG Export Plug-In . SVG Version: 6.00 Build 0)  -->
<!DOCTYPE svg PUBLIC "-//W3C//DTD SVG 1.1//EN" "http://www.w3.org/Graphics/SVG/1.1/DTD/svg11.dtd">
<svg version="1.1" id="Layer_1" xmlns="http://www.w3.org/2000/svg" xmlns:xlink="http://www.w3.org/1999/xlink" x="0px" y="0px"
	 width="113.39px" height="113.39px" viewBox="0 0 113.39 113.39" enable-background="new 0 0 113.39 113.39" xml:space="preserve">
<g>
	<g>
		<path d="M108.398,61.125L94.71,40.592c-1.612-2.418-4.312-3.866-7.22-3.866H72.212v-8.436c0-4.785-3.89-8.674-8.675-8.674H12.214
			c-4.785,0-8.674,3.889-8.674,8.674v15.668v1.665v0.304h0.031c0.146,0.868,0.895,1.53,1.803,1.53c0.909,0,1.658-0.663,1.804-1.53
			h0.02V45.73c0.002-0.036,0.011-0.07,0.011-0.106v-1.665c0-0.037-0.009-0.07-0.011-0.106V28.291c0-2.766,2.25-5.016,5.016-5.016
			h51.323c2.766,0,5.017,2.25,5.017,5.016v37.637c0,2.767-2.251,5.017-5.017,5.017H12.214c-2.766,0-5.016-2.25-5.016-5.017V54.23
			c0.002-0.036,0.011-0.07,0.011-0.106v-1.665c0-0.037-0.009-0.07-0.011-0.106v-0.251H7.172c-0.167-0.841-0.908-1.476-1.798-1.476
			c-0.89,0-1.631,0.635-1.798,1.476H3.54v0.358v1.665v11.804c0,4.786,3.889,8.675,8.674,8.675h1.589v11.858
			c0,4.781,3.893,8.67,8.674,8.67h5.145l0.311,1.193c1.388,5.343,6.179,9.074,11.661,9.074c5.475,0,10.27-3.731,11.657-9.074
			l0.307-1.193h20.542l0.305,1.193c1.388,5.343,6.185,9.074,11.664,9.074c5.479,0,10.269-3.731,11.657-9.074l0.307-1.193h5.146
			c4.783,0,8.673-3.889,8.673-8.67V65.928C109.85,64.21,109.348,62.546,108.398,61.125z M39.592,101.74
			c-4.649,0-8.436-3.783-8.436-8.436s3.787-8.437,8.436-8.437c4.652,0,8.436,3.784,8.436,8.437S44.245,101.74,39.592,101.74z
			 M84.067,101.74c-4.649,0-8.433-3.783-8.433-8.436s3.783-8.437,8.433-8.437c4.655,0,8.438,3.784,8.438,8.437
			S88.723,101.74,84.067,101.74z M106.192,86.461c0,2.763-2.25,5.013-5.016,5.013h-5.139l-0.308-1.189
			c-1.395-5.343-6.185-9.076-11.663-9.076c-5.479,0-10.276,3.733-11.664,9.076l-0.305,1.189H51.563l-0.314-1.189
			c-1.388-5.343-6.182-9.076-11.657-9.076c-5.479,0-10.272,3.733-11.661,9.076l-0.311,1.189h-5.145c-2.766,0-5.013-2.25-5.013-5.013
			V74.603h46.073c4.785,0,8.675-3.889,8.675-8.675V40.384H87.49c1.679,0,3.238,0.833,4.173,2.23l13.689,20.536
			c0.549,0.819,0.84,1.78,0.84,2.777V86.461z"/>
	</g>
	<g>
		<path d="M93.239,72.883H79.554c-2.713,0-4.92-2.209-4.92-4.924V47.427c0-2.712,2.207-4.919,4.92-4.919h3.42
			c1.649,0,3.181,0.819,4.097,2.19l10.266,15.398c0.541,0.81,0.827,1.755,0.827,2.732v5.131
			C98.163,70.674,95.954,72.883,93.239,72.883z M79.554,45.507c-1.059,0-1.92,0.861-1.92,1.919v20.532
			c0,1.061,0.861,1.924,1.92,1.924h13.686c1.061,0,1.924-0.863,1.924-1.924v-5.131c0-0.377-0.114-0.756-0.322-1.067L84.574,46.362
			c-0.357-0.535-0.956-0.855-1.601-0.855H79.554z"/>
	</g>
</g>
</svg>
