<?xml version="1.0" encoding="utf-8"?>
<!-- Generator: Adobe Illustrator 16.0.0, SVG Export Plug-In . SVG Version: 6.00 Build 0)  -->
<!DOCTYPE svg PUBLIC "-//W3C//DTD SVG 1.1//EN" "http://www.w3.org/Graphics/SVG/1.1/DTD/svg11.dtd">
<svg version="1.1" id="Layer_1" xmlns="http://www.w3.org/2000/svg" xmlns:xlink="http://www.w3.org/1999/xlink" x="0px" y="0px"
	 width="113.39px" height="113.39px" viewBox="0 0 113.39 113.39" enable-background="new 0 0 113.39 113.39" xml:space="preserve">
<path d="M56.696,0C26.15,0,1.391,24.76,1.391,55.307c0,30.544,24.759,55.303,55.305,55.303c30.543,0,55.303-24.759,55.303-55.303
	C111.999,24.76,87.239,0,56.696,0z M92.661,84.947c-0.541-0.396-0.889-0.979-0.988-1.646c-0.098-0.659,0.066-1.322,0.467-1.863
	c6.033-8.167,9.061-18.268,8.531-28.433c-1.266-24.167-21.734-42.881-46.273-41.68c-11.746,0.616-22.547,5.771-30.426,14.517
	c-7.868,8.737-11.863,20.02-11.247,31.767c0.616,11.748,5.767,22.552,14.502,30.423c8.664,7.803,20.049,11.841,31.766,11.254
	c8.676-0.458,16.914-3.408,23.838-8.538c1.09-0.813,2.707-0.562,3.506,0.522c0.395,0.533,0.566,1.196,0.471,1.855
	c-0.098,0.662-0.453,1.247-0.992,1.649c-7.715,5.725-16.896,9.013-26.557,9.518c-13.015,0.675-25.715-3.821-35.391-12.536
	C14.137,82.991,8.4,70.956,7.714,57.872c-0.685-13.084,3.764-25.654,12.532-35.39c8.77-9.741,20.803-15.479,33.889-16.163
	c0.869-0.048,1.734-0.069,2.6-0.069c26.086,0,47.584,20.42,48.945,46.488c0.596,11.323-2.781,22.573-9.51,31.683
	C95.382,85.487,93.741,85.751,92.661,84.947z M73.997,69.327c0.473,0.473,0.734,1.103,0.734,1.773c0,0.666-0.262,1.297-0.734,1.772
	c-0.947,0.946-2.598,0.946-3.545,0L56.696,59.114L42.938,72.873c-0.948,0.946-2.597,0.946-3.544,0
	c-0.473-0.476-0.734-1.106-0.734-1.772c0-0.671,0.262-1.301,0.734-1.773L53.15,55.57L38.889,41.306
	c-0.979-0.98-0.985-2.572-0.005-3.548c0.469-0.474,1.099-0.735,1.766-0.735c0.67,0,1.305,0.261,1.783,0.735l14.264,14.264
	l14.262-14.264c0.479-0.474,1.109-0.735,1.781-0.735c0.67,0,1.297,0.261,1.771,0.735c0.977,0.976,0.971,2.568-0.008,3.548
	L60.239,55.57L73.997,69.327z"/>
</svg>
