<?xml version="1.0" encoding="utf-8"?>
<!-- Generator: Adobe Illustrator 18.0.0, SVG Export Plug-In . SVG Version: 6.00 Build 0)  -->
<!DOCTYPE svg PUBLIC "-//W3C//DTD SVG 1.1 Tiny//EN" "http://www.w3.org/Graphics/SVG/1.1/DTD/svg11-tiny.dtd">
<svg version="1.1" baseProfile="tiny" id="Layer_1" xmlns="http://www.w3.org/2000/svg" xmlns:xlink="http://www.w3.org/1999/xlink"
	 x="0px" y="0px" viewBox="0 0 14.7 17.5" xml:space="preserve">
<path fill="#FFFFFF" d="M1.5,3.4L1.5,3.4h1.6c0.1,0,0.2-0.1,0.2-0.2c0,0,0-1.4,0-1.8v0c0-0.3,0.1-0.6,0.2-0.8l0.1-0.1c0,0,0,0,0,0
	L0.3,3.7c0,0,0,0,0,0c0.1,0,0.2-0.1,0.2-0.1C0.7,3.5,1.1,3.4,1.5,3.4 M14.3,3c-0.1-0.7-0.5-1-0.9-1.2c-0.4-0.1-1.2-0.3-2.3-0.4
	c-0.8-0.1-1.8-0.1-2.4-0.1C8.6,0.9,8.3,0.4,7.9,0.3c-1-0.4-2.6-0.3-3-0.2C4.6,0.2,4.2,0.4,4,0.7C3.9,0.8,3.8,1.1,3.8,1.4
	c0,0.2,0,0.6,0,1c0,0.4,0,0.8,0,0.8c0,0.4-0.3,0.6-0.6,0.6H1.5C1.2,3.9,0.9,3.9,0.7,4C0.5,4.1,0.4,4.2,0.3,4.4C0,4.7,0,5.1,0,5.4
	c0,0,0,0.3,0.1,0.9c0.1,0.5,0.6,3.6,1,4.6c0.2,0.4,0.3,0.5,0.7,0.7c0.8,0.3,2.6,0.7,3.5,0.8c0.9,0.1,1.4,0.3,1.7-0.3
	c0,0,0.1-0.2,0.1-0.4c0.3-0.8,0.3-1.6,0.3-2.1c0-0.1,0.1-0.1,0.1,0c0,0.4-0.1,1.7,0.9,2.1c0.4,0.1,1.2,0.3,2.1,0.4
	c0.8,0.1,1.3,0.4,1.3,2.3c0,1.2-0.2,1.4-1.6,1.4c-1.1,0-1.5,0-1.5-0.8c0-0.7,0.7-0.6,1.2-0.6c0.2,0,0.1-0.2,0.1-0.6
	c0-0.4,0.3-0.7,0-0.7c-1.7,0-2.7,0-2.7,2.2c0,2,0.7,2.3,3.2,2.3c1.9,0,2.6-0.1,3.4-2.5c0.2-0.5,0.5-2,0.8-4.5
	C14.8,9,14.5,4.2,14.3,3 M10.9,8.3c-0.2,0-0.5,0-0.7,0c0.1-0.5,0.3-1.1,1-1c0.8,0,0.9,0.8,0.9,1.3C11.8,8.4,11.4,8.3,10.9,8.3"/>
</svg>
