<?xml version="1.0" encoding="utf-8"?>
<!-- Generator: Adobe Illustrator 16.0.0, SVG Export Plug-In . SVG Version: 6.00 Build 0)  -->
<!DOCTYPE svg PUBLIC "-//W3C//DTD SVG 1.1//EN" "http://www.w3.org/Graphics/SVG/1.1/DTD/svg11.dtd">
<svg version="1.1" id="Layer_1" xmlns="http://www.w3.org/2000/svg" xmlns:xlink="http://www.w3.org/1999/xlink" x="0px" y="0px"
	 width="200px" height="200px" viewBox="0 0 200 200" enable-background="new 0 0 200 200" xml:space="preserve">
<path d="M98.77,150.579c-6.252,0-11.328-5.087-11.328-11.34c0-6.236,5.076-11.308,11.328-11.308
	c1.787,0,3.566,0.433,5.154,1.247l-4.02,7.845c-1.492-0.771-3.646,0.438-3.646,2.216c0,0.707,0.279,1.371,0.764,1.819l1.811-1.95
	l-1.216,2.376c1.573,0.829,3.647-0.449,3.647-2.245c0-0.734-0.318-1.397-0.835-1.854l5.999-6.462
	c2.327,2.152,3.654,5.187,3.654,8.316C110.082,145.492,105.006,150.579,98.77,150.579z"/>
<g>
	<path d="M98.754,116.008c-3.821,0-6.912-3.099-6.912-6.915V45.01c0-3.817,3.091-6.916,6.912-6.916
		s6.91,3.099,6.91,6.916v64.083C105.664,112.909,102.575,116.008,98.754,116.008z"/>
</g>
<g>
	<path  d="M99.157,198.606c-24.558,0-47.927-8.954-66.318-25.518C13.134,155.34,1.523,130.98,0.14,104.501
		c-1.392-26.487,7.614-51.929,25.367-71.64C43.25,13.149,67.616,1.527,94.108,0.139c54.601-2.88,101.493,39.305,104.34,93.972
		c1.207,22.919-5.632,45.692-19.249,64.129c-2.307,3.124-6.717,3.803-9.849,1.48c-3.13-2.311-3.794-6.72-1.48-9.848
		c11.686-15.818,17.543-35.359,16.517-55.026c-2.453-46.911-42.515-82.979-89.542-80.645c-22.729,1.193-43.639,11.166-58.875,28.082
		C20.742,59.2,13.013,81.035,14.203,103.764c1.189,22.726,11.15,43.626,28.07,58.862c16.911,15.237,38.912,22.924,61.464,21.774
		c16.772-0.877,32.721-6.587,46.12-16.52c3.14-2.32,7.542-1.658,9.849,1.47c2.322,3.123,1.658,7.531-1.465,9.852
		c-15.623,11.583-34.218,18.243-53.768,19.262C102.7,198.557,100.919,198.606,99.157,198.606z M99.303,151.335
		c-6.369,0-11.539-5.179-11.539-11.544c0-6.355,5.17-11.525,11.539-11.525c1.852,0,3.689,0.457,5.325,1.314
		c0.428,0.228,0.833,0.494,1.188,0.793c0.436,0.251,0.849,0.551,1.236,0.903c2.396,2.185,3.771,5.287,3.771,8.515
		C110.824,146.156,105.654,151.335,99.303,151.335z"/>
</g>
</svg>
