<?xml version="1.0" encoding="utf-8"?>
<!-- Generator: Adobe Illustrator 16.0.0, SVG Export Plug-In . SVG Version: 6.00 Build 0)  -->
<!DOCTYPE svg PUBLIC "-//W3C//DTD SVG 1.1//EN" "http://www.w3.org/Graphics/SVG/1.1/DTD/svg11.dtd">
<svg version="1.1" id="Layer_1" xmlns="http://www.w3.org/2000/svg" xmlns:xlink="http://www.w3.org/1999/xlink" x="0px" y="0px"
	 width="113.39px" height="113.39px" viewBox="0 0 113.39 113.39" enable-background="new 0 0 113.39 113.39" xml:space="preserve">
<path d="M56.694,1.142c-30.681,0-55.552,24.871-55.552,55.556c0,30.676,24.872,55.549,55.552,55.549s55.554-24.873,55.554-55.549
	C112.248,26.013,87.375,1.142,56.694,1.142z M92.611,86.143c-0.541-0.397-0.891-0.985-0.99-1.651
	c-0.098-0.666,0.064-1.332,0.467-1.872c6.061-8.207,9.104-18.35,8.57-28.561c-1.271-24.276-21.832-43.075-46.481-41.869
	c-11.797,0.62-22.647,5.798-30.563,14.583c-7.902,8.776-11.917,20.109-11.295,31.91c0.618,11.798,5.792,22.65,14.569,30.557
	c8.703,7.839,20.139,11.894,31.907,11.307c8.713-0.461,16.99-3.427,23.943-8.576c1.096-0.821,2.721-0.565,3.523,0.524
	c0.398,0.536,0.566,1.202,0.471,1.86c-0.1,0.67-0.453,1.258-0.996,1.66c-7.752,5.747-16.973,9.052-26.676,9.558
	c-13.072,0.677-25.829-3.836-35.547-12.59C13.736,84.178,7.975,72.086,7.285,58.945c-0.688-13.142,3.782-25.769,12.59-35.549
	c8.808-9.784,20.898-15.55,34.039-16.234c0.874-0.049,1.744-0.069,2.613-0.069c26.203,0,47.797,20.512,49.162,46.694
	c0.6,11.377-2.791,22.68-9.549,31.828C95.346,86.686,93.701,86.95,92.611,86.143z M81.232,42.662L50.286,73.623
	c-1.711,1.696-3.946,2.541-6.18,2.541c-2.236,0-4.466-0.845-6.165-2.533l-5.499-5.492c-1.394-1.391-1.398-3.653-0.004-5.048
	c1.395-1.399,3.653-1.392,5.048-0.004l5.496,5.487c0.622,0.618,1.64,0.61,2.261-0.003l30.937-30.962
	c1.395-1.394,3.654-1.394,5.047,0C82.625,39.004,82.625,41.268,81.232,42.662z"/>
</svg>
