<?xml version="1.0" encoding="utf-8"?>
<!-- Generator: Adobe Illustrator 16.0.0, SVG Export Plug-In . SVG Version: 6.00 Build 0)  -->
<svg version="1.2" baseProfile="tiny" id="Capa_1" xmlns="http://www.w3.org/2000/svg" xmlns:xlink="http://www.w3.org/1999/xlink"
	 x="0px" y="0px" width="19.145px" height="18.938px" viewBox="0 0 19.145 18.938" xml:space="preserve">
<path fill="none" stroke="#000000" stroke-width="1.3" stroke-linecap="round" stroke-linejoin="round" d="M14.283,13.058
	c0,1.015-0.82,1.836-1.836,1.836c-1.014,0-1.836-0.821-1.836-1.836c0-1.014,0.822-1.836,1.836-1.836
	C13.463,11.222,14.283,12.044,14.283,13.058z M8.686,10.612c0,1.013-0.822,1.836-1.834,1.836c-1.014,0-1.838-0.823-1.838-1.836
	c0-1.014,0.824-1.834,1.838-1.834C7.863,8.778,8.686,9.598,8.686,10.612z M4.676,14.258c-0.797,0.631-1.307,1.605-1.307,2.699v1.248
	h3.262 M14.768,16.611c0.484,0.383,0.793,0.976,0.793,1.64H9.344c0-0.664,0.307-1.257,0.793-1.64 M9.232,3.407
	c0,1.523-1.234,2.757-2.758,2.757S3.719,4.93,3.719,3.407c0-1.521,1.232-2.757,2.756-2.757S9.232,1.885,9.232,3.407z M16.633,6.329
	c0,1.522-1.236,2.756-2.758,2.756c-1.523,0-2.76-1.233-2.76-2.756c0-1.521,1.236-2.758,2.76-2.758
	C15.396,3.571,16.633,4.807,16.633,6.329z M2.994,7.335c-1.428,1.134-2.344,2.886-2.344,4.85v6.086 M16.727,10.749
	c1.076,0.853,1.768,2.172,1.768,3.654v3.886"/>
</svg>
