<?xml version="1.0" encoding="utf-8"?>
<!-- Generator: Adobe Illustrator 16.0.0, SVG Export Plug-In . SVG Version: 6.00 Build 0)  -->
<!DOCTYPE svg PUBLIC "-//W3C//DTD SVG 1.1//EN" "http://www.w3.org/Graphics/SVG/1.1/DTD/svg11.dtd">
<svg version="1.1" id="Layer_1" xmlns="http://www.w3.org/2000/svg" xmlns:xlink="http://www.w3.org/1999/xlink" x="0px" y="0px"
	 width="200px" height="188.046px" viewBox="0 0 200 188.046" enable-background="new 0 0 200 188.046" xml:space="preserve">
<g>
	<path d="M159.073,188.046c-1.665,0-3.349-0.271-4.996-0.811l-44.212-17.843c-4.015-1.62-5.95-6.193-4.33-10.209
		c1.621-4.006,6.185-5.941,10.2-4.321l42.528,17.177l-17.303-48.146c-0.162-0.396-0.271-0.802-0.36-1.216
		c-0.234-1.125-0.216-2.25,0.018-3.321c0.252-1.08,0.729-2.125,1.44-3.052c0.252-0.333,0.522-0.64,0.828-0.928l40.764-40.426
		l-53.547-0.131c-3.106-0.009-5.78-1.818-7.04-4.443c-0.181-0.301-0.342-0.625-0.486-0.958l-22.565-53.673L77.285,68.789
		c-0.814,3.453-3.907,6.023-7.607,6.032l-53.764,0.131l41.705,41.488c2.197,2.16,2.849,5.303,1.944,8.048
		c-0.054,0.198-0.117,0.396-0.193,0.595l-17.136,46.705l42.708-16.942c4.006-1.63,8.575,0.324,10.191,4.348
		c1.616,4.016-0.333,8.58-4.348,10.191l-43.969,17.681c-6.216,2.062-12.451,0.559-16.731-3.754c-2.89-2.917-5.779-7.958-3.11-15.422
		l16.07-43.806L4.729,86.348C0.381,82.022-1.1,75.779,0.835,70.031c1.976-5.789,6.918-9.867,12.914-10.677
		c0.342-0.045,0.684-0.072,1.031-0.072l49.514-0.122L84.87,9.39C87.985,3.349,93.517,0,99.634,0c0.094,0,0.185,0,0.274,0
		c6.28,0.14,11.793,3.736,14.431,9.394l20.922,49.767l49.308,0.122c0.342,0,0.684,0.027,1.026,0.072
		c6.014,0.81,10.965,4.888,12.928,10.646c1.908,5.883,0.396,12.104-3.89,16.344l-37.289,36.794l16.106,44.725
		c2.655,7.463-0.207,12.514-3.088,15.431C167.293,186.39,163.232,188.046,159.073,188.046z"/>
</g>
</svg>
