<?xml version="1.0" encoding="utf-8"?>
<!-- Generator: Adobe Illustrator 16.0.0, SVG Export Plug-In . SVG Version: 6.00 Build 0)  -->
<svg version="1.2" baseProfile="tiny" id="Layer_1" xmlns="http://www.w3.org/2000/svg" xmlns:xlink="http://www.w3.org/1999/xlink"
	 x="0px" y="0px" width="21.01px" height="15.009px" viewBox="0 0 21.01 15.009" xml:space="preserve">
<path d="M1.663,15.009c-0.838,0-1.53-0.683-1.547-1.535c-0.007-0.376,0.291-0.688,0.667-0.695c0.38-0.005,0.686,0.292,0.694,0.667
	c0.002,0.11,0.086,0.199,0.188,0.199c0.001,0,0.002,0,0.003,0l11.362-0.183c0.113-0.001,0.196-0.092,0.196-0.211l-0.014-0.915
	l-1.958,0.026c-0.003,0-0.006,0-0.009,0c-0.372,0-0.675-0.299-0.68-0.672c-0.005-0.376,0.295-0.686,0.671-0.69l1.954-0.026
	l-0.017-1.126l-1.957,0.031c-0.38,0.005-0.686-0.294-0.691-0.67c-0.006-0.376,0.293-0.686,0.669-0.692l1.958-0.031l-0.018-1.126
	l-1.956,0.03c-0.003,0-0.007,0-0.011,0c-0.371,0-0.674-0.298-0.68-0.671c-0.006-0.376,0.294-0.686,0.67-0.692l2.591-0.04
	c0.019-0.001,0.038-0.002,0.056-0.002c0.011,0,0.022,0,0.033,0l5.619-0.086c0.067-0.001,0.111-0.033,0.137-0.059
	c0.022-0.022,0.058-0.071,0.057-0.142l-0.017-0.726c0-0.067-0.018-0.11-0.052-0.144c-0.021-0.022-0.083-0.066-0.147-0.059
	L9.378,4.93c-0.003,0-0.007,0-0.011,0c-0.32,0-0.597-0.224-0.665-0.538c-0.068-0.317,0.097-0.64,0.395-0.769l2.793-1.21
	c0.106-0.047,0.153-0.158,0.109-0.263l-0.291-0.673c-0.026-0.06-0.078-0.087-0.105-0.098c-0.03-0.013-0.091-0.028-0.157,0.001
	L2.069,5.434C1.64,5.624,1.353,6.069,1.361,6.54l0.064,3.498c0.007,0.376-0.292,0.687-0.667,0.693c-0.004,0-0.009,0-0.013,0
	c-0.37,0-0.673-0.297-0.68-0.668L0,6.563c-0.016-1.028,0.582-1.961,1.523-2.378l9.38-4.055c0.381-0.166,0.807-0.172,1.197-0.019
	c0.388,0.153,0.691,0.446,0.855,0.825l0.291,0.675c0.303,0.704,0.061,1.487-0.547,1.904l6.715-0.106c0.005,0,0.011,0,0.016,0
	c0.422,0,0.813,0.161,1.108,0.454c0.294,0.292,0.455,0.681,0.454,1.097l0.017,0.713c0.006,0.423-0.151,0.818-0.442,1.118
	c-0.29,0.299-0.678,0.466-1.093,0.471l-4.981,0.077l0.027,1.74c0.002,0.022,0.004,0.044,0.004,0.067c0,0.023,0,0.045-0.002,0.067
	l0.063,4.031c-0.002,0.884-0.678,1.574-1.538,1.583L1.69,15.008C1.681,15.009,1.672,15.009,1.663,15.009z"/>
</svg>
