<?xml version="1.0" encoding="utf-8"?>
<!-- Generator: Adobe Illustrator 16.0.0, SVG Export Plug-In . SVG Version: 6.00 Build 0)  -->
<!DOCTYPE svg PUBLIC "-//W3C//DTD SVG 1.1//EN" "http://www.w3.org/Graphics/SVG/1.1/DTD/svg11.dtd">
<svg version="1.1" id="Layer_1" xmlns="http://www.w3.org/2000/svg" xmlns:xlink="http://www.w3.org/1999/xlink" x="0px" y="0px"
	 width="200px" height="200px" viewBox="0 0 200 200" enable-background="new 0 0 200 200" xml:space="preserve">
<g>
	<g>
		<path d="M100.321,199.391c-24.581,0-47.969-8.958-66.379-25.545C14.221,156.086,2.6,131.7,1.215,105.201
			c-1.393-26.512,7.621-51.975,25.389-71.703C44.366,13.769,68.751,2.135,95.267,0.746c54.675-2.871,101.584,39.34,104.435,94.057
			c1.205,22.936-5.639,45.732-19.269,64.189c-2.309,3.127-6.722,3.809-9.855,1.476c-3.134-2.309-3.8-6.722-1.481-9.85
			c11.694-15.84,17.558-35.392,16.528-55.08c-2.453-46.953-42.55-83.154-89.62-80.717c-22.751,1.195-43.679,11.178-58.927,28.107
			C21.834,59.86,14.1,81.714,15.291,104.463c1.19,22.751,11.161,43.662,28.095,58.92c16.926,15.242,38.931,22.944,61.52,21.787
			c16.789-0.875,32.752-6.595,46.162-16.53c3.143-2.325,7.549-1.659,9.857,1.465c2.324,3.127,1.659,7.549-1.466,9.864
			c-15.64,11.599-34.252,18.256-53.816,19.276C103.869,199.342,102.085,199.391,100.321,199.391z"/>
	</g>
</g>
<g>
	<path d="M107.221,124.51H86.934l-6.14,31.414H69.803l6.14-31.414H57.592v-10.611h20.352l5.306-27.268H63.43V76.029h21.899
		l6.294-31.954h10.982l-6.293,31.954h20.279l6.292-31.954h11.065l-6.295,31.954h15.665v10.602h-17.745l-5.299,27.268h17.284v10.611
		h-19.274l-6.147,31.414h-11.062L107.221,124.51z M88.935,113.898h20.287l5.287-27.268H94.23L88.935,113.898z"/>
</g>
</svg>
