<?xml version="1.0" encoding="utf-8"?>
<!-- Generator: Adobe Illustrator 16.0.0, SVG Export Plug-In . SVG Version: 6.00 Build 0)  -->
<!DOCTYPE svg PUBLIC "-//W3C//DTD SVG 1.1//EN" "http://www.w3.org/Graphics/SVG/1.1/DTD/svg11.dtd">
<svg version="1.1" id="Layer_1" xmlns="http://www.w3.org/2000/svg" xmlns:xlink="http://www.w3.org/1999/xlink" x="0px" y="0px"
	 width="147.133px" height="200px" viewBox="0 0 147.133 200" enable-background="new 0 0 147.133 200" xml:space="preserve">
<path d="M147.133,56.928L147.133,56.928c0-0.491-0.243-0.714-0.49-1.204c0,0,0-0.246-0.247-0.246
	c-0.242-0.247-0.489-0.713-0.711-0.96l0,0L92.373,1.451l0,0l0,0l0,0c-0.245-0.246-0.492-0.492-0.961-0.713c0,0-0.245,0-0.245-0.246
	C90.918,0.246,90.452,0.246,90.205,0l0,0c-0.245,0-0.492,0-0.714,0H12.772C5.785,0,0,5.785,0,12.777V186.69
	c0,6.987,5.782,12.774,12.772,12.774h121.564c6.987,0,12.772-5.782,12.772-12.774V57.889
	C147.133,57.399,147.133,57.152,147.133,56.928z M131.924,53.309H93.823V15.432L131.924,53.309z M138.2,186.688
	c0,2.166-1.695,3.863-3.863,3.863H12.772c-2.166,0-3.861-1.699-3.861-3.863V13.02c0-2.164,1.697-3.862,3.861-3.862h72.118v48.484
	c0,2.412,1.919,4.333,4.334,4.333h48.73v124.713H138.2L138.2,186.688z"/>
<g>
	<path d="M106.944,150.76c4.108,7.27,9.608,21.377,9.608,21.377l-7.223,4.584c2.388-3.674-6.021-18.375-6.021-18.375
		S104.521,156.769,106.944,150.76z"/>
	<g>
		<path d="M36.562,133.261c16.366,34.371,48.146,25.912,62.064,26.572c-6.154-29.808-40.821-46.978-40.821-46.978
			c33.232,10.293,43.328,23.839,45.113,39.762c0.159,1.438,0.423,5.75,0.423,5.75c31.593-49.783-18.379-56.12-30.808-60.866
			c-17.271-6.595-31.856-24.815-35.408-43.668C28.907,79.451,22.686,109.72,36.562,133.261z"/>
	</g>
</g>
</svg>
