<?xml version="1.0" encoding="UTF-8" standalone="no"?>
<svg width="204px" height="245px" viewBox="0 0 204 245" version="1.1" xmlns="http://www.w3.org/2000/svg" xmlns:xlink="http://www.w3.org/1999/xlink" xmlns:sketch="http://www.bohemiancoding.com/sketch/ns">
    <!-- Generator: Sketch 3.3 (11970) - http://www.bohemiancoding.com/sketch -->
    <title>ico-trash</title>
    <desc>Created with Sketch.</desc>
    <defs></defs>
    <g id="Page-1" stroke="none" stroke-width="1" fill="none" fill-rule="evenodd" sketch:type="MSPage">
        <path d="M61.2,204.166667 C64.9535227,204.166667 68,201.104167 68,197.361111 L68,115.694444 C68,111.937855 64.9535227,108.888889 61.2,108.888889 C57.4464773,108.888889 54.4,111.937855 54.4,115.694444 L54.4,197.361111 C54.4,201.104167 57.4464773,204.166667 61.2,204.166667 L61.2,204.166667 Z M190.4,68.0555556 L13.6,68.0555556 L13.6,47.6388889 C13.6,43.8822996 16.6464773,40.8333333 20.4,40.8333333 L183.6,40.8333333 C187.34,40.8333333 190.4,43.8822996 190.4,47.6388889 L190.4,68.0555556 L190.4,68.0555556 Z M176.8,217.777778 C176.8,225.304877 170.720568,231.388889 163.2,231.388889 L40.8,231.388889 C33.2790455,231.388889 27.2,225.304877 27.2,217.777778 L27.2,81.6666667 L176.8,81.6666667 L176.8,217.777778 L176.8,217.777778 Z M81.6,20.4166667 C81.6,16.6600773 84.6464773,13.6111111 88.4,13.6111111 L115.6,13.6111111 C119.34,13.6111111 122.4,16.6600773 122.4,20.4166667 L122.4,27.2222222 L81.6,27.2222222 L81.6,20.4166667 L81.6,20.4166667 Z M136,27.2222222 L136,13.6111111 C136,6.09793245 129.920955,0 122.4,0 L81.6,0 C74.0790455,0 68,6.09793245 68,13.6111111 L68,27.2222222 L13.6,27.2222222 C6.07904545,27.2222222 0,33.319768 0,40.8333333 L0,81.6666667 L13.6,81.6666667 L13.6,217.777778 C13.6,232.818056 25.7855227,245 40.8,245 L163.2,245 C178.214477,245 190.4,232.818056 190.4,217.777778 L190.4,81.6666667 L204,81.6666667 L204,40.8333333 C204,33.319768 197.920955,27.2222222 190.4,27.2222222 L136,27.2222222 Z M142.8,204.166667 C146.54,204.166667 149.6,201.104167 149.6,197.361111 L149.6,115.694444 C149.6,111.937855 146.54,108.888889 142.8,108.888889 C139.06,108.888889 136,111.937855 136,115.694444 L136,197.361111 C136,201.104167 139.06,204.166667 142.8,204.166667 L142.8,204.166667 Z M102,204.166667 C105.753523,204.166667 108.8,201.104167 108.8,197.361111 L108.8,115.694444 C108.8,111.937855 105.753523,108.888889 102,108.888889 C98.2464773,108.888889 95.2,111.937855 95.2,115.694444 L95.2,197.361111 C95.2,201.104167 98.2464773,204.166667 102,204.166667 Z M177,82 L190,82 L190,92 L177,92 L177,82 Z" id="ico-trash" fill="#7AB800" sketch:type="MSShapeGroup"></path>
    </g>
</svg>