<?xml version="1.0" encoding="utf-8"?>
<!-- Generator: Adobe Illustrator 16.0.0, SVG Export Plug-In . SVG Version: 6.00 Build 0)  -->
<!DOCTYPE svg PUBLIC "-//W3C//DTD SVG 1.1//EN" "http://www.w3.org/Graphics/SVG/1.1/DTD/svg11.dtd">
<svg version="1.1" id="Capa_1" xmlns="http://www.w3.org/2000/svg" xmlns:xlink="http://www.w3.org/1999/xlink" x="0px" y="0px"
	 width="58.25px" height="59.25px" viewBox="0 0 58.25 59.25" enable-background="new 0 0 58.25 59.25" xml:space="preserve">
<ellipse fill="#5E9EFF" cx="29" cy="29.426" rx="29" ry="29.426"/>
<ellipse fill="none" stroke="#FFFFFF" stroke-width="2" stroke-miterlimit="10" cx="29" cy="29.426" rx="25.461" ry="25.664"/>
<path fill="#FFFFFF" d="M43.551,29.036l-3.852-5.778c-0.455-0.681-1.213-1.088-2.033-1.088h-4.299v-2.374
	c0-1.347-1.095-2.44-2.441-2.44H16.481c-1.346,0-2.441,1.094-2.441,2.44v4.409v0.469v0.085h0.009
	c0.041,0.245,0.252,0.432,0.508,0.432c0.255,0,0.466-0.187,0.507-0.432h0.006v-0.055c0-0.01,0.004-0.019,0.004-0.03v-0.469
	c0-0.01-0.004-0.019-0.004-0.029v-4.38c0-0.778,0.632-1.412,1.411-1.412h14.444c0.777,0,1.412,0.634,1.412,1.412v10.592
	c0,0.778-0.635,1.412-1.412,1.412H16.481c-0.779,0-1.411-0.634-1.411-1.412v-3.292c0-0.01,0.004-0.02,0.004-0.029v-0.469
	c0-0.011-0.004-0.021-0.004-0.03v-0.07h-0.008c-0.046-0.237-0.255-0.415-0.505-0.415c-0.251,0-0.46,0.178-0.507,0.415h-0.01v0.101
	v0.469v3.321c0,1.348,1.095,2.441,2.441,2.441h0.448v3.338c0,1.346,1.095,2.439,2.441,2.439h1.448l0.087,0.336
	c0.39,1.504,1.739,2.554,3.281,2.554s2.89-1.05,3.281-2.554l0.086-0.336h5.78l0.086,0.336c0.392,1.504,1.74,2.554,3.283,2.554
	c1.541,0,2.891-1.05,3.281-2.554l0.086-0.336h1.448c1.347,0,2.44-1.094,2.44-2.439v-5.779
	C43.959,29.904,43.818,29.438,43.551,29.036 M24.187,40.467c-1.308,0-2.374-1.064-2.374-2.374c0-1.31,1.066-2.375,2.374-2.375
	c1.309,0,2.374,1.065,2.374,2.375C26.561,39.403,25.496,40.467,24.187,40.467 M36.703,40.467c-1.308,0-2.373-1.064-2.373-2.374
	c0-1.31,1.065-2.375,2.373-2.375c1.311,0,2.375,1.065,2.375,2.375C39.078,39.403,38.014,40.467,36.703,40.467 M42.931,36.167
	c0,0.777-0.634,1.41-1.412,1.41h-1.446l-0.086-0.335c-0.393-1.503-1.742-2.554-3.283-2.554c-1.543,0-2.892,1.051-3.283,2.554
	l-0.086,0.335h-5.777l-0.089-0.335c-0.391-1.503-1.739-2.554-3.281-2.554c-1.541,0-2.891,1.051-3.281,2.554l-0.087,0.335h-1.448
	c-0.779,0-1.412-0.633-1.412-1.41v-3.338h12.967c1.347,0,2.441-1.094,2.441-2.441V23.2h4.299c0.473,0,0.912,0.234,1.176,0.627
	l3.852,5.78c0.154,0.23,0.237,0.501,0.237,0.781L42.931,36.167L42.931,36.167z"/>
<path fill="none" stroke="#FFFFFF" stroke-width="0.844" stroke-miterlimit="10" d="M37.197,24.647
	c-0.178-0.268-0.479-0.429-0.801-0.429h-0.963c-0.532,0-0.963,0.431-0.963,0.962v5.778c0,0.533,0.431,0.965,0.963,0.965h3.852
	c0.533,0,0.963-0.432,0.963-0.965v-1.443c0-0.189-0.057-0.378-0.16-0.534L37.197,24.647z"/>
</svg>
