<?xml version="1.0" encoding="utf-8"?>
<!-- Generator: Adobe Illustrator 16.0.0, SVG Export Plug-In . SVG Version: 6.00 Build 0)  -->
<!DOCTYPE svg PUBLIC "-//W3C//DTD SVG 1.1//EN" "http://www.w3.org/Graphics/SVG/1.1/DTD/svg11.dtd">
<svg version="1.1" id="Capa_1" xmlns="http://www.w3.org/2000/svg" xmlns:xlink="http://www.w3.org/1999/xlink" x="0px" y="0px"
	 width="58.508px" height="59.167px" viewBox="0 0 58.508 59.167" enable-background="new 0 0 58.508 59.167" xml:space="preserve">
<ellipse fill="#5E9EFF" cx="29" cy="29.426" rx="29" ry="29.426"/>
<ellipse fill="none" stroke="#FFFFFF" stroke-width="2" stroke-miterlimit="10" cx="29" cy="29.426" rx="25.461" ry="25.664"/>
<path fill="none" stroke="#FFFFFF" stroke-width="1.3" stroke-linecap="round" stroke-linejoin="round" d="M34.185,20.262
	c0.648,0,1.176,0.525,1.176,1.175V35.03c0,1.372-1.113,2.483-2.486,2.483h-11.13c-1.375,0-2.487-1.111-2.487-2.483V21.434
	c0-0.646,0.527-1.172,1.174-1.172h1.748c0.648,0,1.174-0.526,1.174-1.174v-1.389 M26.13,20.262h4.078
	c0.646,0,1.174-0.526,1.174-1.174v-1.389 M24.716,27.409l3.01-3.01v8.382 M38.181,22.922c0.338,0.207,0.562,0.578,0.562,1.002
	v14.408c0,1.37-1.111,2.484-2.486,2.484H22.933c-0.434,0-0.812-0.234-1.016-0.584"/>
</svg>
