<?xml version="1.0" encoding="utf-8"?>
<!-- Generator: Adobe Illustrator 16.0.0, SVG Export Plug-In . SVG Version: 6.00 Build 0)  -->
<!DOCTYPE svg PUBLIC "-//W3C//DTD SVG 1.1//EN" "http://www.w3.org/Graphics/SVG/1.1/DTD/svg11.dtd">
<svg version="1.1" id="Layer_1" xmlns="http://www.w3.org/2000/svg" xmlns:xlink="http://www.w3.org/1999/xlink" x="0px" y="0px"
	 width="26.459px" height="26.459px" viewBox="0 0 26.459 26.459" enable-background="new 0 0 26.459 26.459" xml:space="preserve">
<path fill="#1E618A" d="M13.229,0C5.923,0,0,5.923,0,13.23c0,7.306,5.923,13.229,13.229,13.229s13.229-5.923,13.229-13.229
	C26.459,5.923,20.536,0,13.229,0z M21.833,20.32c-0.129-0.095-0.213-0.234-0.236-0.394c-0.023-0.158,0.016-0.316,0.111-0.445
	c1.443-1.954,2.168-4.37,2.041-6.802C23.446,6.898,18.55,2.422,12.68,2.709C9.87,2.856,7.286,4.09,5.401,6.182
	c-1.882,2.09-2.838,4.789-2.69,7.6c0.147,2.81,1.38,5.394,3.47,7.276c2.072,1.867,4.796,2.833,7.599,2.692
	c2.075-0.109,4.046-0.815,5.702-2.042c0.261-0.195,0.647-0.135,0.839,0.125c0.095,0.128,0.135,0.286,0.112,0.443
	c-0.023,0.159-0.108,0.299-0.237,0.395c-1.846,1.369-4.042,2.156-6.353,2.276c-3.113,0.161-6.151-0.913-8.466-2.998
	c-2.328-2.097-3.7-4.976-3.864-8.105s0.9-6.137,2.998-8.466c2.098-2.33,4.977-3.703,8.106-3.866
	c0.208-0.012,0.415-0.017,0.622-0.017c6.24,0,11.383,4.885,11.708,11.12c0.143,2.709-0.665,5.4-2.274,7.579
	C22.483,20.45,22.092,20.513,21.833,20.32z M13.229,8.066c-0.636,0-1.151-0.516-1.151-1.152c0-0.635,0.516-1.15,1.151-1.15
	s1.151,0.516,1.151,1.15C14.381,7.551,13.865,8.066,13.229,8.066z M13.886,10.737v7.875c0,0.362-0.294,0.656-0.656,0.656
	s-0.656-0.294-0.656-0.656v-7.875c0-0.362,0.294-0.656,0.656-0.656S13.886,10.375,13.886,10.737z"/>
</svg>
