<?xml version="1.0" encoding="utf-8"?>
<!-- Generator: Adobe Illustrator 17.0.0, SVG Export Plug-In . SVG Version: 6.00 Build 0)  -->
<!DOCTYPE svg PUBLIC "-//W3C//DTD SVG 1.1//EN" "http://www.w3.org/Graphics/SVG/1.1/DTD/svg11.dtd">
<svg version="1.1" id="Capa_1" xmlns="http://www.w3.org/2000/svg" xmlns:xlink="http://www.w3.org/1999/xlink" x="0px" y="0px"
	  viewBox="0 0 28.75 28.333" enable-background="new 0 0 28.75 28.333" xml:space="preserve">
<g>
	<g>
		<path d="M528.609,344.257H517.58c-1.115,0-2.021-0.908-2.021-2.024v-5.011h-4.674
			c-1.116,0-2.023-0.908-2.023-2.025V324.17c0-1.116,0.907-2.024,2.023-2.024h4.674v-3.928c0-1.116,0.906-2.023,2.021-2.023h11.029
			c1.116,0,2.023,0.907,2.023,2.023v3.928h4.67c1.117,0,2.025,0.908,2.025,2.024v7.832c0,0.47-0.38,0.85-0.85,0.85
			s-0.85-0.38-0.85-0.85v-7.832c0-0.179-0.146-0.325-0.326-0.325h-4.67v2.992c0,0.47-0.38,0.85-0.85,0.85s-0.85-0.38-0.85-0.85
			v-8.619c0-0.176-0.148-0.324-0.324-0.324H517.58c-0.178,0-0.322,0.146-0.322,0.324v8.619c0,0.47-0.38,0.85-0.85,0.85
			s-0.85-0.38-0.85-0.85v-2.992h-4.674c-0.176,0-0.324,0.149-0.324,0.325v11.026c0,0.177,0.148,0.326,0.324,0.326h4.674v-2.687
			c0-0.47,0.38-0.85,0.85-0.85h13.375c0.47,0,0.85,0.38,0.85,0.85v2.687h4.67c0.18,0,0.326-0.146,0.326-0.326
			c0-0.47,0.38-0.85,0.85-0.85s0.85,0.38,0.85,0.85c0,1.117-0.908,2.025-2.025,2.025h-4.67v5.011
			C530.633,343.349,529.726,344.257,528.609,344.257z M517.258,333.686v8.547c0,0.179,0.145,0.325,0.322,0.325h11.029
			c0.176,0,0.324-0.149,0.324-0.325v-8.547H517.258z"/>
	</g>
	<g>
		<path d="M526.287,341.207h-6.385c-0.304,0-0.55-0.246-0.55-0.55s0.246-0.55,0.55-0.55h6.385
			c0.304,0,0.55,0.246,0.55,0.55S526.591,341.207,526.287,341.207z M526.287,338.718h-6.385c-0.304,0-0.55-0.246-0.55-0.55
			s0.246-0.55,0.55-0.55h6.385c0.304,0,0.55,0.246,0.55,0.55S526.591,338.718,526.287,338.718z M526.287,336.229h-6.385
			c-0.304,0-0.55-0.246-0.55-0.55s0.246-0.55,0.55-0.55h6.385c0.304,0,0.55,0.246,0.55,0.55S526.591,336.229,526.287,336.229z"/>
	</g>
	<g>
		<path d="M531.586,327.675h-16.982c-0.457,0-0.828-0.371-0.828-0.828s0.371-0.828,0.828-0.828h16.982
			c0.457,0,0.828,0.371,0.828,0.828S532.043,327.675,531.586,327.675z"/>
	</g>
	<g>
		<g>
			<path d="M19.89,28.198H8.86c-1.115,0-2.022-0.908-2.022-2.025v-5.01H2.165c-1.116,0-2.024-0.909-2.024-2.026
				V8.112c0-1.117,0.908-2.025,2.024-2.025h4.673V2.159c0-1.116,0.907-2.024,2.022-2.024H19.89c1.116,0,2.024,0.908,2.024,2.024
				v3.928h4.669c1.117,0,2.026,0.908,2.026,2.025v7.831c0,0.469-0.381,0.85-0.85,0.85s-0.85-0.381-0.85-0.85V8.112
				c0-0.179-0.146-0.325-0.326-0.325h-4.669v2.991c0,0.469-0.381,0.85-0.85,0.85s-0.85-0.381-0.85-0.85V2.159
				c0-0.176-0.148-0.324-0.324-0.324H8.86c-0.177,0-0.322,0.145-0.322,0.324v8.619c0,0.469-0.381,0.85-0.85,0.85
				s-0.85-0.381-0.85-0.85V7.787H2.165c-0.179,0-0.324,0.146-0.324,0.325v11.025c0,0.177,0.148,0.326,0.324,0.326h4.673v-2.686
				c0-0.469,0.381-0.85,0.85-0.85h13.375c0.469,0,0.85,0.381,0.85,0.85v2.686h4.669c0.18,0,0.326-0.146,0.326-0.326
				c0-0.469,0.381-0.85,0.85-0.85s0.85,0.381,0.85,0.85c0,1.117-0.909,2.026-2.026,2.026h-4.669v5.01
				C21.914,27.29,21.005,28.198,19.89,28.198z M8.539,17.627v8.546c0,0.179,0.145,0.325,0.322,0.325H19.89
				c0.175,0,0.324-0.148,0.324-0.325v-8.546H8.539z"/>
		</g>
		<g>
			<path d="M17.567,25.149h-6.385c-0.304,0-0.55-0.246-0.55-0.55s0.246-0.55,0.55-0.55h6.385
				c0.304,0,0.55,0.246,0.55,0.55S17.871,25.149,17.567,25.149z M17.567,22.659h-6.385c-0.304,0-0.55-0.246-0.55-0.55
				s0.246-0.55,0.55-0.55h6.385c0.304,0,0.55,0.246,0.55,0.55S17.871,22.659,17.567,22.659z M17.567,20.169h-6.385
				c-0.304,0-0.55-0.246-0.55-0.55s0.246-0.55,0.55-0.55h6.385c0.304,0,0.55,0.246,0.55,0.55S17.871,20.169,17.567,20.169z"/>
		</g>
		<g>
			<path d="M22.866,11.616H5.884c-0.458,0-0.828-0.371-0.828-0.828s0.371-0.828,0.828-0.828h16.982
				c0.458,0,0.828,0.371,0.828,0.828S23.324,11.616,22.866,11.616z"/>
		</g>
	</g>
</g>
</svg>
