<?xml version="1.0" encoding="utf-8"?>
<!-- Generator: Adobe Illustrator 16.0.0, SVG Export Plug-In . SVG Version: 6.00 Build 0)  -->
<!DOCTYPE svg PUBLIC "-//W3C//DTD SVG 1.1//EN" "http://www.w3.org/Graphics/SVG/1.1/DTD/svg11.dtd">
<svg version="1.1" id="Layer_1" xmlns="http://www.w3.org/2000/svg" xmlns:xlink="http://www.w3.org/1999/xlink" x="0px" y="0px"
	 viewBox="0 0 200 200" enable-background="new 0 0 200 200" xml:space="preserve">
<path stroke="#005C84" stroke-width="1.7" d="M96.431,51.709c-0.892-0.828-1.476-2.02-1.476-3.316c0-2.496,2.01-4.514,4.49-4.514
	c2.497,0,4.506,2.018,4.506,4.514c0,2.471-2.01,4.482-4.506,4.482c-0.729,0-1.426-0.178-2.041-0.494"/>
<g>
	<path d="M99.462,151.585c-3.898,0-7.053-3.16-7.053-7.051V79.149c0-3.894,3.154-7.055,7.053-7.055s7.051,3.161,7.051,7.055v65.385
		C106.513,148.425,103.36,151.585,99.462,151.585z"/>
</g>
<g>
	<path d="M99.316,198.923c-24.598,0-48.005-8.972-66.425-25.555C13.155,155.589,1.526,131.194,0.14,104.667
		c-1.394-26.53,7.627-52.012,25.408-71.754C43.321,13.17,67.725,1.527,94.259,0.139c54.698-2.874,101.657,39.367,104.509,94.123
		c1.206,22.959-5.641,45.767-19.28,64.227c-2.31,3.137-6.727,3.817-9.863,1.491c-3.137-2.316-3.8-6.734-1.482-9.871
		c11.702-15.834,17.57-35.417,16.542-55.112c-2.446-46.986-42.673-83.214-89.687-80.774C72.233,15.418,51.289,25.407,36.029,42.35
		c-15.253,16.942-22.993,38.812-21.802,61.578c1.19,22.757,11.167,43.7,28.114,58.954c16.938,15.268,38.917,22.97,61.563,21.818
		c16.8-0.886,32.773-6.6,46.195-16.551c3.145-2.319,7.553-1.654,9.863,1.475c2.327,3.128,1.661,7.538-1.466,9.862
		c-15.649,11.598-34.275,18.274-53.857,19.297C102.865,198.875,101.081,198.923,99.316,198.923z M99.446,59.937
		c-1.856,0-3.697-0.459-5.333-1.316c-0.43-0.227-0.833-0.495-1.191-0.795c-0.438-0.251-0.852-0.551-1.24-0.904
		c-2.399-2.188-3.775-5.296-3.775-8.53c0-6.373,5.179-11.561,11.54-11.561c6.381,0,11.558,5.188,11.558,11.561
		C111.003,54.758,105.824,59.937,99.446,59.937z"/>
</g>
</svg>
