<?xml version="1.0" encoding="utf-8"?>
<!-- Generator: Adobe Illustrator 16.0.0, SVG Export Plug-In . SVG Version: 6.00 Build 0)  -->
<!DOCTYPE svg PUBLIC "-//W3C//DTD SVG 1.1//EN" "http://www.w3.org/Graphics/SVG/1.1/DTD/svg11.dtd">
<svg version="1.1" id="Layer_1" xmlns="http://www.w3.org/2000/svg" xmlns:xlink="http://www.w3.org/1999/xlink" x="0px" y="0px"
	 width="200px" height="200px" viewBox="0 0 200 200" enable-background="new 0 0 200 200" xml:space="preserve">
<g id="Layer_1_1_">
	<path d="M192.035,106.859c-2.939-0.422-5.409,1.544-5.806,4.35c-4.93,34.747-30.147,63.273-64.225,72.687l-5.748,1.597l3.416-4.885
		c11.697-16.611,24.19-46.86,24.19-81.906c0-49.9-25.881-98.702-45.18-98.702C44.274,0,0,44.281,0,98.702
		c0,54.345,44.232,98.595,98.599,98.648h0.014h0.136c48.801-0.038,90.767-36.441,97.626-84.681c0.198-1.352-0.147-2.703-0.966-3.801
		C194.583,107.761,193.386,107.048,192.035,106.859z M98.303,10.283h0.604c8.889,1.129,32.285,34.654,34.519,81.035l0.108,2.238
		H65.127l0.113-2.238C67.314,47.605,88.496,11.64,98.303,10.283z M10.647,91.245C13.721,54.64,39.61,23.43,75.051,13.575
		l5.579-1.557l-3.223,4.805C64.798,35.565,56.198,64.193,54.954,91.515l-0.099,2.042H10.456L10.647,91.245z M75.883,183.996
		c-35.917-9.602-62.13-40.901-65.235-77.854l-0.197-2.318H54.86l0.103,2.021c1.614,32.154,13.068,59.78,23.237,74.893l3.182,4.731
		L75.883,183.996z M99.472,186.857l-0.788,0.309l-0.78-0.309c-8.488-3.379-30.439-35.836-32.668-80.786l-0.108-2.233h68.394
		l-0.128,2.242C130.977,151.405,107.227,183.851,99.472,186.857z"/>
	<g>
		<circle cx="178.047" cy="49.123" r="9.794"/>
		<path d="M190.326,69.911c5.406,0,9.784,4.379,9.784,9.782c0,5.403-4.378,9.784-9.784,9.784c-5.399,0-9.784-4.38-9.784-9.784
			C180.542,74.29,184.927,69.911,190.326,69.911z"/>
		<circle cx="156.509" cy="25.238" r="9.797"/>
	</g>
</g>
</svg>
