<?xml version="1.0" encoding="utf-8"?>
<!-- Generator: Adobe Illustrator 16.0.0, SVG Export Plug-In . SVG Version: 6.00 Build 0)  -->
<!DOCTYPE svg PUBLIC "-//W3C//DTD SVG 1.1//EN" "http://www.w3.org/Graphics/SVG/1.1/DTD/svg11.dtd">
<svg version="1.1" id="Layer_1" xmlns="http://www.w3.org/2000/svg" xmlns:xlink="http://www.w3.org/1999/xlink" x="0px" y="0px"
	 width="57.074px" height="54.872px" viewBox="0 0 57.074 54.872" enable-background="new 0 0 57.074 54.872" xml:space="preserve">
<g>
	<path d="M1.41,54.872c-0.238,0-0.48-0.063-0.703-0.188c-0.675-0.391-0.908-1.254-0.52-1.93c1.23-2.143,3.223-3.676,5.612-4.317
		c2.396-0.646,4.899-0.317,7.051,0.921c0.025,0.018,0.07,0.047,0.115,0.078c3.495,1.711,7.66,1.016,10.395-1.758
		c0.92-0.928,1.599-2.006,2.035-3.152l-8.882-0.014c-2.201,0-3.991-1.789-3.991-3.983V27.031c0-0.11,0.015-0.221,0.038-0.325
		c0.085-1.675,0.783-3.25,1.988-4.47L34.793,2.012C36.085,0.715,37.809,0,39.641,0c0.006,0,0.012,0,0.016,0
		c1.83,0.004,3.545,0.722,4.828,2.018l10.586,10.573c0.002,0,0.002,0.002,0.006,0.002c2.664,2.676,2.662,7.027-0.004,9.697
		L34.834,42.527c-1.277,1.269-2.958,1.978-4.733,2.006l-1.735-0.004c-0.529,1.88-1.528,3.653-2.996,5.136
		c-3.625,3.67-9.169,4.567-13.78,2.239c-0.085-0.042-0.164-0.093-0.238-0.151c-1.407-0.81-3.147-1.041-4.817-0.59
		c-1.659,0.446-3.042,1.512-3.898,3C2.375,54.616,1.9,54.872,1.41,54.872z M28.807,41.706l1.273,0.002
		c1.004-0.017,2.018-0.445,2.758-1.183l20.234-20.229c1.566-1.57,1.566-4.131,0-5.707L42.483,4.011
		c-0.759-0.764-1.763-1.182-2.832-1.184c-0.004,0-0.008,0-0.011,0c-1.077,0-2.09,0.42-2.853,1.182l-20.238,20.22
		c-0.753,0.763-1.171,1.768-1.171,2.82c0,0.098-0.011,0.195-0.03,0.289v13.188c0,0.647,0.511,1.158,1.167,1.158l9.468,0.017
		c0.063-1.324-0.162-2.662-0.674-3.908c-0.367,0.114-0.76,0.178-1.166,0.178c-2.226,0-3.972-1.743-3.972-3.969
		c0-2.188,1.782-3.969,3.972-3.969c2.19,0,3.973,1.78,3.973,3.969c0,0.719-0.192,1.396-0.53,1.977
		C28.472,37.774,28.88,39.747,28.807,41.706z"/>
</g>
</svg>
