<?xml version="1.0" encoding="utf-8"?>
<!-- Generator: Adobe Illustrator 16.0.0, SVG Export Plug-In . SVG Version: 6.00 Build 0)  -->
<!DOCTYPE svg PUBLIC "-//W3C//DTD SVG 1.1//EN" "http://www.w3.org/Graphics/SVG/1.1/DTD/svg11.dtd">
<svg version="1.1" id="Layer_1" xmlns="http://www.w3.org/2000/svg" xmlns:xlink="http://www.w3.org/1999/xlink" x="0px" y="0px"
	 width="199.12px" height="198.183px" viewBox="0 0 199.12 198.183" enable-background="new 0 0 199.12 198.183"
	 xml:space="preserve">
<g>
	<path d="M3.816,198.183c-1.003,0-1.985-0.395-2.718-1.141c-1.084-1.097-1.396-2.736-0.8-4.162l30.636-72.373
		c0.176-0.447,0.434-0.854,0.772-1.221h0.006h0.007c0.021-0.026,0.048-0.054,0.069-0.081L149.838,1.081
		c1.423-1.437,3.973-1.444,5.396-0.006l42.769,42.761c1.49,1.491,1.49,3.904,0,5.396l-28.197,28.222
		c-1.489,1.492-3.902,1.492-5.395,0c-1.49-1.491-1.49-3.904,0-5.395l25.499-25.525l-37.374-37.36L39.881,121.916l37.374,37.359
		l69.818-69.865c1.49-1.491,3.903-1.491,5.396,0c1.49,1.491,1.49,3.903,0,5.395l-72.517,72.576c0,0-0.007,0-0.014,0.014l0,0
		c0,0,0,0-0.006,0h-0.007c0,0.013,0,0.027-0.006,0.013c0,0-0.007,0-0.007,0.015c0,0,0,0-0.007,0h-0.006
		c-0.007,0.029-0.007,0.017-0.007,0.017c-0.007,0-0.007,0-0.007,0.013l0,0c0,0-0.006,0-0.013,0l0,0
		c-0.257,0.244-0.548,0.458-0.868,0.622c0,0-0.007,0-0.013,0c0,0.014,0,0.014-0.007,0.014h-0.007c-0.008,0-0.015,0-0.021,0.014
		h-0.006c-0.087,0.04-0.183,0.08-0.285,0.124L5.247,197.912C4.786,198.099,4.297,198.183,3.816,198.183z M35.794,128.612
		L10.92,187.378l59.557-24.077L35.794,128.612z"/>
</g>
<g>
	<path d="M93.833,151.901c-0.977,0-1.958-0.365-2.704-1.112l-42.761-42.767c-1.49-1.492-1.49-3.904,0-5.396
		c1.484-1.491,3.904-1.491,5.395,0l42.768,42.768c1.491,1.491,1.491,3.904,0,5.395C95.785,151.536,94.81,151.901,93.833,151.901z"/>
</g>
</svg>
