<?xml version="1.0" encoding="utf-8"?>
<!-- Generator: Adobe Illustrator 16.0.0, SVG Export Plug-In . SVG Version: 6.00 Build 0)  -->
<!DOCTYPE svg PUBLIC "-//W3C//DTD SVG 1.1//EN" "http://www.w3.org/Graphics/SVG/1.1/DTD/svg11.dtd">
<svg version="1.1" id="Layer_1" xmlns="http://www.w3.org/2000/svg" xmlns:xlink="http://www.w3.org/1999/xlink" x="0px" y="0px"
	 width="200px" height="200px" viewBox="0 0 200 200" enable-background="new 0 0 200 200" xml:space="preserve">
<g>
	<path d="M25.034,198.253c-6.411,0-12.816-2.415-17.694-7.243c-4.87-4.835-7.48-11.059-7.495-17.693
		c-0.015-6.68,2.591-12.975,7.34-17.73l92.656-91.971c-4.656-17.848,0.334-36.117,13.115-48.763
		c13.471-13.458,33.117-18.215,51.298-12.434c0.138,0.039,0.278,0.08,0.417,0.126c0.541,0.198,1.606,0.851,2.053,1.212
		c1.808,1.796,2.573,3.712,2.543,5.655c-0.032,1.946-0.818,3.752-2.218,5.089l-27.988,27.787c-2.424,2.426-3.769,5.638-3.769,9.032
		c0,3.395,1.345,6.608,3.785,9.044c5.02,4.989,13.205,4.974,18.226-0.008l26.723-26.563c0.107-0.131,0.215-0.259,0.338-0.379
		l0.951-0.95c2.988-2.803,7.453-2.772,10.263-0.085c1.066,1.012,1.793,2.332,2.086,3.815c5.47,17.465,0.627,36.881-12.773,50.142
		c-13.469,13.445-33.21,18.179-51.495,12.368c-2.705-0.861-4.203-3.752-3.347-6.461c0.864-2.694,3.731-4.186,6.465-3.339
		c14.612,4.653,30.376,0.869,41.131-9.858c9.502-9.407,13.594-22.684,11.232-35.584l-24.329,24.185
		c-9.021,8.967-23.703,8.961-32.73,0.003c-4.395-4.394-6.812-10.19-6.812-16.331c0-6.14,2.417-11.936,6.797-16.319l24.233-24.053
		c-12.982-2.367-26.327,1.704-35.833,11.194c-10.654,10.543-14.506,25.966-10.068,40.269c0.966,2.085,0.374,5.166-1.668,7.167
		c-0.104,0.1-0.212,0.196-0.323,0.29l-93.697,93c-2.787,2.796-4.328,6.502-4.32,10.427c0.011,3.878,1.54,7.521,4.3,10.266
		c5.914,5.854,15.308,5.845,21.08,0.144l78.47-77.925c2.023-1.992,5.269-1.987,7.278,0.028c1.998,2.011,1.99,5.271-0.033,7.271
		l-78.477,77.925C37.858,195.83,31.444,198.253,25.034,198.253z"/>
</g>
</svg>
