<?xml version="1.0" encoding="utf-8"?>
<!-- Generator: Adobe Illustrator 16.0.0, SVG Export Plug-In . SVG Version: 6.00 Build 0)  -->
<!DOCTYPE svg PUBLIC "-//W3C//DTD SVG 1.1//EN" "http://www.w3.org/Graphics/SVG/1.1/DTD/svg11.dtd">
<svg version="1.1" id="Layer_1" xmlns="http://www.w3.org/2000/svg" xmlns:xlink="http://www.w3.org/1999/xlink" x="0px" y="0px"
	 viewBox="0 0 28.438 28.188" enable-background="new 0 0 28.438 28.188" xml:space="preserve">
<g>
	<path d="M4.132,27.982c-0.44,0-0.867-0.131-1.191-0.456l-2.018-2.018c-0.754-0.761-0.752-1.988,0.001-2.739
		l10.131-10.139c-1.369-3.344-0.63-7.192,1.926-9.746c1.681-1.682,3.917-2.609,6.298-2.609c2.38,0,4.618,0.927,6.3,2.609
		c1.683,1.683,2.61,3.92,2.61,6.299s-0.927,4.616-2.61,6.298c-2.705,2.706-6.825,3.383-10.251,1.688
		c-0.421-0.208-0.593-0.718-0.385-1.139c0.208-0.421,0.72-0.594,1.139-0.385c2.774,1.373,6.106,0.822,8.295-1.367
		c1.362-1.362,2.112-3.172,2.112-5.096c0-1.925-0.75-3.735-2.112-5.097c-1.361-1.361-3.172-2.111-5.098-2.111
		c-1.926,0-3.736,0.75-5.097,2.111c-2.152,2.15-2.707,5.586-1.35,8.356c0.16,0.326,0.095,0.718-0.162,0.975L2.125,23.974
		c-0.094,0.094-0.092,0.241,0.003,0.336l2.015,2.015c0.058-0.008,0.455-0.115,0.626-0.287l8.076-8.072
		c0.333-0.332,0.871-0.332,1.202,0c0.332,0.332,0.332,0.871,0,1.202L5.971,27.24C5.557,27.654,4.827,27.982,4.132,27.982z"/>
</g>
</svg>
