<?xml version="1.0" encoding="utf-8"?>
<!-- Generator: Adobe Illustrator 16.0.0, SVG Export Plug-In . SVG Version: 6.00 Build 0)  -->
<!DOCTYPE svg PUBLIC "-//W3C//DTD SVG 1.1//EN" "http://www.w3.org/Graphics/SVG/1.1/DTD/svg11.dtd">
<svg version="1.1" id="Capa_1" xmlns="http://www.w3.org/2000/svg" xmlns:xlink="http://www.w3.org/1999/xlink" x="0px" y="0px"
	 width="19.152px" height="19.16px" viewBox="0 0 19.152 19.16" enable-background="new 0 0 19.152 19.16" xml:space="preserve">
<path fill="#FFFFFF" d="M13.826,12.717l0.127-0.167c1.041-1.372,1.591-3.009,1.591-4.732C15.544,3.507,12.058,0,7.772,0
	S0,3.507,0,7.817s3.486,7.818,7.772,7.818c1.763,0,3.428-0.584,4.813-1.688l0.169-0.135l5.317,5.347l1.081-1.089L13.826,12.717z
	 M7.772,14.303c-3.558,0-6.449-2.91-6.449-6.485c0-3.576,2.893-6.485,6.449-6.485c3.556,0,6.449,2.909,6.449,6.485
	C14.222,11.393,11.329,14.303,7.772,14.303z"/>
</svg>
