<?xml version="1.0" encoding="utf-8"?>
<!-- Generator: Adobe Illustrator 16.0.0, SVG Export Plug-In . SVG Version: 6.00 Build 0)  -->
<!DOCTYPE svg PUBLIC "-//W3C//DTD SVG 1.1//EN" "http://www.w3.org/Graphics/SVG/1.1/DTD/svg11.dtd">
<svg version="1.1" id="Layer_1" xmlns="http://www.w3.org/2000/svg" xmlns:xlink="http://www.w3.org/1999/xlink" x="0px" y="0px"
	 viewBox="0 0 139.476 143.725" enable-background="new 0 0 139.476 143.725"
	 xml:space="preserve">
<path d="M133.007,122.649c-2.815,0-5.456-0.273-7.919-0.783c1.136,3.715,1.937,7.563,2.336,11.521l0.199,1.929H8.521
	l0.198-1.929c1.663-16.409,9.834-31.04,23.015-41.192c1.833-1.413,2.176-4.057,0.763-5.89c-0.804-1.043-2.021-1.642-3.335-1.642
	c-0.934,0-1.82,0.304-2.565,0.875C9.694,98.561,0,118.237,0,139.521c0,2.319,1.885,4.204,4.204,4.204h127.733
	c2.319,0,4.204-1.885,4.204-4.204c0-5.801-0.78-11.459-2.169-16.919C133.644,122.608,133.339,122.649,133.007,122.649z"/>
<g>
	<g>
		<path d="M113.103,119.294c-2.032,0-3.674-1.649-3.67-3.674l-0.003-46.149c0-2.025,1.645-3.674,3.674-3.67
			c2.032,0,3.67,1.646,3.667,3.674l0.003,46.149C116.77,117.648,115.127,119.294,113.103,119.294z"/>
	</g>
	<g>
		<path d="M139.476,92.92c0-2.032-1.649-3.67-3.674-3.67H89.653c-2.025,0-3.674,1.642-3.67,3.67
			c0,2.032,1.642,3.67,3.674,3.67l46.146,0.003C137.831,96.591,139.476,94.949,139.476,92.92z"/>
	</g>
</g>
<path d="M68.059,78.796c21.725,0,39.399-17.685,39.399-39.42C107.458,17.661,89.783,0,68.059,0
	C46.347,0,28.683,17.661,28.683,39.376C28.683,61.111,46.347,78.796,68.059,78.796z M68.059,7.033
	c17.846,0,32.367,14.507,32.367,32.343c0,17.856-14.521,32.387-32.367,32.387c-17.833,0-32.343-14.531-32.343-32.387
	C35.716,21.54,50.226,7.033,68.059,7.033z"/>
</svg>
