<?xml version="1.0" encoding="utf-8"?>
<!-- Generator: Adobe Illustrator 16.0.0, SVG Export Plug-In . SVG Version: 6.00 Build 0)  -->
<!DOCTYPE svg PUBLIC "-//W3C//DTD SVG 1.1//EN" "http://www.w3.org/Graphics/SVG/1.1/DTD/svg11.dtd">
<svg version="1.1" id="Layer_1" xmlns="http://www.w3.org/2000/svg" xmlns:xlink="http://www.w3.org/1999/xlink" x="0px" y="0px"
	 viewBox="0 0 151.333 143.936" enable-background="new 0 0 151.333 143.936"
	 xml:space="preserve">
<path d="M-264.288-234.433v-9.42"/>
<g>
	<path d="M46.607,109.864L27.931,128.55v-15.504c0-2.479-2.021-4.502-4.506-4.502c-7.947,0-14.412-6.455-14.412-14.393V23.406
		c0-7.936,6.465-14.393,14.412-14.393h104.498c7.942,0,14.396,6.457,14.396,14.393v70.745c0,7.938-6.454,14.393-14.396,14.393
		h-56.12c-2.486,0-4.507,2.023-4.507,4.502c0,2.494,2.021,4.512,4.507,4.512h56.12c12.907,0,23.41-10.496,23.41-23.406V23.406
		C151.333,10.499,140.831,0,127.923,0H23.425C10.509,0,0,10.499,0,23.406v70.745c0,10.652,7.202,19.967,17.513,22.65l1.404,0.367
		v22.266c0,1.826,1.094,3.461,2.783,4.158c1.658,0.703,3.635,0.301,4.91-0.977l26.366-26.379c0.851-0.852,1.32-1.988,1.32-3.191
		s-0.47-2.332-1.32-3.182C51.276,108.161,48.309,108.155,46.607,109.864z"/>
</g>
</svg>
