<?xml version="1.0" encoding="utf-8"?>
<!-- Generator: Adobe Illustrator 16.0.0, SVG Export Plug-In . SVG Version: 6.00 Build 0)  -->
<!DOCTYPE svg PUBLIC "-//W3C//DTD SVG 1.1//EN" "http://www.w3.org/Graphics/SVG/1.1/DTD/svg11.dtd">
<svg version="1.1" id="Layer_1" xmlns="http://www.w3.org/2000/svg" xmlns:xlink="http://www.w3.org/1999/xlink" x="0px" y="0px"
	 width="200px" height="200px" viewBox="0 0 200 200" enable-background="new 0 0 200 200" xml:space="preserve">
<g>
	<g>
		<path d="M99.496,198.734c-24.512,0-47.837-8.939-66.197-25.465C13.635,155.551,2.045,131.24,0.663,104.805
			c-1.389-26.439,7.601-51.832,25.32-71.506C43.695,13.625,68.014,2.023,94.456,0.638c54.526-2.864,101.306,39.232,104.148,93.796
			c1.202,22.88-5.622,45.609-19.215,64.007c-2.303,3.125-6.703,3.803-9.829,1.486c-3.126-2.311-3.787-6.713-1.479-9.838
			c11.664-15.781,17.51-35.295,16.484-54.921c-2.448-46.823-42.434-82.926-89.375-80.495c-22.688,1.192-43.557,11.146-58.766,28.03
			C21.227,59.588,13.513,81.383,14.7,104.07c1.187,22.68,11.13,43.549,28.018,58.748c16.88,15.217,38.825,22.889,61.35,21.742
			c16.743-0.881,32.662-6.574,46.037-16.492c3.133-2.309,7.526-1.648,9.829,1.471c2.317,3.117,1.654,7.51-1.463,9.83
			c-15.597,11.557-34.156,18.211-53.667,19.23C103.033,198.688,101.258,198.734,99.496,198.734z"/>
	</g>
</g>
<g>
	<g>
		<path d="M150.111,99.825c0-3.88-3.157-7.022-7.035-7.022H54.76c-3.885,0-7.035,3.142-7.035,7.027s3.159,7.028,7.035,7.022
			l88.316,0.006C146.963,106.852,150.111,103.711,150.111,99.825z"/>
	</g>
</g>
</svg>
