<?xml version="1.0" encoding="utf-8"?>
<!-- Generator: Adobe Illustrator 18.0.0, SVG Export Plug-In . SVG Version: 6.00 Build 0)  -->
<!DOCTYPE svg PUBLIC "-//W3C//DTD SVG 1.1 Tiny//EN" "http://www.w3.org/Graphics/SVG/1.1/DTD/svg11-tiny.dtd">
<svg version="1.1" baseProfile="tiny" id="Layer_1" xmlns="http://www.w3.org/2000/svg" xmlns:xlink="http://www.w3.org/1999/xlink"
	 x="0px" y="0px" viewBox="0 0 25.8 29" xml:space="preserve">
<g>
	<path fill="none" stroke="#A6CE39" stroke-width="1.3" stroke-linecap="round" stroke-linejoin="round" d="M4.8,16.6l-3.3-3.4
		c-1-1-1-2.6,0-3.6l8.2-8.2c1-1,2.6-1,3.6,0l4.5,4.5"/>
	<path fill="none" stroke="#A6CE39" stroke-width="1.3" stroke-linecap="round" stroke-linejoin="round" d="M13.8,18.7l-2.3-5.6
		l-3.7,9h11.8L17,15.9l-0.7,1.8 M20.5,17c0.7-0.1,1.2-0.6,1.5-1.3c0.5-1.1-0.1-2.4-1.2-2.8c-0.9-0.4-1.9-0.1-2.5,0.6 M5.9,25.3
		c-0.6,0-1.1-0.5-1.1-1.1V10.8c0-0.6,0.5-1.1,1.1-1.1h18.2c0.6,0,1.1,0.5,1.1,1.1v13.3c0,0.6-0.5,1.1-1.1,1.1H5.9z"/>
	<path fill="none" stroke="#A6CE39" stroke-width="1.3" stroke-linecap="round" stroke-linejoin="round" d="M0.6,11.7v14.1
		c0,1.4,1.1,2.5,2.5,2.5h16.4 M22.2,25.8c0,1.4-1.1,2.5-2.5,2.5"/>
</g>
</svg>
