<?xml version="1.0" encoding="utf-8"?>
<!-- Generator: Adobe Illustrator 15.0.0, SVG Export Plug-In . SVG Version: 6.00 Build 0)  -->
<!DOCTYPE svg PUBLIC "-//W3C//DTD SVG 1.1//EN" "http://www.w3.org/Graphics/SVG/1.1/DTD/svg11.dtd">
<svg version="1.1" id="Capa_1" xmlns="http://www.w3.org/2000/svg" xmlns:xlink="http://www.w3.org/1999/xlink" x="0px" y="0px"
	 width="24.327px" height="27.674px" viewBox="29.177 15.229 24.327 27.674" enable-background="new 29.177 15.229 24.327 27.674"
	 xml:space="preserve">
<g>
	<g>
		<path fill="#3D6186" d="M36.902,42.754H32.31c-1.728,0-3.133-1.409-3.133-3.141V15.879c0-0.359,0.291-0.65,0.65-0.65
			s0.65,0.291,0.65,0.65v23.734c0,1.015,0.823,1.84,1.833,1.84h4.592c0.359,0,0.65,0.291,0.65,0.65S37.26,42.754,36.902,42.754z
			 M45.928,32.533c-0.359,0-0.65-0.292-0.65-0.65V20.877c0-1.015-0.823-1.84-1.836-1.84H34.28c-0.289,0-0.524,0.236-0.524,0.526
			v0.972c0,0.29,0.235,0.526,0.524,0.526h7.257c1.006,0,1.824,0.818,1.824,1.824l-0.002,7.824c0,1.006-0.817,1.824-1.822,1.824
			H34.28c-1.006,0-1.824-0.818-1.824-1.824v-6.146c0-0.359,0.291-0.65,0.65-0.65s0.65,0.291,0.65,0.65v6.146
			c0,0.289,0.235,0.524,0.524,0.524h7.257c0.288,0,0.521-0.235,0.521-0.524l0.002-7.824c0-0.289-0.234-0.524-0.523-0.524H34.28
			c-1.006,0-1.824-0.819-1.824-1.826v-0.972c0-1.007,0.818-1.826,1.824-1.826h9.162c1.729,0,3.137,1.408,3.137,3.14v11.006
			C46.578,32.242,46.287,32.533,45.928,32.533z"/>
	</g>
	<g>
		<path fill="#3D6186" d="M49.508,42.903h-9.447c-0.304,0-0.55-0.246-0.55-0.55s0.246-0.55,0.55-0.55h9.447
			c0.152,0,0.294-0.058,0.397-0.161l2.321-2.317c0.114-0.11,0.177-0.26,0.177-0.414v-2.879c0-0.31-0.255-0.562-0.567-0.562h-4.882
			v4.181c0,0.304-0.246,0.55-0.55,0.55h-6.346c-0.304,0-0.55-0.246-0.55-0.55l-0.002-4.73c0-0.146,0.058-0.285,0.161-0.389
			c0.104-0.104,0.243-0.161,0.389-0.161h11.779c0.919,0,1.667,0.745,1.667,1.662v2.879c0,0.45-0.184,0.887-0.504,1.198l-2.315,2.311
			C50.373,42.731,49.955,42.903,49.508,42.903z M40.609,39.101h5.246V35.47h-5.248L40.609,39.101z"/>
	</g>
</g>
</svg>
