<?xml version="1.0" encoding="utf-8"?>
<!-- Generator: Adobe Illustrator 18.0.0, SVG Export Plug-In . SVG Version: 6.00 Build 0)  -->
<!DOCTYPE svg PUBLIC "-//W3C//DTD SVG 1.1//EN" "http://www.w3.org/Graphics/SVG/1.1/DTD/svg11.dtd">
<svg version="1.1" id="Layer_1" xmlns="http://www.w3.org/2000/svg" xmlns:xlink="http://www.w3.org/1999/xlink" x="0px" y="0px"
	 viewBox="0 0 200 190" enable-background="new 0 0 200 190" xml:space="preserve">
<g>
	<path fill="#FFFFFF" d="M181.3,51.5V24.5c0,0-8.6,0.2-19.6,3.3C146.2,11,124.1,0.5,99.5,0.5C74.9,0.5,52.8,11,37.4,27.7
		c-10.8-3-19.3-3.2-19.3-3.2v27.1C7.5,58.7,0.5,70.8,0.5,84.6c0,13.7,6.9,25.8,17.4,32.9c3.3,40,38.6,71.5,81.5,71.5
		c42.9,0,78-31.3,81.5-71.2c10.8-7.1,17.9-19.3,17.9-33.2C198.9,70.8,191.9,58.7,181.3,51.5z M99.5,16.8c17.7,0,34,6.5,46.4,17.2
		c-2.8,1.4-5.5,3.1-8.1,5c-11-7.2-24.2-11.4-38.4-11.4c-14.1,0-27.1,4.1-38.1,11.2c-2.6-1.9-5.4-3.6-8.2-5
		C65.7,23.2,81.8,16.8,99.5,16.8z M165,109c0,35.2-29.3,63.7-65.5,63.7c-36.2,0-65.5-28.5-65.5-63.7V43
		c12.8,2.8,22.1,10.2,26.7,14.6C71.6,49.8,85,45.2,99.5,45.2c14.5,0,27.9,4.6,38.8,12.4c4.6-4.4,14-11.8,26.7-14.6V109z"/>
	<path fill="#FFFFFF" d="M79.6,137c5,6.3,20.3,12.2,20.3,12.2s14.9-5.9,19.9-12.2H79.6z"/>
	<path fill="#FFFFFF" d="M114.9,152.4c0,0-4.8,2.7-14.9,2.7s-15.8-2.7-15.8-2.7c-2.7,1.4-4.5,7.2-4.5,7.2c4.1,3.6,15.4,5.4,20.3,5.4
		c4.9,0,15.4-1.8,19.4-5.4C119.4,159.6,117.6,153.7,114.9,152.4z"/>
	<path fill="#FFFFFF" d="M50.2,106.7l24,0.5c0,0,18.5-2.3,20.3,21.7L67.8,128C67.8,128,52.5,126.2,50.2,106.7z"/>
	<path fill="#FFFFFF" d="M104,128.9l24-0.4c0,0,18.5,2.3,20.3-21.7l-26.7,0.9C121.6,107.6,106.3,109.4,104,128.9z"/>
</g>
</svg>
