<?xml version="1.0" encoding="utf-8"?>
<!-- Generator: Adobe Illustrator 16.0.0, SVG Export Plug-In . SVG Version: 6.00 Build 0)  -->
<!DOCTYPE svg PUBLIC "-//W3C//DTD SVG 1.1//EN" "http://www.w3.org/Graphics/SVG/1.1/DTD/svg11.dtd">
<svg version="1.1" id="Layer_1" xmlns="http://www.w3.org/2000/svg" xmlns:xlink="http://www.w3.org/1999/xlink" x="0px" y="0px"
	 viewBox="0 0 139.476 143.725" enable-background="new 0 0 139.476 143.725"
	 xml:space="preserve">
<path d="M69.655,78.733c21.709,0,39.37-17.669,39.37-39.39C109.025,17.649,91.364,0,69.655,0
	C47.96,0,30.312,17.649,30.312,39.344C30.312,61.064,47.96,78.733,69.655,78.733z M69.655,7.028
	c17.832,0,32.342,14.496,32.342,32.316c0,17.844-14.51,32.362-32.342,32.362c-17.818,0-32.316-14.519-32.316-32.362
	C37.339,21.523,51.837,7.028,69.655,7.028z"/>
<path d="M111.441,86.462c-1.481-1.167-3.777-0.892-4.935,0.577c-1.201,1.521-0.941,3.734,0.577,4.935
	c13.404,10.584,21.552,25.772,22.947,42.766l0.131,1.584H8.105l0.131-1.584c1.396-16.972,9.543-32.159,22.944-42.766
	c1.518-1.204,1.775-3.419,0.575-4.938c-0.672-0.847-1.676-1.333-2.756-1.333c-0.8,0-1.552,0.263-2.182,0.761
	C10.409,99.457,1,118.91,1,139.835c0,1.938,1.575,3.511,3.514,3.511h129.24c1.938,0,3.514-1.572,3.514-3.511
	C137.267,118.878,127.852,99.425,111.441,86.462z"/>
</svg>
