<?xml version="1.0" encoding="utf-8"?>
<!-- Generator: Adobe Illustrator 16.0.0, SVG Export Plug-In . SVG Version: 6.00 Build 0)  -->
<!DOCTYPE svg PUBLIC "-//W3C//DTD SVG 1.1//EN" "http://www.w3.org/Graphics/SVG/1.1/DTD/svg11.dtd">
<svg version="1.1" id="Layer_1" xmlns="http://www.w3.org/2000/svg" xmlns:xlink="http://www.w3.org/1999/xlink" x="0px" y="0px"
	 width="200px" height="200px" viewBox="0 0 200 200" enable-background="new 0 0 200 200" xml:space="preserve">
<g>
	<g>
		<path d="M-182.606,194.512c-24.581,0-47.969-8.957-66.379-25.545c-19.72-17.76-31.342-42.145-32.727-68.644
			c-1.393-26.512,7.621-51.975,25.389-71.703c17.762-19.729,42.147-31.363,68.663-32.752c54.675-2.871,101.584,39.34,104.435,94.057
			c1.205,22.935-5.639,45.732-19.269,64.189c-2.309,3.127-6.722,3.809-9.855,1.477c-3.134-2.309-3.8-6.723-1.481-9.85
			c11.694-15.84,17.558-35.393,16.528-55.08c-2.453-46.953-42.55-83.154-89.62-80.717c-22.751,1.195-43.679,11.178-58.927,28.107
			c-15.243,16.932-22.978,38.786-21.787,61.535c1.19,22.751,11.161,43.662,28.095,58.919c16.926,15.242,38.931,22.945,61.52,21.787
			c16.789-0.875,32.752-6.594,46.162-16.529c3.143-2.326,7.549-1.66,9.857,1.465c2.324,3.127,1.659,7.549-1.466,9.863
			c-15.64,11.6-34.252,18.256-53.816,19.277C-179.058,194.463-180.842,194.512-182.606,194.512z"/>
	</g>
</g>
<g>
	<path d="M-175.707,119.631h-20.287l-6.14,31.414h-10.991l6.14-31.414h-18.351V109.02h20.352l5.306-27.267h-19.819V71.151h21.899
		l6.294-31.954h10.982l-6.293,31.954h20.279l6.292-31.954h11.065l-6.295,31.954h15.665v10.602h-17.745l-5.299,27.267h17.284v10.611
		h-19.274l-6.147,31.414h-11.062L-175.707,119.631z M-193.993,109.02h20.287l5.287-27.267h-20.278L-193.993,109.02z"/>
</g>
<g>
	<path d="M96.687,44.347v13.038l-2.338,0.258c-7.9,0.855-13.798,3.182-17.526,6.907c-1.832,1.843-3.271,3.997-4.251,6.42
		c-1.004,2.431-1.51,5.396-1.51,8.807c0,3.5,0.489,6.564,1.471,9.108c0.956,2.523,2.249,4.564,3.921,6.239
		c1.615,1.627,3.761,3.058,6.34,4.248c2.764,1.285,6.042,2.507,9.787,3.648l11.234,3.246c4.291,1.302,7.335,2.797,9.32,4.581
		c2.251,2.024,3.384,4.869,3.384,8.478c0,3.865-1.277,6.935-3.793,9.145c-3.022,2.708-7.763,4.025-14.52,4.025
		c-2.379,0-4.87-0.112-7.385-0.329c-2.676-0.233-4.661-0.587-6.051-1.085l-1.471-0.53l-0.232-1.519
		c-0.234-1.567-0.587-3.367-0.981-5.44c-0.121-0.595-0.232-1.101-0.337-1.535l-0.248-0.996h-8.808v15.211
		c0,0.491,0.04,0.916,0.129,1.271l0.305,0.947l1.486,0.274c2.259,0.562,5.095,1.061,8.672,1.51c3.575,0.45,7.248,0.756,10.896,0.925
		l2.507,0.111v14.328h7.311V141.14l2.275-0.298c7.473-1.004,13.081-3.406,16.649-7.111c1.943-1.952,3.423-4.274,4.42-6.911
		c1.004-2.699,1.519-5.769,1.519-9.128c0-6.01-1.471-10.623-4.508-14.11c-1.696-1.904-3.882-3.552-6.493-4.91
		c-2.764-1.422-6.244-2.749-10.343-3.958l-9.77-2.876c-4.926-1.551-8.358-3.146-10.528-4.873c-1.736-1.391-3.809-4.03-3.809-8.695
		c0-4.52,1.937-7.128,3.567-8.526c1.721-1.522,3.881-2.559,6.437-3.081c2.395-0.475,5.167-0.716,8.253-0.716
		c4.242,0,8.043,0.45,10.486,0.824l2.008,0.306l0.201,2.016c0.169,1.612,0.467,3.416,0.9,5.352c0.137,0.675,0.281,1.25,0.426,1.744
		l0.241,0.972h8.277V63.267l0.248-1.053c0.104-1.165-1.062-1.571-1.736-1.804c-1.751-0.639-4.025-1.21-6.967-1.728
		c-2.989-0.526-6.13-0.916-9.327-1.153l-2.429-0.185V44.347H96.687z"/>
	<g>
		<g>
			<path d="M99.828,198.448c-24.388,0-47.594-8.885-65.858-25.343c-19.567-17.622-31.098-41.817-32.472-68.11
				C0.114,78.691,9.058,53.427,26.688,33.852C44.309,14.278,68.506,2.735,94.813,1.356c54.25-2.849,100.792,39.033,103.619,93.321
				c1.198,22.757-5.593,45.377-19.117,63.691c-2.29,3.102-6.669,3.776-9.778,1.462c-3.11-2.29-3.77-6.669-1.471-9.771
				c11.604-15.718,17.421-35.115,16.401-54.649c-2.435-46.587-42.22-82.506-88.922-80.087
				c-22.573,1.186-43.336,11.089-58.466,27.888c-15.124,16.798-22.798,38.483-21.617,61.054
				c1.182,22.572,11.073,43.321,27.875,58.459c16.794,15.125,38.626,22.767,61.039,21.616c16.656-0.867,32.495-6.54,45.802-16.4
				c3.118-2.307,7.49-1.647,9.78,1.454c2.306,3.103,1.646,7.49-1.454,9.788c-15.517,11.506-33.982,18.111-53.397,19.123
				C103.348,198.4,101.581,198.448,99.828,198.448z"/>
		</g>
	</g>
</g>
</svg>
