<?xml version="1.0" encoding="utf-8"?>
<!-- Generator: Adobe Illustrator 16.0.0, SVG Export Plug-In . SVG Version: 6.00 Build 0)  -->
<!DOCTYPE svg PUBLIC "-//W3C//DTD SVG 1.1//EN" "http://www.w3.org/Graphics/SVG/1.1/DTD/svg11.dtd">
<svg version="1.1" id="Layer_1" xmlns="http://www.w3.org/2000/svg" xmlns:xlink="http://www.w3.org/1999/xlink" x="0px" y="0px"
	  viewBox="0 0 200 190.517" enable-background="new 0 0 200 190.517" xml:space="preserve">
<g>
	<g>
		<path d="M143.069,190.517h-85.56c-16.521,0-29.961-13.429-29.961-29.931V96.642c0-3.178,2.576-5.754,5.754-5.754
			c3.178,0,5.754,2.576,5.754,5.754v63.944c0,10.155,8.28,18.422,18.453,18.422h85.56c10.183,0,18.471-8.267,18.471-18.422V96.485
			c0-3.177,2.576-5.754,5.753-5.754c3.178,0,5.756,2.578,5.756,5.754v64.101C173.049,177.088,159.602,190.517,143.069,190.517z
			 M194.237,75.436h-53.295c-1.526,0-2.992-0.606-4.072-1.687c-1.076-1.081-1.684-2.546-1.684-4.072l0.014-26.209H65.502v26.213
			c0,3.177-2.576,5.754-5.755,5.754H6.704c-1.526,0-2.992-0.606-4.072-1.69c-1.081-1.082-1.686-2.547-1.682-4.073L1.01,34.921
			C1.019,15.759,16.648,0.091,35.853,0h129.262c0.01,0,0.019,0,0.026,0C184.354,0.091,199.992,15.759,200,34.925l-0.008,34.756
			C199.992,72.858,197.415,75.436,194.237,75.436z M146.702,63.926h41.78l0.009-29.001c-0.009-12.84-10.498-23.342-23.391-23.416
			H35.879c-12.863,0.064-23.351,10.571-23.36,23.424l-0.047,28.993h41.522V37.713c0-3.178,2.576-5.755,5.754-5.755h81.211
			c1.527,0,2.993,0.606,4.075,1.687c1.074,1.08,1.682,2.546,1.682,4.072L146.702,63.926z"/>
	</g>
	<g>
		<path d="M117.65,146.971c-5.387,0-9.765-4.379-9.765-9.766s4.378-9.766,9.765-9.766s9.766,4.379,9.766,9.766
			S123.037,146.971,117.65,146.971z M83.301,146.971c-5.379,0-9.754-4.379-9.754-9.766s4.375-9.766,9.754-9.766
			c5.387,0,9.766,4.379,9.766,9.766S88.688,146.971,83.301,146.971z M117.65,113.46c-5.387,0-9.765-4.383-9.765-9.774
			c0-5.378,4.378-9.756,9.765-9.756s9.766,4.378,9.766,9.756C127.416,109.077,123.037,113.46,117.65,113.46z M83.301,113.46
			c-5.379,0-9.754-4.383-9.754-9.774c0-5.378,4.375-9.756,9.754-9.756c5.387,0,9.766,4.378,9.766,9.756
			C93.066,109.077,88.688,113.46,83.301,113.46z"/>
	</g>
</g>
</svg>
