<?xml version="1.0" encoding="utf-8"?>
<!-- Generator: Adobe Illustrator 16.0.0, SVG Export Plug-In . SVG Version: 6.00 Build 0)  -->
<!DOCTYPE svg PUBLIC "-//W3C//DTD SVG 1.1//EN" "http://www.w3.org/Graphics/SVG/1.1/DTD/svg11.dtd">
<svg version="1.1" id="Layer_1" xmlns="http://www.w3.org/2000/svg" xmlns:xlink="http://www.w3.org/1999/xlink" x="0px" y="0px"
	 width="200px" height="200px" viewBox="0 0 200 200" enable-background="new 0 0 200 200" xml:space="preserve">
<g id="Layer_6">
	<g>
		<path d="M146.38,17.667l-93.864,0.061c-11.197,0-20.305,9.114-20.305,20.319v95.843c0,2.18,1.773,3.959,3.953,3.959
			c2.179,0,3.946-1.779,3.946-3.959V38.053c0-6.853,5.573-12.422,12.412-12.422l93.865-0.058c6.838,0,12.398,5.574,12.398,12.419
			v98.47H126.28c-2.179,0-3.952,1.773-3.952,3.952v32.505H52.516c-6.839,0-12.406-5.565-12.406-12.404v-5.965
			c0-2.174-1.768-3.953-3.946-3.953c-2.179,0-3.953,1.779-3.953,3.953v5.965c0,11.19,9.114,20.312,20.305,20.312h72.936v1.645
			l1.646,0.039l0.097-1.794c0.386-0.096,0.759-0.237,1.105-0.443l0.174-0.114l0.341-0.573l0.43-0.146l36.336-36.28
			c0.708-0.854,1.055-1.631,1.105-2.582V37.992C166.685,26.786,157.576,17.667,146.38,17.667z M153.199,144.367l-22.973,22.967
			v-22.967H153.199z"/>
		<path d="M97.844,58.22v8.202l-1.472,0.158c-4.969,0.54-8.671,1.998-11.018,4.341c-1.15,1.16-2.051,2.518-2.68,4.043
			c-0.624,1.527-0.945,3.397-0.945,5.542c0,2.199,0.309,4.127,0.92,5.733c0.61,1.587,1.42,2.87,2.468,3.923
			c1.021,1.02,2.365,1.922,3.991,2.672c1.736,0.81,3.805,1.582,6.151,2.292l7.071,2.04c2.698,0.823,4.615,1.765,5.875,2.883
			c1.406,1.27,2.121,3.06,2.121,5.332c0,2.434-0.804,4.362-2.385,5.756c-1.897,1.698-4.885,2.533-9.134,2.533
			c-1.499,0-3.066-0.077-4.647-0.205c-1.691-0.142-2.931-0.374-3.812-0.683l-0.918-0.341l-0.148-0.957
			c-0.154-0.983-0.367-2.114-0.624-3.426c-0.076-0.366-0.147-0.685-0.211-0.961l-0.154-0.624h-5.535v9.562
			c0,0.31,0.026,0.579,0.071,0.796l0.193,0.605l0.938,0.167c1.42,0.354,3.208,0.67,5.457,0.951c2.25,0.282,4.563,0.476,6.858,0.578
			l1.575,0.077v9.013h4.607v-9.115l1.422-0.192c4.712-0.631,8.24-2.141,10.477-4.474c1.222-1.234,2.159-2.688,2.777-4.345
			c0.643-1.701,0.964-3.635,0.964-5.744c0-3.783-0.933-6.688-2.848-8.879c-1.061-1.195-2.436-2.237-4.088-3.084
			c-1.735-0.897-3.921-1.733-6.498-2.489l-6.152-1.809c-3.092-0.974-5.257-1.982-6.62-3.069c-1.093-0.874-2.397-2.533-2.397-5.469
			c0-2.843,1.221-4.481,2.25-5.364c1.073-0.961,2.437-1.61,4.042-1.936c1.511-0.295,3.259-0.447,5.201-0.447
			c2.668,0,5.065,0.283,6.595,0.521l1.266,0.19l0.123,1.27c0.115,1.015,0.289,2.146,0.559,3.365c0.103,0.42,0.187,0.791,0.271,1.099
			l0.161,0.611h5.205v-8.74l0.143-0.664c0.071-0.733-0.668-0.988-1.087-1.135c-1.092-0.399-2.533-0.755-4.377-1.084
			c-1.883-0.33-3.863-0.575-5.875-0.725l-1.523-0.12V58.22H97.844L97.844,58.22z"/>
	</g>
</g>
</svg>
