<?xml version="1.0" encoding="utf-8"?>
<!-- Generator: Adobe Illustrator 16.0.0, SVG Export Plug-In . SVG Version: 6.00 Build 0)  -->
<!DOCTYPE svg PUBLIC "-//W3C//DTD SVG 1.1//EN" "http://www.w3.org/Graphics/SVG/1.1/DTD/svg11.dtd">
<svg version="1.1" id="Layer_1" xmlns="http://www.w3.org/2000/svg" xmlns:xlink="http://www.w3.org/1999/xlink" x="0px" y="0px"
	 width="16px" height="24px" viewBox="0 0 16 24" enable-background="new 0 0 16 24" xml:space="preserve">
<path d="M12.749,6.369c0,0.336,0.264,0.609,0.588,0.609s0.589-0.273,0.589-0.609v-3.68c0-1.485-1.169-2.693-2.604-2.693H2.6
	c-1.436,0-2.605,1.208-2.605,2.693v18.624c0,1.484,1.169,2.693,2.605,2.693h8.722c1.37,0,2.512-1.107,2.599-2.52
	c0.002-0.058,0.005-1.367,0.005-1.433c0-0.335-0.264-0.608-0.589-0.608s-0.588,0.273-0.588,0.608c0,0.044-0.001,1.258-0.003,1.351
	c-0.048,0.779-0.674,1.385-1.424,1.385H2.6c-0.788,0-1.428-0.663-1.428-1.476V2.688c0-0.814,0.64-1.476,1.428-1.476h8.722
	c0.787,0,1.427,0.662,1.427,1.476V6.369z"/>
<path d="M8.38,20.088c0,0.705-0.553,1.277-1.235,1.277c-0.682,0-1.235-0.572-1.235-1.277s0.553-1.277,1.235-1.277
	C7.827,18.811,8.38,19.383,8.38,20.088z"/>
<path d="M12.834,7.745v1.279l-0.23,0.025c-0.779,0.084-1.359,0.313-1.727,0.678c-0.181,0.181-0.322,0.393-0.42,0.63
	c-0.098,0.238-0.148,0.529-0.148,0.864c0,0.343,0.048,0.644,0.144,0.894c0.096,0.248,0.222,0.448,0.387,0.612
	c0.16,0.16,0.37,0.3,0.625,0.417c0.272,0.126,0.596,0.246,0.964,0.357l1.107,0.319c0.423,0.127,0.724,0.275,0.919,0.45
	c0.221,0.198,0.333,0.477,0.333,0.832c0,0.379-0.125,0.68-0.374,0.897c-0.297,0.265-0.765,0.394-1.43,0.394
	c-0.235,0-0.48-0.011-0.728-0.032c-0.265-0.022-0.459-0.057-0.596-0.106l-0.145-0.052l-0.024-0.149
	c-0.023-0.154-0.057-0.331-0.096-0.535c-0.012-0.057-0.024-0.107-0.034-0.15l-0.024-0.098h-0.867v1.493
	c0,0.048,0.004,0.089,0.012,0.125l0.03,0.092l0.147,0.027c0.223,0.056,0.502,0.104,0.854,0.148c0.353,0.044,0.714,0.075,1.075,0.09
	l0.246,0.011v1.405h0.721v-1.421l0.224-0.029c0.738-0.099,1.29-0.334,1.641-0.698c0.192-0.191,0.338-0.419,0.435-0.677
	c0.1-0.266,0.15-0.567,0.15-0.896c0-0.589-0.145-1.042-0.444-1.384c-0.167-0.188-0.382-0.349-0.641-0.482
	c-0.272-0.139-0.615-0.27-1.019-0.389l-0.962-0.282c-0.484-0.153-0.824-0.309-1.037-0.479c-0.171-0.136-0.375-0.396-0.375-0.853
	c0-0.444,0.19-0.699,0.352-0.836c0.169-0.149,0.382-0.251,0.634-0.302c0.235-0.046,0.51-0.07,0.814-0.07
	c0.417,0,0.792,0.044,1.033,0.081l0.198,0.03l0.02,0.198c0.017,0.158,0.046,0.335,0.088,0.525c0.015,0.066,0.029,0.123,0.042,0.172
	l0.025,0.095h0.816V9.601l0.023-0.103c0.011-0.115-0.104-0.155-0.171-0.178c-0.171-0.063-0.395-0.118-0.686-0.168
	C14.42,9.1,14.11,9.062,13.794,9.039l-0.239-0.018V7.745H12.834z"/>
</svg>
