<?xml version="1.0" encoding="utf-8"?>
<!-- Generator: Adobe Illustrator 16.0.0, SVG Export Plug-In . SVG Version: 6.00 Build 0)  -->
<!DOCTYPE svg PUBLIC "-//W3C//DTD SVG 1.1//EN" "http://www.w3.org/Graphics/SVG/1.1/DTD/svg11.dtd">
<svg version="1.1" id="Capa_1" xmlns="http://www.w3.org/2000/svg" xmlns:xlink="http://www.w3.org/1999/xlink" x="0px" y="0px"
	 width="82.778px" height="63.965px" viewBox="0 0 82.778 63.965" enable-background="new 0 0 82.778 63.965" xml:space="preserve">
<path fill="#3D6186" d="M41.398,20.923c-0.206,0-0.413,0.005-0.622,0.017c-3.129,0.163-6.008,1.536-8.105,3.866
	c-2.098,2.329-3.164,5.336-2.998,8.466c0.162,3.13,1.535,6.009,3.863,8.105c2.314,2.085,5.354,3.159,8.467,2.998
	c2.31-0.12,4.506-0.907,6.352-2.276c0.129-0.096,0.214-0.235,0.236-0.395c0.023-0.157-0.016-0.315-0.111-0.443
	c-0.191-0.26-0.578-0.32-0.839-0.125c-1.655,1.226-3.627,1.933-5.702,2.042c-2.803,0.141-5.525-0.825-7.598-2.693
	c-2.09-1.882-3.323-4.466-3.471-7.275c-0.146-2.811,0.809-5.51,2.691-7.6c1.884-2.092,4.469-3.325,7.277-3.473
	c5.871-0.287,10.768,4.189,11.07,9.971c0.127,2.432-0.598,4.848-2.041,6.802c-0.097,0.129-0.136,0.287-0.111,0.445
	c0.023,0.159,0.107,0.298,0.236,0.394c0.258,0.192,0.65,0.13,0.84-0.126c1.608-2.179,2.416-4.87,2.273-7.579
	C52.782,25.808,47.64,20.923,41.398,20.923"/>
<path fill="#3D6186" d="M36.216,32.949l5.193,5.245c0.23,0.23,0.699,0.23,0.927,0.002c0.123-0.122,0.192-0.293,0.192-0.471
	s-0.068-0.346-0.188-0.462l-3.941-3.94h7.588c0.363,0,0.66-0.295,0.66-0.658s-0.297-0.658-0.66-0.658h-7.588l3.938-3.936
	c0.122-0.121,0.191-0.292,0.191-0.469c0-0.176-0.07-0.349-0.186-0.462c-0.252-0.254-0.684-0.254-0.936-0.004l-5.185,5.231
	c-0.046,0.092-0.071,0.193-0.071,0.295l-0.132,0.005h0.132C36.151,32.765,36.175,32.862,36.216,32.949"/>
</svg>
