<?xml version="1.0" encoding="utf-8"?>
<!-- Generator: Adobe Illustrator 16.0.0, SVG Export Plug-In . SVG Version: 6.00 Build 0)  -->
<!DOCTYPE svg PUBLIC "-//W3C//DTD SVG 1.1//EN" "http://www.w3.org/Graphics/SVG/1.1/DTD/svg11.dtd">
<svg version="1.1" xmlns="http://www.w3.org/2000/svg" xmlns:xlink="http://www.w3.org/1999/xlink" x="0px" y="0px"
	 width="195.97px" height="200px" viewBox="0 0 195.97 200" enable-background="new 0 0 195.97 200" xml:space="preserve">
<g id="Layer_1">
	<g>
		<path d="M189.942,186.777H26.194c-7.138,0-12.942-5.8-12.942-12.931V25.8c0-7.127,5.804-12.929,12.942-12.929h12.593v56.876
			c0,12.4,10.094,22.49,22.499,22.49h61.588c12.396,0,22.48-10.095,22.48-22.494V11.6l37.766,37.222v102.376
			c0,3.548,2.878,6.425,6.421,6.425c3.541,0,6.428-2.877,6.428-6.425V46.14c0-1.713-0.699-3.378-1.924-4.577L153.795,1.875
			c-1.209-1.188-2.812-1.844-4.512-1.844H26.194c-14.221,0-25.786,11.566-25.786,25.777v148.041
			c0,14.212,11.565,25.777,25.786,25.777h163.754c3.543,0,6.423-2.887,6.423-6.429C196.371,189.657,193.491,186.777,189.942,186.777
			z M51.634,12.872h80.882v56.873c0,5.317-4.322,9.642-9.641,9.642H61.287c-5.323,0-9.653-4.325-9.653-9.642V12.872z"/>
	</g>
</g>
<g id="Layer_2" display="none">
	<g display="inline">
		<g>
			<path d="M-59.653,106.231c-2.964,0-5.784-1.081-8.004-3.079c-2.378-2.143-3.779-5.082-3.946-8.278
				c-0.168-3.197,0.919-6.267,3.062-8.646c2.142-2.379,5.082-3.782,8.279-3.949c6.593-0.346,12.249,4.744,12.593,11.341
				c0.146,2.767-0.68,5.515-2.323,7.739c-0.278,0.378-0.811,0.46-1.188,0.18c-0.378-0.279-0.458-0.812-0.179-1.189
				c1.41-1.908,2.117-4.268,1.993-6.641c-0.296-5.662-5.131-10.027-10.807-9.733c-2.743,0.144-5.267,1.348-7.105,3.389
				c-1.838,2.042-2.771,4.677-2.627,7.42c0.144,2.742,1.346,5.266,3.388,7.104c2.041,1.84,4.694,2.768,7.418,2.629
				c2.024-0.106,3.949-0.795,5.566-1.994c0.379-0.279,0.91-0.199,1.188,0.178c0.28,0.377,0.2,0.908-0.177,1.188
				c-1.886,1.397-4.13,2.202-6.489,2.325C-59.225,106.226-59.44,106.231-59.653,106.231z"/>
		</g>
	</g>
	<g display="inline">
		<g>
			<path d="M-64.039,98.623c-0.332-0.332-0.331-0.869,0.001-1.201l7.551-7.551c0.332-0.332,0.87-0.333,1.202,0
				c0.332,0.332,0.331,0.87-0.001,1.202l-7.551,7.551C-63.168,98.955-63.707,98.955-64.039,98.623z"/>
		</g>
		<g>
			<path d="M-55.407,98.623c0.332-0.332,0.331-0.869-0.001-1.201l-7.551-7.551c-0.332-0.332-0.87-0.333-1.202,0
				c-0.332,0.332-0.331,0.87,0.001,1.202l7.551,7.551C-56.277,98.955-55.739,98.955-55.407,98.623z"/>
		</g>
	</g>
</g>
</svg>
