<?xml version="1.0" encoding="utf-8"?>
<!-- Generator: Adobe Illustrator 16.0.0, SVG Export Plug-In . SVG Version: 6.00 Build 0)  -->
<!DOCTYPE svg PUBLIC "-//W3C//DTD SVG 1.1//EN" "http://www.w3.org/Graphics/SVG/1.1/DTD/svg11.dtd">
<svg version="1.1" id="Layer_1" xmlns="http://www.w3.org/2000/svg" xmlns:xlink="http://www.w3.org/1999/xlink" x="0px" y="0px"
	 width="113.39px" height="113.39px" viewBox="0 0 113.39 113.39" enable-background="new 0 0 113.39 113.39" xml:space="preserve">
<g>
	<g>
		<path d="M49.316,75.67c-2.145,0-4.29-0.813-5.918-2.433l-5.281-5.27c-1.339-1.335-1.339-3.51-0.003-4.85
			c1.339-1.34,3.51-1.34,4.849,0l5.273,5.27c0.6,0.596,1.578,0.583,2.179-0.009l29.703-29.72c1.336-1.34,3.505-1.34,4.849,0
			c1.336,1.332,1.336,3.506,0,4.842L55.253,73.237C53.608,74.856,51.463,75.67,49.316,75.67z"/>
	</g>
</g>
<path d="M105.797,47.553c2.413-12.839,2.491-22.432,2.491-22.983c0-1.254-1.002-2.38-2.257-2.508
	C74.194,18.43,59.65,1.002,59.521,0.88C59.148,0.378,58.396,0,57.641,0c-0.748,0-1.374,0.251-1.874,0.88
	c-0.128,0.25-14.669,17.55-46.51,21.183C8.002,22.19,7,23.316,7,24.57c0,0.752,0.127,18.302,6.145,37.98
	c8.146,26.453,23.313,44.001,43.875,50.647c0.25,0.124,0.502,0.124,0.752,0.124c0.247,0,0.501-0.124,0.748-0.124
	c19.054-6.155,33.465-21.696,41.759-44.987h-0.054l0.186-0.456c0.484-1.221-0.107-2.614-1.319-3.1
	c-1.226-0.493-2.615,0.095-3.112,1.319l-0.9,2.236h-0.062c-6.384,16.662-17.573,33.274-37.245,39.976
	C17.279,94.393,12.643,38.61,12.138,26.827c26.202-3.634,40.616-15.667,45.634-20.559c5.01,4.891,19.428,16.925,45.63,20.559
	c-0.18,4.279-0.945,14.385-3.735,26.152h0.016l-0.16,0.74c-0.28,1.311,0.539,2.606,1.833,2.885c1.308,0.288,2.59-0.539,2.881-1.854
	l0.387-1.771h0.054c0.406-1.795,0.764-3.546,1.086-5.244l0.04-0.181H105.797z"/>
</svg>
