<?xml version="1.0" encoding="utf-8"?>
<!-- Generator: Adobe Illustrator 15.0.0, SVG Export Plug-In . SVG Version: 6.00 Build 0)  -->
<!DOCTYPE svg PUBLIC "-//W3C//DTD SVG 1.1//EN" "http://www.w3.org/Graphics/SVG/1.1/DTD/svg11.dtd">
<svg version="1.1" id="Capa_1" xmlns="http://www.w3.org/2000/svg" xmlns:xlink="http://www.w3.org/1999/xlink" x="0px" y="0px"
	 width="16.265px" height="23.281px" viewBox="33.258 23.575 16.265 23.281" enable-background="new 33.258 23.575 16.265 23.281"
	 xml:space="preserve">
<g>
	<g>
		<path fill="#3D6186" d="M46.349,46.856l-9.917-0.008c-1.75,0-3.175-1.426-3.175-3.178v-8.562c0-1.759,1.406-3.229,3.194-3.177
			c0.006,0,0.012,0,0.019,0h9.879c1.75,0,3.174,1.425,3.174,3.177v8.562c0,0.002,0,0.004,0,0.006c0,0.001,0,0.003,0,0.005
			C49.523,45.432,48.099,46.856,46.349,46.856z M36.451,33.231c-0.006,0.001-0.012,0.001-0.019,0.001
			c-1.034,0-1.875,0.842-1.875,1.877v8.562c0,1.035,0.841,1.877,1.875,1.877l9.917,0.008c1.032,0,1.872-0.841,1.872-1.874
			c0-0.002,0-0.004,0-0.005c0-0.002,0-0.004,0-0.006v-8.562c0-1.035-0.84-1.877-1.873-1.877H36.47
			C36.464,33.232,36.458,33.232,36.451,33.231z"/>
	</g>
	<g>
		<path fill="#BCD147" d="M42.724,38.867l-0.573-0.613l0.291,0.303l-0.265-0.331c0.41-0.448,0.41-1.085,0.038-1.492
			c-0.194-0.216-0.458-0.342-0.744-0.356c-0.288,0.002-0.567,0.087-0.781,0.281c-0.213,0.193-0.337,0.459-0.351,0.748
			s0.086,0.565,0.281,0.776l-0.513,0.678l0.207-0.391l-0.29,0.304c-0.369-0.4-0.547-0.891-0.524-1.405s0.246-0.987,0.625-1.332
			c0.38-0.346,0.875-0.516,1.388-0.498c0.511,0.026,0.982,0.25,1.325,0.631c0.659,0.723,0.659,1.857-0.002,2.582L42.724,38.867z"/>
	</g>
	<g>
		<path fill="#3D6186" d="M42.438,39.121c-0.149,0-0.3-0.06-0.41-0.178c-0.21-0.226-0.199-0.579,0.025-0.79
			c0.006-0.007,0.076-0.081,0.076-0.082c0.306-0.335,0.306-0.89-0.018-1.243c-0.17-0.188-0.398-0.298-0.647-0.311
			c-0.25-0.013-0.493,0.074-0.68,0.244c-0.186,0.169-0.293,0.399-0.305,0.651c-0.011,0.251,0.075,0.491,0.244,0.675
			c0.205,0.223,0.239,0.614,0.022,0.826c-0.216,0.212-0.519,0.259-0.736,0.048c-0.002-0.003-0.082-0.086-0.084-0.088
			c-0.399-0.434-0.591-0.96-0.565-1.512c0.025-0.553,0.263-1.061,0.671-1.43c0.409-0.373,0.944-0.561,1.49-0.534
			c0.549,0.027,1.054,0.268,1.422,0.677c0.707,0.774,0.707,1.993-0.003,2.771l-0.119,0.125
			C42.712,39.071,42.574,39.121,42.438,39.121z"/>
	</g>
	<g>
		<polygon fill="#BCD147" points="42.851,43.156 39.988,43.156 39.988,38.561 40.827,38.561 40.827,42.316 42.011,42.316 
			42.011,38.561 42.851,38.561 		"/>
	</g>
	<g>
		<path fill="#3D6186" d="M42.431,43.286h-2.023c-0.304,0-0.55-0.246-0.55-0.55v-4.176c0-0.304,0.246-0.55,0.55-0.55
			s0.55,0.246,0.55,0.55v3.626h0.924v-3.626c0-0.304,0.246-0.55,0.55-0.55s0.55,0.246,0.55,0.55v4.176
			C42.981,43.04,42.735,43.286,42.431,43.286z"/>
	</g>
	<g>
		<path fill="#3D6186" d="M36.328,33.23c-0.359,0-0.65-0.291-0.65-0.65V27c0-1.889,1.537-3.425,3.425-3.425h4.513
			c1.889,0,3.425,1.536,3.425,3.425v3.064c0,0.359-0.291,0.65-0.65,0.65s-0.65-0.291-0.65-0.65V27c0-1.172-0.952-2.125-2.124-2.125
			h-4.513c-1.172,0-2.125,0.953-2.125,2.125v5.58C36.978,32.939,36.687,33.23,36.328,33.23z"/>
	</g>
</g>
</svg>
