<?xml version="1.0" encoding="UTF-8"?>
<!-- Generator: Adobe Illustrator 16.0.0, SVG Export Plug-In . SVG Version: 6.00 Build 0)  -->
<!DOCTYPE svg PUBLIC "-//W3C//DTD SVG 1.1//EN" "http://www.w3.org/Graphics/SVG/1.1/DTD/svg11.dtd">
<svg version="1.1" id="Layer_1" xmlns="http://www.w3.org/2000/svg" xmlns:xlink="http://www.w3.org/1999/xlink" x="0px" y="0px" width="119px" height="143.25px" viewBox="0 0 119 143.25" enable-background="new 0 0 119 143.25" xml:space="preserve">
<g display="none">
	<path display="inline" fill="#ffffff" d="M108.672,141.782H-21.107c-2.756,0-4.996-2.24-4.996-4.999   c0-21.463,9.646-41.419,26.482-54.746c2.159-1.705,5.305-1.35,7.017,0.815c1.717,2.164,1.349,5.309-0.815,7.022   c-13.103,10.375-21.13,25.445-22.485,41.91H103.47c-1.355-16.488-9.383-31.555-22.491-41.907c-2.165-1.711-2.532-4.853-0.821-7.02   c1.705-2.171,4.846-2.532,7.017-0.824c16.835,13.295,26.493,33.252,26.493,54.749C113.667,139.542,111.428,141.782,108.672,141.782   z M44.305,76.898C21.71,76.898,3.33,58.495,3.33,35.875c0-22.594,18.38-40.977,40.975-40.977c22.611,0,41.003,18.383,41.003,40.977   C85.308,58.495,66.916,76.898,44.305,76.898z M44.305,4.894c-17.083,0-30.984,13.898-30.984,30.98   c0,17.108,13.901,31.027,30.984,31.027c17.1,0,31.006-13.918,31.006-31.027C75.311,18.792,61.404,4.894,44.305,4.894z"/>
</g>
<g display="none">
	<g display="inline">
		<path fill="#ffffff" d="M76.464,141.741l-61.846-0.049c-11.604,0-21.046-9.445-21.046-21.058V67.238    c0-11.613,9.442-21.059,21.049-21.059c0.08,0,0.152,0,0.231,0h61.611c11.602,0,21.035,9.445,21.035,21.059v53.397    c0,0.011,0,0.017,0,0.029s0,0.018,0,0.03C97.499,132.301,88.065,141.741,76.464,141.741z M14.737,56.775    C9.003,56.879,4.174,61.434,4.174,67.238v53.397c0,5.767,4.687,10.461,10.447,10.461l61.849,0.049    c5.749,0,10.433-4.689,10.433-10.45c0-0.013,0-0.018,0-0.03s0-0.019,0-0.029V67.238c0-5.767-4.684-10.462-10.438-10.462H14.853    C14.813,56.775,14.776,56.775,14.737,56.775z"/>
	</g>
	<g display="inline">
		<path fill="#ffffff" d="M37.581,90.672L37.027,90.1c-2.303-2.491-3.412-5.555-3.27-8.758c0.146-3.209,1.527-6.163,3.896-8.312    c2.381-2.155,5.39-3.301,8.666-3.105c3.185,0.158,6.121,1.553,8.259,3.928c4.109,4.5,4.109,11.577-0.013,16.102l-4.27-3.105    l1.784,1.911l-1.791-1.911l0.556-0.573c2.161-2.393,2.168-6.369-0.152-8.903c-1.212-1.346-2.851-2.131-4.635-2.216    c-1.919-0.122-3.545,0.529-4.878,1.753c-1.334,1.206-2.106,2.863-2.186,4.665c-0.086,1.803,0.535,3.52,1.754,4.842L37.581,90.672z    "/>
	</g>
	<g display="inline">
		<path fill="#ffffff" d="M52.08,92.255c-0.931,0-1.868-0.371-2.557-1.108c-1.311-1.406-1.237-3.605,0.152-4.927    c0.072-0.072,0.529-0.554,0.566-0.591c1.82-2.003,1.82-5.462-0.195-7.667c-1.06-1.175-2.485-1.856-4.032-1.937    c-1.535,0-3.081,0.469-4.25,1.528c-1.151,1.054-1.827,2.491-1.9,4.062c-0.066,1.565,0.475,3.058,1.522,4.203    c1.272,1.382,1.497,3.812,0.165,5.134c-1.329,1.327-3.191,1.632-4.574,0.365c-0.067-0.067-0.408-0.42-0.476-0.493    c-2.582-2.795-3.775-6.084-3.616-9.525c0.152-3.44,1.637-6.606,4.178-8.915c2.551-2.32,5.779-3.538,9.299-3.337    c3.423,0.17,6.571,1.668,8.866,4.22c4.404,4.823,4.409,12.424-0.018,17.276l-0.742,0.774    C53.791,91.944,52.934,92.255,52.08,92.255z"/>
	</g>
	<g display="inline">
		<polygon fill="#ffffff" points="54.651,117.418 36.795,117.418 36.795,88.759 42.032,88.759 42.032,112.181 49.414,112.181     49.414,88.759 54.651,88.759   "/>
	</g>
	<g display="inline">
		<path fill="#ffffff" d="M52.032,118.229H39.414c-1.894,0-3.429-1.535-3.429-3.429V88.759c0-1.894,1.535-3.428,3.429-3.428    c1.894,0,3.429,1.534,3.429,3.428v22.612h5.761V88.759c0-1.894,1.535-3.428,3.429-3.428s3.428,1.534,3.428,3.428V114.8    C55.46,116.693,53.926,118.229,52.032,118.229z"/>
	</g>
	<g display="inline">
		<path fill="#ffffff" d="M13.976,56.764c-2.926,0-5.3-2.369-5.3-5.298V16.668c0-12.466,10.146-22.609,22.615-22.609h28.134    c12.466,0,22.605,10.143,22.605,22.609v19.11c0,2.926-2.369,5.301-5.299,5.301c-2.928,0-5.297-2.375-5.297-5.301v-19.11    c0-6.62-5.39-12.006-12.01-12.006H31.291c-6.626,0-12.013,5.386-12.013,12.006v34.797C19.278,54.395,16.902,56.764,13.976,56.764z    "/>
	</g>
</g>
<g display="none">
	<path display="inline" fill="#ffffff" d="M-29.956,68.206c0,1.301,0.037,2.617,0.104,3.934c1.03,19.725,9.679,37.868,24.363,51.083   c14.689,13.218,33.636,19.927,53.367,18.886c19.701-1.013,37.832-9.644,51.057-24.314c13.152-14.592,19.94-33.661,18.923-53.386   c-0.771-14.714-5.83-28.699-14.64-40.435c-1.238-1.66-3.601-1.992-5.269-0.748c-1.604,1.207-1.967,3.644-0.747,5.268   c7.901,10.53,12.446,23.088,13.139,36.307c0.912,17.828-5.225,34.892-16.997,47.953c-11.872,13.171-28.153,20.926-45.858,21.831   c-17.727,0.944-34.744-5.083-47.938-16.955c-13.183-11.873-20.956-28.167-21.882-45.883C-24.21,34.711,4.116,3.813,40.515,1.901   c16.036-0.808,31.779,4.166,44.337,13.992c1.631,1.274,4.007,0.993,5.281-0.649c1.248-1.593,0.944-4.042-0.643-5.28   C75.51-0.977,57.984-6.515,40.128-5.62C0.832-3.55-29.956,28.874-29.956,68.206z"/>
	<g display="inline">
		<path fill="#ffffff" d="M66.161,44.067v7.813h-5.366v38.354h5.366v7.812H44.617v-7.812h5.366V67.112L38.461,86.052h-7.497    c-1.421,0-1.973-0.395-2.604-1.42L17.626,66.717v23.519h5.445v7.812H2.395v-7.812h5.367V51.881H2.395v-7.813h9.707    c3.157,0,4.104,0.711,5.367,2.92l17.046,29.358l16.809-29.358c1.342-2.367,2.289-2.92,5.604-2.92H66.161z"/>
		<path fill="#ffffff" d="M88.176,98.048H77.207V66.717h-5.209v-6.865c3.078-0.395,7.497-0.789,9.707-0.789    c4.972,0,6.471,1.735,6.471,5.919V98.048z M88.176,47.54c0,3.867-1.973,5.366-5.761,5.366h-0.552    c-3.867,0-5.762-1.499-5.762-5.366v-1.026c0-3.866,1.895-5.445,5.762-5.445h0.552c3.788,0,5.761,1.579,5.761,5.445V47.54z"/>
	</g>
</g>
<g display="none">
	<g display="inline">
		<path fill="#ffffff" d="M92.674,142.006H4.076c-8.039,0-14.579-6.554-14.579-14.607V13.858c0-10.706,8.715-19.416,19.43-19.416    h76.909c6.501,0,11.79,5.294,11.79,11.804c0,2.735-2.215,4.956-4.952,4.956c-2.738,0-4.953-2.221-4.953-4.956    c0-1.061-0.831-1.893-1.885-1.893H8.927c-5.249,0-9.525,4.264-9.525,9.504v99.741c1.469-0.495,3.041-0.763,4.674-0.763h83.633    l0.012-87.809c0-2.739,2.215-4.956,4.953-4.956l0,0c2.737,0,4.952,2.22,4.952,4.956l-0.012,92.425    c0.012,0.109,0.012,0.223,0.012,0.336c0,2.738-2.215,4.953-4.952,4.953c-2.62,0-4.674,2.049-4.674,4.657    c0,2.591,2.1,4.702,4.674,4.702c2.737,0,4.952,2.215,4.952,4.953C97.626,139.791,95.411,142.006,92.674,142.006z M4.076,122.741    c-2.618,0-4.674,2.049-4.674,4.657c0,2.591,2.101,4.702,4.674,4.702h74.792c-0.507-1.479-0.773-3.058-0.773-4.702    c0-1.629,0.267-3.194,0.762-4.657H4.076z"/>
	</g>
	<g display="inline">
		<path fill="#ffffff" d="M58.717,94.056c-4.39,0-8.523-1.709-11.631-4.811L10.874,53.027c-6.405-6.375-6.416-16.825-0.012-23.283    l9.74-9.73c0.928-0.93,2.187-1.451,3.501-1.451c0,0,0,0,0.006,0c1.309,0,2.573,0.523,3.5,1.455l14.87,14.892    c1.936,1.936,1.931,5.072-0.005,7.008l-5.41,5.399l15.713,15.712l5.413-5.405c1.936-1.93,5.072-1.933,6.997-0.002l14.886,14.837    c1.942,1.934,1.947,5.064,0.019,7.006l-9.725,9.769C67.237,92.347,63.11,94.056,58.717,94.056z M24.098,30.526l-6.217,6.211    c-2.544,2.567-2.556,6.738-0.006,9.274l36.219,36.225c2.465,2.46,6.78,2.472,9.267-0.011l6.218-6.245l-7.885-7.85l-5.42,5.414    c-1.946,1.925-5.083,1.925-7.009-0.006l-22.713-22.72c-0.928-0.931-1.446-2.191-1.446-3.507c0-1.315,0.524-2.573,1.452-3.503    l5.408-5.402L24.098,30.526z"/>
	</g>
</g>
<g display="none">
	<path display="inline" fill="#ffffff" d="M69.559,137.969c-6.881,0-12.479-5.595-12.479-12.478l-0.011-48.817   c0-1.39,0.549-2.719,1.527-3.703c0.988-0.98,2.315-1.534,3.706-1.534h14.692c0.501,0.013,1-0.123,1.432-0.556   c0.487-0.485,0.561-1.044,0.561-1.336c0-0.293-0.073-0.843-0.517-1.289L50.885,40.626c-3.958-3.929-10.42-3.926-14.39,0.012   L8.951,68.23c-0.487,0.478-0.554,1.026-0.554,1.314s0.067,0.845,0.524,1.293c0.421,0.421,1.041,0.599,1.473,0.599h14.681   c2.893,0,5.234,2.344,5.234,5.237v48.817c0,6.883-5.595,12.478-12.479,12.478c-1.618,0-3.169-0.294-4.625-0.884   c-7.309-3.388-13.789-7.745-19.506-13.05c-29.541-27.604-31.14-74.083-3.58-103.626C3.475,6.09,21.603-2.168,41.168-2.839   C60.645-3.516,79.39,3.479,93.697,16.85c27.254,25.425,31.11,67.17,8.964,97.102c-1.721,2.315-4.993,2.814-7.327,1.094   c-2.324-1.722-2.814-4.999-1.096-7.327c18.981-25.648,15.673-61.421-7.689-83.213C74.288,13.047,58.345,7.049,41.529,7.629   C24.762,8.204,9.222,15.28-2.228,27.55C-25.849,52.876-24.47,92.72,0.84,116.369c4.899,4.55,10.464,8.291,16.54,11.112   c-0.06-0.035,0.192,0.019,0.45,0.019c1.107,0,2.01-0.902,2.01-2.009V81.907h-9.446c-3.316,0-6.54-1.323-8.849-3.64   c-2.33-2.292-3.624-5.402-3.624-8.733c0.007-3.326,1.3-6.427,3.654-8.741l27.518-27.567c8.049-8.007,21.135-8.002,29.187-0.018   l27.57,27.621c2.312,2.283,3.605,5.385,3.605,8.705c0.005,3.328-1.282,6.436-3.628,8.752c-2.371,2.407-5.654,3.784-9,3.621h-9.284   l0.006,43.584c-0.006,1.365,1.631,2.317,2.701,1.882c3.473-1.582,7.16-3.766,10.763-6.401c2.342-1.703,5.614-1.19,7.323,1.138   c1.703,2.341,1.197,5.613-1.137,7.323c-4.183,3.049-8.491,5.595-12.811,7.562C72.729,137.675,71.177,137.969,69.559,137.969z"/>
</g>
<g display="none">
	<g display="inline">
		<path fill="#ffffff" d="M91.071,141.618H9.396c-4.863,0-8.99-1.953-11.323-5.361c-2.248-3.287-2.594-7.598-0.948-11.832    c1.196-2.97,4.053-9.93,5.14-11.63c3.405-5.292,8.056-8.203,13.102-8.203h86.656c3.706,0,6.02-3.183,6.04-6.134    c0.01-1.434-0.479-2.742-1.463-3.904c-1.527-1.818-1.295-4.531,0.519-6.064c1.823-1.517,4.533-1.295,6.063,0.52    c2.309,2.743,3.509,6.029,3.479,9.514c-0.044,8.081-6.612,14.669-14.639,14.669h-3.943l4.918,11.041    c1.802,4.368,1.536,8.713-0.678,12.024C100.035,139.665,95.935,141.618,91.071,141.618z M15.367,113.191    c-2.585,0-4.617,2.312-5.861,4.255c-0.534,0.896-2.699,5.971-4.384,10.146c-0.332,0.855-0.796,2.565,0.055,3.801    c0.701,1.033,2.243,1.627,4.22,1.627h81.675c1.946,0,3.438-0.568,4.097-1.551c0.603-0.896,0.573-2.265-0.079-3.847l-6.431-14.431    H15.367z M86.871,98.147H28.365c-2.377,0-4.3-1.922-4.3-4.3s1.922-4.3,4.3-4.3h58.506c3.894,0,7.066-3.184,7.066-7.088V65.875    c0-2.375,1.923-4.302,4.3-4.302c2.378,0,4.3,1.927,4.3,4.302V82.46C102.537,91.109,95.51,98.147,86.871,98.147z M13.577,98.147    c-8.624,0-15.637-7.038-15.637-15.688V35.055c0-8.624,7.013-15.64,15.637-15.64h49.758c2.377,0,4.301,1.928,4.301,4.302    c0,2.375-1.924,4.302-4.301,4.302H13.577c-3.879,0-7.037,3.156-7.037,7.036V82.46c0,3.904,3.158,7.088,7.037,7.088    c2.377,0,4.3,1.922,4.3,4.3S15.954,98.147,13.577,98.147z"/>
	</g>
	<g display="inline">
		<path fill="#ffffff" d="M108.022,56.064H82.955c-5.055,0-9.168-4.106-9.168-9.158V25.269c0-4.002,2.556-7.418,6.12-8.682V4.749    c0-5.414,4.403-9.82,9.819-9.82h11.396c5.398,0,9.792,4.406,9.792,9.82v3.549c0,1.538-1.245,2.783-2.782,2.783    c-1.538,0-2.783-1.245-2.783-2.783V4.749c0-2.344-1.898-4.254-4.227-4.254H89.727c-2.349,0-4.255,1.91-4.255,4.254v11.313h22.551    c5.058,0,9.168,4.129,9.168,9.207v21.637C117.19,51.958,113.08,56.064,108.022,56.064z M82.955,21.627    c-1.986,0-3.602,1.633-3.602,3.642v21.637c0,1.982,1.615,3.594,3.602,3.594h25.067c1.987,0,3.604-1.612,3.604-3.594V25.269    c0-2.009-1.616-3.642-3.604-3.642H82.955z"/>
	</g>
</g>
<g display="none">
	<g display="inline">
		<polygon fill="#ffffff" points="109.978,137.068 105.067,137.068 105.067,38.458 45.327,38.458 45.327,33.547 109.978,33.547       "/>
	</g>
	<g display="inline">
		<rect x="-29.553" y="135.84" fill="#ffffff" width="147.303" height="4.909"/>
	</g>
	<g display="inline">
		<path fill="#005C84" d="M-18.506,6.541v130.527H2.974v-13.91h15.96v13.91h20.252V6.541H-18.506z M31.21,117.43h-41.737v-10.637    H31.21V117.43z M31.21,94.927h-41.737V84.286H31.21V94.927z M31.21,73.449h-41.737v-10.64H31.21V73.449z M31.21,52.779h-41.737    V42.14H31.21V52.779z M31.21,30.273h-41.737V19.634H31.21V30.273z"/>
	</g>
	<g display="inline">
		<rect x="45.733" y="51.653" fill="#ffffff" width="7.777" height="8.182"/>
	</g>
	<g display="inline">
		<rect x="65.376" y="51.653" fill="#ffffff" width="7.773" height="8.182"/>
	</g>
	<g display="inline">
		<rect x="84.199" y="51.653" fill="#ffffff" width="7.773" height="8.182"/>
	</g>
	<g display="inline">
		<rect x="46.146" y="71.465" fill="#ffffff" width="7.772" height="8.184"/>
	</g>
	<g display="inline">
		<rect x="65.782" y="71.465" fill="#ffffff" width="7.776" height="8.184"/>
	</g>
	<g display="inline">
		<rect x="84.606" y="71.465" fill="#ffffff" width="7.776" height="8.184"/>
	</g>
	<g display="inline">
		<rect x="45.733" y="90.22" fill="#ffffff" width="7.777" height="8.184"/>
	</g>
	<g display="inline">
		<rect x="65.376" y="90.22" fill="#ffffff" width="7.773" height="8.184"/>
	</g>
	<g display="inline">
		<rect x="84.199" y="90.22" fill="#ffffff" width="7.773" height="8.184"/>
	</g>
	<g display="inline">
		<rect x="46.146" y="112.214" fill="#ffffff" width="7.772" height="24.821"/>
	</g>
	<g display="inline">
		<rect x="65.782" y="112.214" fill="#ffffff" width="7.776" height="24.821"/>
	</g>
	<g display="inline">
		<rect x="84.606" y="112.214" fill="#ffffff" width="7.776" height="24.821"/>
	</g>
	<g display="inline">
		<polygon fill="#ffffff" points="81.335,27.594 76.422,27.594 76.422,-0.64 17.092,-0.64 17.092,-5.551 81.335,-5.551   "/>
	</g>
</g>
<g display="none">
	<g display="inline">
		<path fill="#ffffff" d="M75.227,142.246H13.15c-12.699,0-23.027-10.321-23.027-23.005V72.845c0-3.016,2.441-5.463,5.458-5.463    c3.019,0,5.458,2.447,5.458,5.463v46.396c0,6.664,5.434,12.087,12.11,12.087h62.077c6.683,0,12.123-5.423,12.123-12.087V72.73    c0-3.015,2.438-5.461,5.458-5.461c3.018,0,5.46,2.446,5.46,5.461v46.511C98.268,131.925,87.933,142.246,75.227,142.246z     M112.357,58.742H73.686c-1.45,0-2.838-0.576-3.867-1.6c-1.021-1.026-1.599-2.415-1.593-3.865l0.006-17.731H20.228v17.735    c0,3.015-2.441,5.46-5.458,5.46h-38.487c-1.45,0-2.842-0.576-3.864-1.603c-1.023-1.025-1.602-2.419-1.595-3.868l0.043-25.216    c0.007-14.606,11.921-26.549,26.56-26.622h93.8c0.004,0,0.019,0,0.025,0c14.644,0.073,26.562,12.016,26.57,26.628l-0.008,25.22    C117.815,56.296,115.377,58.742,112.357,58.742z M79.147,47.819h27.752l0.006-19.76c-0.006-8.609-7.046-15.655-15.691-15.702    H-2.548c-8.621,0.04-15.66,7.09-15.667,15.71l-0.032,19.751H9.311V30.085c0-3.015,2.439-5.462,5.459-5.462h58.925    c1.45,0,2.839,0.578,3.867,1.6c1.021,1.025,1.599,2.416,1.593,3.864L79.147,47.819z"/>
	</g>
	<g display="inline">
		<path fill="#ffffff" d="M57.597,111.145c-4.914,0-8.909-3.999-8.909-8.912s3.995-8.913,8.909-8.913c4.913,0,8.911,4,8.911,8.913    S62.51,111.145,57.597,111.145z M57.597,100.221c-1.109,0-2.007,0.903-2.007,2.012c0,1.106,0.897,2.01,2.007,2.01    c1.111,0,2.009-0.903,2.009-2.01C59.605,101.106,58.726,100.221,57.597,100.221z M30.775,111.145    c-4.913,0-8.903-3.999-8.903-8.912s3.99-8.913,8.903-8.913c4.914,0,8.908,4,8.908,8.913S35.688,111.145,30.775,111.145z     M30.775,100.221c-1.112,0-2.009,0.903-2.009,2.012c0,1.106,0.897,2.01,2.009,2.01c1.109,0,2.014-0.903,2.014-2.01    C32.789,101.124,31.884,100.221,30.775,100.221z M57.597,84.976c-4.914,0-8.909-3.999-8.909-8.919    c0-4.909,3.995-8.907,8.909-8.907c4.913,0,8.911,3.998,8.911,8.907C66.508,80.977,62.51,84.976,57.597,84.976z M57.597,74.051    c-1.109,0-2.007,0.901-2.007,2.006c0,1.11,0.897,2.017,2.007,2.017c1.111,0,2.009-0.906,2.009-2.017    C59.605,74.932,58.726,74.051,57.597,74.051z M30.775,84.976c-4.913,0-8.903-3.999-8.903-8.919c0-4.909,3.99-8.907,8.903-8.907    c4.914,0,8.908,3.998,8.908,8.907C39.683,80.977,35.688,84.976,30.775,84.976z M30.775,74.051c-1.112,0-2.009,0.901-2.009,2.006    c0,1.11,0.897,2.017,2.009,2.017c1.109,0,2.014-0.906,2.014-2.017C32.789,74.952,31.884,74.051,30.775,74.051z"/>
	</g>
</g>
<g>
	<path fill="#ffffff" d="M69.714,111.167c-1.01-0.15-1.857,0.529-1.994,1.491c-1.696,11.929-10.349,21.722-22.047,24.95   l-1.969,0.547l1.173-1.678c4.016-5.703,8.304-16.089,8.304-28.115c0-17.13-8.879-33.876-15.508-33.876   c-18.675,0-33.867,15.198-33.867,33.876c0,18.654,15.178,33.848,33.837,33.864h0.007h0.05   c16.748-0.014,31.159-12.512,33.506-29.071c0.069-0.461-0.05-0.928-0.332-1.306C70.59,111.478,70.179,111.229,69.714,111.167z    M37.543,78.019l0.206-0.003c3.046,0.39,11.081,11.894,11.843,27.812l0.039,0.772H26.153l0.04-0.77   C26.905,90.826,34.177,78.48,37.543,78.019z M7.458,105.805c1.051-12.563,9.94-23.277,22.105-26.659l1.912-0.532l-1.105,1.647   c-4.323,6.434-7.278,16.259-7.706,25.634l-0.03,0.706H7.392L7.458,105.805z M29.849,137.642   c-12.328-3.296-21.327-14.038-22.391-26.721l-0.066-0.799h15.243l0.033,0.696c0.558,11.036,4.487,20.517,7.98,25.706l1.094,1.624   L29.849,137.642z M37.942,138.624l-0.266,0.104l-0.269-0.104c-2.911-1.159-10.448-12.304-11.213-27.732l-0.04-0.77h23.479   l-0.044,0.776C48.754,126.456,40.61,137.592,37.942,138.624z"/>
	<g>
		<g>
			<path fill="#ffffff" d="M68.053,31.879v-6.914c0-3.044-2.478-5.518-5.525-5.518H42.918c-1.925,0-3.568-1.075-4.288-2.802     c-0.862-2.076-0.189-4.51,1.803-6.51l8.193-8.164c0.978-0.976,2.555-0.97,3.529,0.005c0.976,0.975,0.969,2.557-0.007,3.529     l-8.186,8.161c-0.315,0.318-0.5,0.588-0.596,0.789h19.16c5.799,0,10.518,4.715,10.518,10.51v6.914"/>
			<path fill="#ffffff" d="M68.053,31.879"/>
			<path fill="#ffffff" d="M42.859,64.029"/>
			<path fill="#ffffff" d="M42.856,69.005c0.662,0.096,1.325-0.072,1.865-0.475c0.534-0.405,0.886-0.994,0.975-1.655     c0.21-1.438-0.755-2.654-2.125-2.845h-0.711H12.495c-3.04,0-5.518-2.479-5.518-5.521V24.966c0-3.044,2.479-5.518,5.518-5.518     h19.7c1.922,0,3.565-1.073,4.279-2.802c0.862-2.076,0.191-4.51-1.809-6.515l-8.123-8.096c-0.978-0.975-2.559-0.973-3.529,0.005     c-0.971,0.974-0.971,2.558,0.007,3.529l8.116,8.091c0.321,0.321,0.503,0.595,0.6,0.795h-19.24     c-5.795,0-10.512,4.715-10.512,10.51v33.542c0,5.797,4.716,10.513,10.512,10.513h30.365"/>
			<path fill="#ffffff" d="M42.859,69.021"/>
			<path fill="#ffffff" d="M73.045,31.879"/>
		</g>
	</g>
	<g>
		<g>
			<path fill="#ffffff" d="M98.476,101.917H70.109c-5.479,0-9.936-4.453-9.936-9.925V70.788c0-1.054,0.854-1.907,1.905-1.907     c1.058,0,1.909,0.853,1.909,1.907v21.204c0,3.367,2.747,6.107,6.121,6.107h28.366c3.381,0,6.128-2.74,6.128-6.107V70.736     c0-1.053,0.852-1.906,1.91-1.906c1.051,0,1.905,0.854,1.905,1.906v21.256C108.419,97.464,103.959,101.917,98.476,101.917z      M115.445,63.757H97.772c-0.507,0-0.993-0.201-1.352-0.559c-0.355-0.357-0.557-0.847-0.557-1.35l0.003-8.69h-23.11v8.69     c0,1.054-0.852,1.909-1.905,1.909H53.261c-0.507,0-0.99-0.201-1.352-0.562c-0.354-0.354-0.56-0.843-0.557-1.347l0.021-11.526     c0-6.354,5.182-11.549,11.554-11.577h42.86c0.004,0,0.007,0,0.007,0c6.373,0.028,11.556,5.224,11.562,11.581l-0.007,11.523     C117.351,62.902,116.499,63.757,115.445,63.757z M99.682,59.942h13.857v-9.617c0-4.258-3.479-7.739-7.754-7.766H62.938     c-4.269,0.02-7.745,3.508-7.748,7.768l-0.016,9.616h13.769v-8.69c0-1.056,0.854-1.911,1.909-1.911h26.928     c0.504,0,0.99,0.201,1.349,0.56c0.361,0.357,0.56,0.845,0.56,1.351L99.682,59.942z"/>
		</g>
		<g>
			<path fill="#ffffff" d="M90.42,87.704c-1.923,0-3.486-1.561-3.486-3.487c0-1.92,1.563-3.484,3.486-3.484     c1.922,0,3.485,1.564,3.485,3.484C93.905,86.144,92.342,87.704,90.42,87.704z M78.162,87.704c-1.92,0-3.48-1.561-3.48-3.487     c0-1.92,1.561-3.484,3.48-3.484c1.923,0,3.485,1.564,3.485,3.484C81.647,86.144,80.085,87.704,78.162,87.704z M90.42,75.746     c-1.923,0-3.486-1.563-3.486-3.489c0-1.921,1.563-3.481,3.486-3.481c1.922,0,3.485,1.56,3.485,3.481     C93.905,74.183,92.342,75.746,90.42,75.746z M78.162,75.746c-1.92,0-3.48-1.563-3.48-3.489c0-1.921,1.561-3.481,3.48-3.481     c1.923,0,3.485,1.56,3.485,3.481C81.647,74.183,80.085,75.746,78.162,75.746z"/>
		</g>
	</g>
	<path fill="#ffffff" d="M68.066,31.883"/>
	<path fill="#ffffff" d="M68.066,31.883l0.014,0.198c-0.093,0.664,0.072,1.327,0.476,1.867c0.405,0.532,0.994,0.883,1.656,0.975   c1.438,0.211,2.651-0.755,2.844-2.127v-0.712l-0.011-0.203"/>
</g>
</svg>