<?xml version="1.0" encoding="utf-8"?>
<!-- Generator: Adobe Illustrator 16.0.0, SVG Export Plug-In . SVG Version: 6.00 Build 0)  -->
<!DOCTYPE svg PUBLIC "-//W3C//DTD SVG 1.1//EN" "http://www.w3.org/Graphics/SVG/1.1/DTD/svg11.dtd">
<svg version="1.1" id="Layer_1" xmlns="http://www.w3.org/2000/svg" xmlns:xlink="http://www.w3.org/1999/xlink" x="0px" y="0px"
	 width="200px" height="200px" viewBox="0 0 200 200" enable-background="new 0 0 200 200" xml:space="preserve">
<g id="Layer_2">
	<path d="M170.384,188.406l27.895-27.878c2.345-2.344,2.345-6.165,0-8.513l-42.51-42.563c-2.263-2.271-6.262-2.271-8.51,0
		l-21.407,21.415l-56.656-56.64l21.407-21.394c1.124-1.117,1.758-2.67,1.758-4.252c0-1.578-0.642-3.132-1.758-4.256L47.853,1.584
		c-2.12-2.112-6.408-2.112-8.502-0.008L11.399,29.499C-3.8,44.743-3.8,69.526,11.407,84.738l103.179,103.146
		c2.272,2.273,6.239,2.273,8.512,0c2.345-2.345,2.345-6.166,0-8.511L19.911,76.235C9.392,65.708,9.376,48.574,19.886,38.027
		l23.711-23.671l34.246,34.233L56.437,69.984c-1.124,1.12-1.758,2.673-1.758,4.251c0,1.59,0.643,3.132,1.758,4.259l65.151,65.139
		c2.112,2.104,6.393,2.104,8.512,0l21.406-21.405l34.014,34.061l-23.64,23.623c-4.906,4.922-11.402,7.716-18.283,7.901
		c-1.613,0.039-3.107,0.705-4.224,1.868c-1.101,1.182-1.686,2.697-1.646,4.297c0.104,3.283,2.73,5.868,6.005,5.868v2.507
		l0.081-2.507C153.883,199.56,163.285,195.505,170.384,188.406z"/>
</g>
</svg>
