<?xml version="1.0" encoding="utf-8"?>
<!-- Generator: Adobe Illustrator 18.0.0, SVG Export Plug-In . SVG Version: 6.00 Build 0)  -->
<!DOCTYPE svg PUBLIC "-//W3C//DTD SVG 1.1 Tiny//EN" "http://www.w3.org/Graphics/SVG/1.1/DTD/svg11-tiny.dtd">
<svg version="1.1" baseProfile="tiny" id="Layer_1" xmlns:svg="http://www.w3.org/2000/svg"
	 xmlns="http://www.w3.org/2000/svg" xmlns:xlink="http://www.w3.org/1999/xlink" x="0px" y="0px" viewBox="59.8 319 463.5 127.8"
	 xml:space="preserve">
<g>
	<title>Layer 1</title>
	<g id="svg_3">
		<g>
			<g>
				<path fill="#10628A" d="M197.3,369.2c7-15.9,12.3-27.3,17.6-38.8c0.9-0.9,1.8-2.6,3.5-2.6L229,326c-4.4,12.3-15,32.6-22,51.1
					c-4.4,9.7-6.2,17.6-7,23.8c0,2.6,0,4.4,0.9,6.2l-0.9,0.9c-6.2-1.8-9.7-6.2-9.7-13.2c0-2.6,0-4.4,0.9-7
					c-5.3,6.2-15,14.1-25.6,14.1c-9.7,0-13.2-6.2-13.2-13.2c0.9-10.6,6.2-22,14.1-30.8c5.3-6.2,14.1-11.5,22-11.5
					c5.3,0,7.9,1.8,7.9,6.2s-2.6,8.8-7,13.2c-7,7-15,11.5-22.9,15.9c0,1.8-0.9,5.3-0.9,7.9c0,4.4,1.8,6.2,5.3,6.2
					c7.9,0,17.6-9.7,24.7-19.4C196.4,374.5,197.3,372.7,197.3,369.2z M168.2,378c11.5-7,20.3-15.9,20.3-22.9c0-1.8-0.9-2.6-2.6-2.6
					C178.7,352.5,170.8,366.6,168.2,378z"/>
				<path fill="#10628A" d="M377.9,380.7c3.5-7.9,8.8-18.5,13.2-28.2c0.9-0.9,1.8-2.6,3.5-2.6c0.9,0,11.5-1.8,11.5-1.8
					c-6.2,14.1-12.3,25.6-15.9,35.2c-1.8,4.4-2.6,7-2.6,8.8s0.9,2.6,2.6,2.6c2.6,0,7.9-3.5,11.5-7.9c0.9-7.9,5.3-19.4,14.1-29.1
					c6.2-7.9,15-11.5,22-11.5c4.4,0,10.6,0.9,10.6,6.2c0,4.4-5.3,7.9-11.5,10.6l-0.9-0.9c2.6-1.8,4.4-5.3,4.4-7.9
					c0-2.6-0.9-3.5-3.5-3.5c-8.8,0-22,22-22,37c0,4.4,0.9,6.2,4.4,6.2c6.2,0,11.5-4.4,15-7.9c0.9-0.9,1.8-2.6,3.5-4.4
					c1.8-3.5,3.5-7,5.3-10.6c10.6-18.5,24.7-24.7,38.8-23.8c3.5,0,7.9,0.9,9.7,2.6c-3.5,7.9-9.7,22.9-14.1,36.1
					c-0.9,4.4-3.5,15.9-1.8,21.1L474,408c-6.2-0.9-9.7-4.4-9.7-11.5c0.9-2.6,0.9-6.2,1.8-7.9l0,0c-6.2,8.8-14.1,14.1-21.1,14.1
					c-6.2,0-8.8-4.4-8.8-9.7c0-0.9,0-0.9,0-1.8c-6.2,6.2-14.1,11.5-22,11.5c-7.9,0-12.3-4.4-14.1-8.8c-5.3,5.3-11.5,8.8-17.6,8.8
					c-5.3,0-8.8-2.6-8.8-7.9C373.5,391.2,374.4,386.8,377.9,380.7z M448.4,391.2c0,2.6,0.9,3.5,3.5,2.6c7-1.8,14.1-12.3,19.4-23.8
					c2.6-7,7-15,7.9-16.7c-2.6-0.9-5.3-0.9-8.8,0.9C459,359.5,448.4,381.5,448.4,391.2z"/>
				<path fill="#10628A" d="M251,346.3c5.3,0,7.9,1.8,7.9,6.2s-3.5,8.8-7,13.2c-7,7-15,11.5-22.9,15.9c0,1.8-0.9,5.3-0.9,7.9
					c0,4.4,0.9,6.2,5.3,6.2c7,0,17.6-6.2,27.3-19.4c3.5-9.7,6.2-18.5,8.8-22.9c-2.6,0-5.3,0-7,0.9l-0.9-0.9c2.6-2.6,6.2-3.5,9.7-4.4
					c11.5-24.7,29.1-28.2,43.2-27.3c10.6,0,17.6,3.5,17.6,8.8c0,3.5-4.4,8.8-11.5,12.3l-0.9-0.9c2.6-2.6,3.5-6.2,3.5-9.7
					c-0.9-4.4-5.3-7-13.2-7c-12.3,0.9-20.3,9.7-26.4,23.8c0,0,19.4,0,22,0c2.6-0.9,7.9-0.9,9.7-1.8l-0.9,3.5c-0.9,0-1.8,0.9-2.6,0.9
					c-9.7,3.5-20.3,25.6-20.3,37.9c0,3.5,0.9,6.2,4.4,6.2c8.8-0.9,21.1-22,20.3-40.5c0-0.9,0.9-1.8,4.4-1.8c5.3-0.9,9.7-2.6,15-3.5
					c2.6-0.9,6.2-1.8,8.8-1.8c3.5,0,5.3,1.8,5.3,4.4c0,3.5-1.8,9.7-5.3,16.7l0,0c7.9-12.3,17.6-21.1,26.4-21.1c4.4,0,7,2.6,7,5.3
					c0,6.2-6.2,17.6-9.7,24.7c-2.6,4.4-7.9,16.7-7.9,23.8c0,1.8,0.9,4.4,0.9,5.3l-0.9,0.9c-6.2-1.8-9.7-5.3-9.7-12.3
					c-0.9-10.6,13.2-31.7,13.2-37.9c0-1.8,0-2.6-1.8-2.6c-4.4,0-15,14.1-19.4,22c-3.5,7-6.2,13.2-11.5,23.8h-11.5
					c0,0,10.6-23.8,17.6-40.5c0.9-3.5,1.8-7-1.8-6.2c-1.8,0.9-5.3,0.9-8.8,1.8c-0.9,5.3-2.6,11.5-4.4,17.6
					c-5.3,11.5-17.6,28.2-31.7,28.2c-7.9,0-11.5-3.5-12.3-9.7c-0.9-13.2,9.7-33.5,22-38.8c-4.4,0.9-13.2,0.9-19.4,0.9
					c-3.5,9.7-7.9,23.8-14.1,39.7c-5.3,15.9-10.6,25.6-24.7,24.7l-0.9-0.9c4.4-3.5,6.2-9.7,9.7-17.6c1.8-2.6,3.5-7.9,5.3-13.2
					c-7.9,8.8-17.6,15-28.2,15c-10.6,0-14.1-6.2-14.1-13.2c0-10.6,6.2-22,14.1-30.8C234.3,351.6,243.1,346.3,251,346.3z M229,378
					c11.5-7,20.3-15.9,20.3-22.9c0-1.8-0.9-2.6-2.6-2.6C240.4,352.5,232.5,366.6,229,378z"/>
				<path fill="#10628A" d="M400.8,333.1c0.9-3.5,3.5-6.2,7-6.2s5.3,2.6,4.4,6.2c-0.9,3.5-3.5,6.2-7,6.2
					C401.7,339.2,399.9,336.6,400.8,333.1z"/>
				<path fill="#10628A" d="M523.3,443.2c0,1.8-117.2,3.5-231.8,3.5S59.8,445,59.8,444.1c0-1.8,117.2-3.5,231.8-3.5
					C407,440.6,523.3,442.4,523.3,443.2z"/>
				<path fill="#10628A" d="M95.9,343.7c2.6-14.1,20.3-22.9,47.6-22.9h49.3c4.4,0,10.6,0,13.2-1.8l0.9,0.9c-2.6,4.4-7.9,7-18.5,7
					c0,0-10.6,0-20.3,0c-7,4.4-11.5,15-20.3,38.8c-3.5,7.9-8.8,24.7-13.2,35.2c-5.3,11.5-12.3,17.6-23.8,16.7l-0.9-0.9
					c4.4-1.8,7.9-8.8,13.2-22.9c4.4-12.3,15-38.8,16.7-44.1c4.4-11.5,11.5-17.6,19.4-22c-7.9,0-14.1,0-14.1,0
					c-24.7,0-40.5,8.8-40.5,23.8c0,1.8,0.9,4.4,0.9,7l0,0C97.7,357.8,94.1,350.7,95.9,343.7z"/>
			</g>
		</g>
	</g>
</g>
</svg>
