<?xml version="1.0" encoding="utf-8"?>
<!-- Generator: Adobe Illustrator 16.0.0, SVG Export Plug-In . SVG Version: 6.00 Build 0)  -->
<!DOCTYPE svg PUBLIC "-//W3C//DTD SVG 1.1//EN" "http://www.w3.org/Graphics/SVG/1.1/DTD/svg11.dtd">
<svg version="1.1" id="Layer_1" xmlns="http://www.w3.org/2000/svg" xmlns:xlink="http://www.w3.org/1999/xlink" x="0px" y="0px"
	 width="127.914px" height="200px" viewBox="0 0 127.914 200" enable-background="new 0 0 127.914 200" xml:space="preserve">
<g>
	<path d="M104.083,198.881H23.661C11.165,198.881,1,188.734,1,176.259V4.696C1,2.103,3.103,0,5.696,0s4.696,2.103,4.696,4.696
		v171.563c0,7.297,5.952,13.224,13.269,13.224h80.422c7.324,0,13.273-5.927,13.273-13.224V40.809
		c0-7.292-5.949-13.227-13.273-13.227H37.9c-2.096,0-3.8,1.704-3.8,3.8l-0.014,7.024c0,2.053,1.697,3.732,3.786,3.732H90.31
		c7.268,0,13.181,5.917,13.181,13.192v56.59c0,7.24-5.913,13.125-13.181,13.125H37.9c-7.275,0-13.192-5.885-13.192-13.125V65.097
		c0-2.593,2.103-4.696,4.696-4.696c2.593,0,4.696,2.103,4.696,4.696v46.824c0,2.061,1.704,3.726,3.8,3.726H90.31
		c2.089,0,3.79-1.665,3.79-3.726v-56.59c0-2.096-1.701-3.8-3.79-3.8H37.872c-7.268,0-13.178-5.892-13.178-13.135l0.014-7.024
		c0-7.264,5.917-13.181,13.192-13.181h66.183c12.504,0,22.665,10.146,22.665,22.618v135.45
		C126.748,188.734,116.587,198.881,104.083,198.881z"/>
</g>
</svg>
