<?xml version="1.0" encoding="utf-8"?>
<!-- Generator: Adobe Illustrator 16.0.0, SVG Export Plug-In . SVG Version: 6.00 Build 0)  -->
<!DOCTYPE svg PUBLIC "-//W3C//DTD SVG 1.1//EN" "http://www.w3.org/Graphics/SVG/1.1/DTD/svg11.dtd">
<svg version="1.1" id="Layer_1" xmlns="http://www.w3.org/2000/svg" xmlns:xlink="http://www.w3.org/1999/xlink" x="0px" y="0px"
	 width="150.617px" height="180.383px" viewBox="0 0 150.617 180.383" enable-background="new 0 0 150.617 180.383"
	 xml:space="preserve">
<g>
	<g>
		<path fill="#5C9BFA" d="M75.309,150.205c2.771,0,5.021-2.26,5.021-5.02V84.939c0-2.773-2.249-5.022-5.021-5.022
			s-5.021,2.249-5.021,5.022v60.247C70.288,147.945,72.537,150.205,75.309,150.205z M105.432,150.205c2.762,0,5.021-2.26,5.021-5.02
			V84.939c0-2.773-2.26-5.022-5.021-5.022c-2.761,0-5.021,2.249-5.021,5.022v60.247
			C100.411,147.945,102.671,150.205,105.432,150.205z M140.576,19.671h-40.165V9.63c0-5.542-4.488-10.042-10.041-10.042H60.247
			c-5.553,0-10.041,4.499-10.041,10.042v10.041H10.041C4.488,19.671,0,24.169,0,29.712v30.124h10.041v100.412
			c0,11.096,8.997,20.082,20.082,20.082h90.37c11.086,0,20.083-8.986,20.083-20.082V59.835h10.041V29.712
			C150.617,24.169,146.129,19.671,140.576,19.671z M60.247,14.65c0-2.771,2.249-5.021,5.021-5.021H85.35
			c2.762,0,5.021,2.25,5.021,5.021v5.021H60.247V14.65z M130.534,160.247c0,5.552-4.488,10.041-10.041,10.041h-90.37
			c-5.553,0-10.04-4.489-10.04-10.041V59.835h110.451V160.247z M140.576,49.794H10.041V34.732c0-2.771,2.249-5.02,5.021-5.02
			h120.495c2.76,0,5.021,2.249,5.021,5.02L140.576,49.794L140.576,49.794z M45.185,150.205c2.772,0,5.021-2.26,5.021-5.02V84.939
			c0-2.773-2.249-5.022-5.021-5.022c-2.771,0-5.021,2.249-5.021,5.022v60.247C40.164,147.945,42.413,150.205,45.185,150.205z"/>
	</g>
</g>
</svg>
