<?xml version="1.0" encoding="utf-8"?>
<!-- Generator: Adobe Illustrator 16.0.0, SVG Export Plug-In . SVG Version: 6.00 Build 0)  -->
<!DOCTYPE svg PUBLIC "-//W3C//DTD SVG 1.1//EN" "http://www.w3.org/Graphics/SVG/1.1/DTD/svg11.dtd">
<svg version="1.1" id="Layer_1" xmlns="http://www.w3.org/2000/svg" xmlns:xlink="http://www.w3.org/1999/xlink" x="0px" y="0px"
	 width="42.491px" height="49.371px" viewBox="0 0 42.491 49.371" enable-background="new 0 0 42.491 49.371" xml:space="preserve">
<g id="Layer_1_1_" display="none">
	<path display="inline" d="M38.875,24.312c-0.344-0.05-0.633,0.18-0.679,0.509c-0.577,4.062-3.524,7.397-7.509,8.498l-0.672,0.187
		l0.399-0.571c1.367-1.942,2.828-5.479,2.828-9.576c0-5.833-3.025-11.538-5.282-11.538c-6.36,0-11.536,5.176-11.536,11.538
		c0,6.354,5.171,11.527,11.526,11.533h0.002h0.016c5.705-0.004,10.611-4.26,11.413-9.899c0.022-0.158-0.018-0.316-0.113-0.444
		C39.173,24.417,39.033,24.334,38.875,24.312z M27.917,13.022h0.071c1.039,0.132,3.774,4.051,4.035,9.473l0.013,0.262h-7.997
		l0.013-0.262C24.294,17.385,26.77,13.18,27.917,13.022z M17.67,22.486c0.359-4.279,3.386-7.928,7.529-9.08l0.652-0.182
		l-0.377,0.562c-1.474,2.191-2.479,5.538-2.625,8.732l-0.012,0.239h-5.19L17.67,22.486z M25.296,33.33
		c-4.198-1.123-7.263-4.781-7.626-9.102l-0.022-0.271h5.191l0.013,0.237c0.188,3.758,1.527,6.988,2.717,8.754l0.372,0.554
		L25.296,33.33z M28.053,33.664L27.962,33.7l-0.091-0.036c-0.992-0.395-3.559-4.189-3.819-9.444l-0.013-0.262h7.995l-0.015,0.263
		C31.736,29.52,28.961,33.312,28.053,33.664z"/>
	<g display="inline">
		<circle cx="37.24" cy="17.562" r="1.145"/>
		<circle cx="38.676" cy="21.136" r="1.144"/>
		<circle cx="34.721" cy="14.77" r="1.145"/>
	</g>
</g>
<g id="Layer_2" display="none">
	<path display="inline" d="M37.148,32.891l3.393-3.391c0.285-0.285,0.285-0.75,0-1.035l-5.17-5.177
		c-0.275-0.276-0.762-0.276-1.035,0l-2.604,2.604l-6.891-6.889l2.604-2.602c0.137-0.136,0.214-0.325,0.214-0.517
		c0-0.192-0.078-0.381-0.214-0.518l-5.199-5.198c-0.258-0.257-0.779-0.257-1.034-0.001l-3.399,3.396
		c-1.849,1.854-1.849,4.868,0.001,6.718l12.549,12.545c0.276,0.276,0.759,0.276,1.035,0c0.285-0.285,0.285-0.75,0-1.035
		l-12.55-12.544c-1.279-1.28-1.281-3.364-0.003-4.647l2.884-2.879l4.165,4.164l-2.604,2.602c-0.137,0.136-0.214,0.325-0.214,0.517
		c0,0.193,0.078,0.381,0.214,0.518l7.924,7.922c0.257,0.256,0.777,0.256,1.035,0l2.604-2.604l4.137,4.143l-2.875,2.873
		c-0.597,0.599-1.387,0.938-2.224,0.961c-0.196,0.005-0.378,0.086-0.514,0.228c-0.134,0.144-0.205,0.328-0.2,0.522
		c0.013,0.399,0.332,0.714,0.73,0.714v0.305l0.01-0.305C35.141,34.247,36.285,33.754,37.148,32.891z"/>
</g>
<g id="Layer_3" display="none">
	<path display="inline" d="M29.265,30.1c-0.77,0-1.394-0.625-1.394-1.396c0-0.767,0.624-1.39,1.394-1.39
		c0.22,0,0.438,0.054,0.633,0.152l-0.494,0.965c-0.184-0.096-0.448,0.053-0.448,0.271c0,0.088,0.034,0.169,0.094,0.225l0.224-0.24
		l-0.149,0.293c0.193,0.103,0.449-0.057,0.449-0.276c0-0.09-0.039-0.172-0.103-0.228l0.737-0.795
		c0.285,0.264,0.449,0.637,0.449,1.021C30.656,29.475,30.031,30.1,29.265,30.1z"/>
	<g display="inline">
		<path d="M29.263,25.85c-0.471,0-0.851-0.382-0.851-0.851v-7.878c0-0.469,0.38-0.85,0.851-0.85c0.469,0,0.85,0.381,0.85,0.85V25
			C30.113,25.468,29.732,25.85,29.263,25.85z"/>
	</g>
	<g display="inline">
		<path d="M29.247,35.803c-2.964,0-5.784-1.08-8.004-3.078c-2.378-2.144-3.779-5.082-3.946-8.279
			c-0.168-3.197,0.919-6.267,3.062-8.646c2.142-2.379,5.082-3.782,8.279-3.949c6.59-0.348,12.249,4.744,12.592,11.341
			c0.146,2.767-0.681,5.515-2.322,7.74c-0.279,0.377-0.811,0.459-1.189,0.18c-0.377-0.279-0.456-0.812-0.178-1.189
			c1.41-1.908,2.117-4.268,1.992-6.641c-0.295-5.662-5.131-10.015-10.806-9.733c-2.743,0.144-5.268,1.348-7.105,3.389
			c-1.838,2.042-2.771,4.677-2.627,7.42c0.145,2.743,1.346,5.266,3.388,7.104c2.041,1.84,4.696,2.768,7.418,2.629
			c2.023-0.105,3.949-0.795,5.566-1.994c0.379-0.279,0.91-0.199,1.188,0.178c0.28,0.377,0.2,0.908-0.177,1.188
			c-1.887,1.397-4.131,2.202-6.489,2.325C29.675,35.797,29.46,35.803,29.247,35.803z M29.265,30.098
			c-0.77,0-1.394-0.625-1.394-1.394c0-0.767,0.624-1.392,1.394-1.392c0.224,0,0.445,0.056,0.643,0.158
			c0.051,0.027,0.1,0.062,0.143,0.096c0.054,0.031,0.104,0.066,0.15,0.109c0.289,0.264,0.455,0.639,0.455,1.027
			C30.656,29.473,30.031,30.098,29.265,30.098z"/>
	</g>
</g>
<g id="Layer_4" display="none">
	<g display="inline">
		<path d="M36.763,32.739H20.52c-1.741,0-3.158-1.417-3.158-3.157V16.944c0-0.065,0.01-0.128,0.027-0.188
			c-0.051-0.255-0.029-0.524,0.071-0.775c0.231-0.576,0.809-0.919,1.543-0.919h19.533c0.359,0,0.65,0.291,0.65,0.65
			s-0.291,0.65-0.65,0.65H19.004c-0.215,0-0.319,0.063-0.336,0.104c-0.01,0.024,0,0.069,0.043,0.111l8.598,8.6
			c0.701,0.705,1.921,0.704,2.623,0.001l6.494-6.499c0.675-0.675,1.57-0.896,2.341-0.578c0.725,0.3,1.155,1.003,1.155,1.881v9.6
			C39.921,31.322,38.505,32.739,36.763,32.739z M18.662,18.366v11.216c0,1.023,0.833,1.857,1.858,1.857h16.244
			c1.024,0,1.857-0.834,1.857-1.857v-9.6c0-0.344-0.126-0.585-0.354-0.68c-0.271-0.112-0.634,0.004-0.923,0.295l-6.494,6.499
			c-1.191,1.195-3.271,1.196-4.464,0L18.662,18.366z"/>
	</g>
</g>
<g id="Layer_5" display="none">
	<g display="inline">
		<g>
			<path d="M29.28,35.486c-2.964,0-5.784-1.08-8.004-3.079c-2.378-2.142-3.779-5.082-3.946-8.278
				c-0.168-3.197,0.919-6.267,3.062-8.646c2.142-2.379,5.082-3.782,8.278-3.949c6.593-0.346,12.249,4.744,12.593,11.341
				c0.146,2.766-0.681,5.516-2.322,7.74c-0.279,0.377-0.812,0.459-1.189,0.179c-0.377-0.278-0.457-0.812-0.178-1.188
				c1.41-1.908,2.117-4.268,1.992-6.641c-0.295-5.662-5.131-10.027-10.807-9.733c-2.742,0.144-5.267,1.348-7.104,3.389
				c-1.838,2.042-2.771,4.677-2.627,7.42c0.144,2.743,1.346,5.266,3.388,7.104c2.041,1.84,4.694,2.769,7.418,2.629
				c2.023-0.106,3.949-0.795,5.566-1.994c0.379-0.279,0.91-0.199,1.188,0.178c0.281,0.377,0.201,0.909-0.176,1.188
				c-1.887,1.398-4.131,2.203-6.49,2.326C29.708,35.48,29.493,35.486,29.28,35.486z"/>
		</g>
	</g>
	<g display="inline">
		<g>
			<path d="M26.18,28.137c-0.532,0-1.063-0.201-1.469-0.604l-1.31-1.309c-0.332-0.332-0.333-0.869-0.001-1.202
				c0.332-0.333,0.87-0.332,1.202-0.001l1.309,1.307c0.148,0.147,0.392,0.146,0.539-0.002l7.367-7.372
				c0.332-0.332,0.871-0.332,1.203,0s0.332,0.87,0,1.202l-7.37,7.375C27.244,27.936,26.712,28.137,26.18,28.137z"/>
		</g>
	</g>
</g>
<g id="Layer_6" display="none">
	<g display="inline">
		<path d="M36.022,11.022l-14.261,0.009c-1.701,0-3.085,1.385-3.085,3.087V28.68c0,0.331,0.27,0.602,0.601,0.602
			s0.6-0.271,0.6-0.602V14.119c0-1.041,0.847-1.887,1.886-1.887l14.261-0.009c1.039,0,1.884,0.847,1.884,1.887v14.96h-4.938
			c-0.331,0-0.601,0.27-0.601,0.601v4.938H21.761c-1.039,0-1.885-0.846-1.885-1.885v-0.906c0-0.33-0.269-0.601-0.6-0.601
			s-0.601,0.271-0.601,0.601v0.906c0,1.7,1.385,3.086,3.085,3.086h11.081v0.25l0.25,0.006l0.015-0.272
			c0.059-0.015,0.115-0.036,0.168-0.067l0.026-0.018l0.052-0.087l0.065-0.022l5.521-5.512c0.107-0.13,0.16-0.248,0.168-0.393V14.11
			C39.107,12.407,37.723,11.022,36.022,11.022z M37.058,30.271l-3.49,3.489v-3.489H37.058z"/>
		<path d="M28.648,17.183v1.246l-0.224,0.024c-0.755,0.082-1.317,0.304-1.674,0.66c-0.175,0.176-0.312,0.382-0.407,0.614
			c-0.095,0.232-0.144,0.516-0.144,0.842c0,0.334,0.047,0.627,0.14,0.871c0.093,0.241,0.216,0.436,0.375,0.596
			c0.155,0.155,0.359,0.292,0.606,0.406c0.264,0.123,0.578,0.24,0.935,0.348l1.074,0.31c0.41,0.125,0.701,0.268,0.893,0.438
			c0.214,0.193,0.322,0.465,0.322,0.81c0,0.37-0.122,0.663-0.362,0.875c-0.288,0.258-0.742,0.385-1.388,0.385
			c-0.228,0-0.466-0.012-0.706-0.031c-0.257-0.021-0.445-0.057-0.579-0.104l-0.14-0.052l-0.022-0.146
			c-0.023-0.149-0.056-0.321-0.095-0.521c-0.012-0.056-0.022-0.104-0.032-0.146l-0.023-0.095h-0.841v1.453
			c0,0.047,0.004,0.088,0.011,0.121l0.029,0.092l0.143,0.025c0.216,0.054,0.487,0.102,0.829,0.145s0.693,0.072,1.042,0.088
			l0.239,0.012v1.369h0.7v-1.385l0.216-0.029c0.716-0.096,1.252-0.325,1.592-0.68c0.186-0.188,0.328-0.408,0.422-0.66
			c0.098-0.259,0.146-0.553,0.146-0.873c0-0.575-0.142-1.016-0.433-1.349c-0.161-0.182-0.37-0.34-0.621-0.469
			c-0.264-0.136-0.596-0.263-0.987-0.378l-0.935-0.275c-0.47-0.148-0.799-0.301-1.006-0.466c-0.166-0.133-0.364-0.385-0.364-0.831
			c0-0.432,0.186-0.681,0.342-0.815c0.163-0.146,0.37-0.245,0.614-0.294c0.229-0.045,0.495-0.068,0.79-0.068
			c0.405,0,0.77,0.043,1.002,0.079l0.192,0.029l0.019,0.193c0.018,0.154,0.044,0.326,0.085,0.511
			c0.016,0.064,0.028,0.12,0.041,0.167l0.024,0.093h0.791v-1.328l0.021-0.101c0.011-0.111-0.102-0.15-0.165-0.172
			c-0.166-0.061-0.385-0.115-0.665-0.165c-0.286-0.05-0.587-0.087-0.893-0.11l-0.231-0.018v-1.242H28.648L28.648,17.183z"/>
	</g>
</g>
<g id="Layer_7" display="none">
	<g display="inline">
		<path d="M35.707,30.645c0,0.418,0.324,0.756,0.726,0.756c0.398,0,0.725-0.338,0.725-0.756V12.293c0-1.843-1.439-3.341-3.207-3.341
			H23.207c-1.769,0-3.208,1.498-3.208,3.341v23.105c0,1.843,1.439,3.343,3.208,3.343h10.742c1.688,0,3.092-1.374,3.2-3.126
			c0.003-0.073,0.007-1.696,0.007-1.779c0-0.415-0.325-0.755-0.725-0.755c-0.4,0-0.726,0.34-0.726,0.755
			c0,0.057-0.002,1.562-0.004,1.678c-0.06,0.967-0.83,1.717-1.754,1.717H23.207c-0.97,0-1.759-0.82-1.759-1.83V12.293
			c0-1.01,0.789-1.832,1.759-1.832h10.742c0.969,0,1.758,0.822,1.758,1.832V30.645z"/>
		<path d="M30.326,33.88c0,0.875-0.682,1.583-1.52,1.583c-0.841,0-1.521-0.708-1.521-1.583s0.682-1.584,1.521-1.584
			C29.644,32.296,30.326,33.005,30.326,33.88z"/>
	</g>
</g>
<g id="Layer_8">
	<path d="M7.224,38.45c-0.308,0-0.557,0.251-0.557,0.558s0.249,0.557,0.557,0.557h12.137c0.309,0,0.557-0.25,0.557-0.557
		s-0.249-0.558-0.557-0.558H7.224z"/>
	<path d="M38.656,21.52c-0.099-0.096-0.24-0.152-0.396-0.152c-0.152,0-0.298,0.056-0.393,0.152L27.279,32.115
		c-0.051,0.055-0.096,0.116-0.122,0.188l-2.747,6.488c-0.089,0.206-0.042,0.446,0.116,0.605c0.156,0.16,0.407,0.203,0.601,0.127
		l6.591-2.663c0.061-0.027,0.114-0.062,0.167-0.107l10.606-10.613c0.218-0.218,0.218-0.57,0-0.788L38.656,21.52z M25.961,37.986
		l1.905-4.5l2.656,2.656L25.961,37.986z M31.51,35.555l-3.046-3.048l9.797-9.805l3.049,3.044L31.51,35.555z"/>
	<path d="M35.388,38.065c-0.613,0-1.114,0.501-1.114,1.114v6.947c0,0.6-0.504,1.104-1.104,1.104H3.331
		c-0.619,0-1.102-0.484-1.102-1.104V3.373c0-0.598,0.494-1.083,1.102-1.083H33.17c0.609,0,1.104,0.487,1.104,1.083v14.432
		c0,0.615,0.501,1.115,1.114,1.115c0.616,0,1.115-0.5,1.115-1.115V3.373c0-1.826-1.495-3.313-3.332-3.313H3.331
		C1.493,0.06,0,1.545,0,3.373v42.754c0,1.839,1.495,3.336,3.331,3.336H33.17c1.838,0,3.332-1.497,3.332-3.336V39.18
		C36.502,38.562,36.005,38.065,35.388,38.065z"/>
</g>
<g id="Layer_9" display="none">
	<g display="inline">
		<path d="M38.877,16.183c-0.331,0-0.601,0.269-0.601,0.6s0.27,0.6,0.601,0.6c1.055,0,1.911,0.861,1.911,1.918v9.418
			c0,1.057-0.856,1.915-1.911,1.915c-0.331,0-0.601,0.271-0.601,0.601V33.3l-2.494-2.489c-0.111-0.111-0.266-0.177-0.424-0.177
			H24.957c-0.506,0-0.997-0.202-1.346-0.557c-0.114-0.115-0.266-0.181-0.428-0.181c-0.159,0-0.309,0.062-0.421,0.174
			c-0.236,0.232-0.238,0.613-0.007,0.849c0.574,0.582,1.376,0.916,2.201,0.916h10.154l3.343,3.337
			c0.169,0.169,0.429,0.223,0.654,0.13c0.224-0.094,0.37-0.312,0.37-0.555v-2.965l0.186-0.05c1.369-0.356,2.326-1.598,2.326-3.015
			V19.3C41.99,17.582,40.593,16.183,38.877,16.183z"/>
		<path d="M22.544,25.583l-2.486,2.487v-2.062c0-0.331-0.27-0.601-0.601-0.601c-1.058,0-1.919-0.859-1.919-1.916v-9.42
			c0-1.057,0.861-1.917,1.919-1.917h13.915c1.058,0,1.916,0.86,1.916,1.917v9.42c0,1.057-0.858,1.916-1.916,1.916h-7.473
			c-0.331,0-0.601,0.27-0.601,0.601s0.27,0.602,0.601,0.602h7.473c1.719,0,3.117-1.398,3.117-3.117v-9.42
			c0-1.719-1.398-3.117-3.117-3.117H19.458c-1.72,0-3.119,1.398-3.119,3.117v9.42c0,1.418,0.959,2.658,2.332,3.017l0.188,0.048
			v2.965c0,0.244,0.146,0.461,0.371,0.556c0.221,0.094,0.483,0.039,0.653-0.132l3.512-3.512c0.112-0.113,0.176-0.265,0.176-0.425
			c0-0.161-0.062-0.312-0.176-0.425C23.166,25.357,22.771,25.357,22.544,25.583z"/>
	</g>
</g>
</svg>
